<?xml version="1.0" encoding="utf-8"?>
<!-- Generator: Adobe Illustrator 24.0.1, SVG Export Plug-In . SVG Version: 6.00 Build 0)  -->
<svg version="1.1" id="Layer_1" xmlns="http://www.w3.org/2000/svg" xmlns:xlink="http://www.w3.org/1999/xlink" x="0px" y="0px"
	 viewBox="0 0 864 864" style="enable-background:new 0 0 864 864;" xml:space="preserve">
<style type="text/css">
	.st0{fill:#C7B299;}
	.st1{fill:#998675;}
	.st2{fill:#FFFFFF;}
	.st3{fill:#F5E8D0;}
	.st4{fill:#B7B58F;}
</style>
<path d="M629.2,403.2c2,1,3.9,1.7,5.4,2.8c5.5,3.9,7.9,9.6,8.9,16.1c1.1,7.1,1.8,14.3,3.4,21.3c1.8,7.7,4.5,15.2,6.7,22.8
	c2.2,7.8,1.1,15.5-1.3,23c-0.4,1.4-1.2,3.1-2.4,3.6c-5.2,2.6-3.7,6.4-2.3,10.4c4.2,11.9,8.4,23.8,12.6,35.7c0.3,0.9,0.9,2.3,1.6,2.5
	c5.4,1.5,6.9,5.6,8.2,10.4c1.3,5,3.5,9.7,5.1,14.6c3.9,12,2.5,13.9-8.4,20.7c-3.2,2-4.2,3.1-3.1,6.9c2.7,9.2-0.2,17.6-6.4,24.4
	c-4.3,4.7-9.4,9-14.7,12.5c-3,2-7.4,1.9-11.6,2.9c3.6,9.3,7.4,19.4,11.4,29.6c1.6,4.2,3.1,8.5,5.3,12.4c3.7,6.5,7.8,12.8,11.9,19
	c5,7.7,1.7,21-6.5,25.4c-7.5,4-15.2,5.1-23.8,3.7c-6.2-1-12.8,0.6-19.3,0.7c-10.9,0.2-21.8,0.6-32.6,0c-14.7-0.8-29.2-1-43.7,3.2
	c-18.5,5.4-37.5,7.6-56.8,5.7c-7.9-0.8-15.7-2.5-23.6-2.8c-7.9-0.3-16-0.4-23.6,1.2c-10.7,2.1-21.1,0.6-31.7,0.7
	c-11,0.1-22,1-33,1.2c-10.7,0.2-21.5,0.1-32.2-0.1c-4.7-0.1-9.4-1.2-14.1-1c-13.2,0.5-25.7-2.8-38.2-6.1c-9.6-2.6-19.5-4.3-29.2-6.2
	c-2.8-0.6-5.8-0.4-8.6-1.1c-1.6-0.4-3.3-1.5-4.4-2.7c-4.3-4.5-4.5-14.6-0.3-19.2c2.8-3,5.9-5.7,8.8-8.6c4.8-4.8,7.4-10.6,8.8-17.3
	c2-9.3,4.7-18.5,7.1-27.7c1.4-5.5,2.7-11,4.3-17c-4.3,1.7-7.7,2.2-8.6,7.2c-0.5,3.2-4.2,4.2-8,3.4c-10.4-2.4-17.4-8.8-23.3-17.4
	c-5.8-8.4-6.4-17.4-5.3-26.9c0.4-3.2,0.4-5.6-2.6-7.5c-3.7-2.5-5.1-5.6-3.5-10.5c2.7-7.7,4.3-15.9,6.9-23.6c0.7-2.1,2.9-4.1,4.9-5.2
	c2.2-1.3,3.5-2.6,4.2-5.1c1.7-5.8,3.9-11.4,5.6-17.1c2.4-7.8,4.7-15.7,7-23.6c-8-2.1-8.8-3.2-10.1-11.2c-1.7-10.4-0.1-20.5,1.9-30.7
	c1.9-10.2,3.3-20.6,4.4-31c1.2-11.3,5.1-21,15.2-27.9c-2.9,0-5.8,0.2-8.6,0c-25.4-2.4-49.6-8.8-72.4-20.9c-14.7-7.8-28-17.2-40.6-28
	c-10.1-8.8-22.5-13.8-34.5-19.3c-7.9-3.6-16.2-6.1-24.2-9.5c-4.7-2-9.2-4.5-13.6-7.1c-4.9-2.8-9.7-5.8-14.2-9.1
	c-3.2-2.4-6.3-5.6-4.7-10.1c1.5-4.4,5.1-6.7,9.9-6.7c13.8,0,27.7,0.6,41.5-0.2c13.1-0.7,26-2.8,39.1-4.3c4.2-0.5,8.4-1.2,12.7-1.6
	c13.5-1.2,27-1.8,40.4-3.5c19.7-2.5,39.3-5.7,58.9-8.7c6.3-0.9,12.6-1.4,18.7-2.9c8-1.9,15.3-5.4,21.8-10.7
	c10.2-8.2,20.3-16.5,31.2-23.6c6.2-4.1,14.2-5.6,20.9-9.2c14.9-7.8,31.5-10.2,47.2-15.8c3.5-1.3,39.8-5,53.9-4.6
	c12.6,0.3,24.9,1.7,37.1,4.4c14,3.1,28.5,5,42,9.4c14.6,4.8,28.5,11.9,42.5,18.2c6.4,2.9,12.7,6.2,18.9,9.6c2,1.1,4.3,2.4,5.6,4.2
	c8,10.8,20.3,13.6,32.1,16.9c13,3.5,26.4,5.5,39.6,8.3c18,3.8,36.2,3.9,54.4,3.9c8.2,0,16.5,0,24.7-0.1c10.3,0,20.5,0.1,30.8-0.2
	c11.9-0.4,23.8-1,35.7-1.9c5.3-0.4,7.7,3.1,10.3,6.3c1.7,2.1,0.1,6.8-2.8,8.4c-7.4,4.4-15,8.5-22.3,13c-7.7,4.7-15.4,9.6-22.8,14.8
	c-5.8,4-11.4,8.4-16.7,12.9c-14.9,12.7-29.4,25.9-44.5,38.2c-7.6,6.2-16.2,11.1-24.6,16.1c-14.9,8.8-31,13.9-48.1,16
	C630.2,402.1,629.9,402.6,629.2,403.2z"/>
<g>
	<path class="st0" d="M287.3,518.7c13.1,3.3,25.4,6.4,37.6,9.4c19.6,4.7,39.1,9.6,58.8,13.9c9.6,2.1,19.4,2.9,29.2,4.3
		c5.2,0.8,10.5,1.8,15.7,2.2c10,0.7,20,1.3,30,1.2c4.2,0,8.9-1.1,11.2-5.7c2.9-6,8.5-6.3,14.1-6.8c8.8-0.7,17.6-1.5,26.3-2.6
		c12.1-1.5,24.3-2.5,36.2-5c17.8-3.6,35.4-8.2,53.7-12.5c0.9,4.1,2.3,9.1,3.2,14.2c2.1,11.7,3.8,23.5,5.8,35.2
		c1.9,10.8,3.8,21.7,6.1,32.4c1,4.6,3,8.9,4.5,13.3c4.7,14.2,9,28.5,13.9,42.5c4.6,13.2,9.8,26,18.7,37.1c3.2,4,5.5,8.2,3,14.5
		c-1.6,4-2.1,8.1-6.3,10.2c-5.1,2.6-10.4,3.5-16.2,3.2c-8.3-0.4-16.6,0-25,0.1c-10.9,0.1-21.7,0.3-32.6,0.1
		c-7.8-0.1-15.6-1.5-23.4-1c-5.9,0.4-11.6,3.1-17.4,4.2c-19.3,3.7-38.6,8.3-58.6,5.6c-7.4-1-14.9-2.6-22.3-2.7
		c-9.7-0.1-19.3,1.3-29,1.6c-8.9,0.3-17.9-0.1-26.8,0.1c-10.3,0.2-20.6,0.9-30.9,1.1c-12.5,0.2-25,0.2-37.5,0.1
		c-5.6-0.1-11.2-1.1-16.8-1c-10.5,0.2-20.3-2.9-30.3-5.2c-10.2-2.3-20.5-3.9-30.7-5.8c-1.3-0.2-2.7-0.3-3.9-0.8
		c-2.7-1.1-6.6-0.4-7.4-4.4c-0.9-4.8-1.7-9.7,2.2-13.8c2.6-2.6,5.1-5.3,7.9-7.7c5.3-4.7,7.6-11.1,9.4-17.6c1-3.8,1.4-7.8,2.3-11.6
		c1.7-7.3,3.8-14.4,5.4-21.7c2.1-9.8,3.2-19.8,6-29.3c2.2-7.4,2.3-15.1,4.1-22.5c1.6-6.8,1.8-14,3.8-20.7
		c3.7-12.7,3.6-25.8,5.7-38.7C287.8,525.1,287.3,521.8,287.3,518.7z M369.6,671.5c0.4,0,0.9,0,1.3,0c0-5.4,0.6-11-0.1-16.3
		c-2.8-22.1-15.1-39.4-28.6-56.1c-4.9-6-10.6-11.6-14.4-18.3c-5.4-9.5-9.3-19.9-13.9-29.8c-0.4-0.9-1-1.8-1.6-2.7
		c-0.6,2.3-0.7,4.5,0.1,6.3c3.7,8.5,6.6,17.6,11.6,25.1c9.2,13.8,19.9,26.6,29.7,39.9c9.7,13.2,14.8,28,15.5,44.3
		C369.3,666.5,369.5,669,369.6,671.5z M292.6,683.6c11-19,24.1-37.1,23.6-60.6C312.8,644.9,303,664.3,292.6,683.6z M577.8,607
		c-6.1,8.8,3.2,47.6,14.2,60C583.6,647.8,576.3,628.5,577.8,607z"/>
	<path class="st0" d="M641.3,500.3c5.6,15.4,11.2,30.9,17.1,47.3c-7.1,3.5-14,6.7-20.7,10.3c-6.4,3.5-13.3,4.6-20.4,5.3
		c-4.9,0.5-5.5-0.5-6-5.2c-1.3-10.9-3-21.8-4.4-32.7c-0.4-3.3-0.6-6.7-0.9-9.4C617.9,510.7,629.2,505.7,641.3,500.3z"/>
	<path class="st0" d="M276.8,565.7c-14.9-4.8-29.5-9.4-44.2-14.1c5.6-16.3,11.1-32.3,16.7-48.6c4.2,2,8.3,4,12.4,5.8
		c5.8,2.6,11.6,4.9,17.3,7.5c1.3,0.6,3,2.1,3.1,3.3C283.4,529.9,280.5,555.1,276.8,565.7z"/>
</g>
<g>
	<path class="st1" d="M468.1,484.3c0.5,13.5,1.3,27,1.5,40.5c0.1,4.5-1,9-2.1,13.4c-1,3.8-4.1,5.5-8,5.9
		c-22.2,2.2-43.9-2.4-65.7-5.2c-10-1.3-19.9-3.6-29.8-5.9c-17.3-4-34.6-8.1-51.8-12.4c-7-1.7-13.7-4.3-20.6-6.3
		c-6.3-1.8-12.9-2.8-19-5.2c-10.7-4.1-21.5-8.1-30.4-15.7c-1.7-1.5-3.1-4.1-3.3-6.3c-0.4-5.1-0.5-10.3,0.2-15.4c1-7.4,3-14.6,4-21.9
		c1.3-9.6,2.1-19.3,3.1-28.9c0.7-7.2,4.3-12.4,10.7-15.6c1-0.5,3.1-0.3,3.8,0.4c11.1,10.9,25.4,15.3,39.7,18.9
		c16.4,4.1,33,8,49.7,10.1c16.4,2,33.2,1.7,49.8,2.2c7.9,0.3,15.9,0.5,23.8,0.3c5.8-0.1,11.7-0.9,17.5-1.5c4.8-0.5,9.6-1.6,14.4-1.6
		c3.8,0,6.7,2.6,7.4,6.5c1.8,9.2,3.6,18.5,4.9,27.8c0.7,5.2,0.6,10.6,0.8,15.9C468.5,484.3,468.3,484.3,468.1,484.3z"/>
	<path class="st1" d="M620.5,405.1c10.4,0.7,16.1,6.2,17.5,16.4c2.2,15.8,7,30.9,10.5,46.4c4,17.7,1.3,21.1-13.7,29.7
		c-12.8,7.3-26.5,12-40.6,15.7c-8.9,2.3-17.6,5.8-26.6,7.7c-14.1,3-28.3,5.1-42.5,7.5c-5.3,0.9-10.7,1.7-16.1,2.2
		c-9.9,1-19.9,1.8-29.9,2.7c-3.5,0.3-4.7-0.7-4.5-4.8c0.3-7-0.7-14-0.9-21c-0.3-11.6-0.1-23.3-0.8-34.9c-0.6-10.1-2-20.2-3.1-31
		c1.9-0.2,4.3-0.7,6.7-0.8c12.5-0.7,25.1-0.7,37.4-2.3c17-2.2,34.1-4.9,50.8-8.8c13.4-3.1,26.5-7.7,39.4-12.4
		C614,413.9,614.5,412.9,620.5,405.1z"/>
	<path class="st1" d="M613.5,566.9c18.8,0.6,33.8-9.2,50.2-17.7c2.8,8.5,5.7,16.4,8,24.5c0.5,1.6-0.7,4.8-2.1,5.7
		c-7.4,4.5-14.7,9.3-22.7,12.4c-7.9,3.1-16.4,4.3-24.8,6.1c-1,0.2-3.1-0.7-3.3-1.5C616.9,586.8,615.3,577.1,613.5,566.9z"/>
	<path class="st1" d="M226.2,553.3c12.3,4.5,23.3,8.6,34.5,12.5c4,1.4,8.2,2.3,12.3,3.5c2,0.5,3.5,1.2,3,3.9
		c-1.8,9.2-3.4,18.4-5.2,28.4c-5-1.1-10.2-1.6-14.9-3.3c-9.5-3.5-18.9-7.4-28-11.7c-7.6-3.5-8.7-6-6.9-14.2
		C222.4,565.7,224.5,559.2,226.2,553.3z"/>
</g>
<g>
	<path class="st2" d="M386.2,324.4c1,1.3,2.1,2.5,2.9,3.9c0.9,1.7,1.5,3.5,2.3,5.3c3.8,8.6,3.5,11-6.4,16.1
		c-1.5,0.8-3.1,1.4-5.7,2.6c4.9-9.2,7.7-17.9,5.6-27.6C385.3,324.6,385.7,324.5,386.2,324.4z"/>
	<path class="st2" d="M295.8,318.9c-3,11.3-0.4,21.3,4.6,31c-4.3,0-10.5-5.4-11.9-10.1C286.8,334.1,290.7,322,295.8,318.9z"/>
	<path class="st2" d="M320.2,328.7c-3.6-0.1-4.3-2.6-4.3-5.4c0-4.7,3.1-8.2,6.9-8.1c2.9,0.1,6,3.6,5.9,6.6
		C328.5,325.1,324,328.8,320.2,328.7z"/>
	<path class="st2" d="M356.5,326.9c-0.5,2.1-2.3,5.3-4.5,5.7c-2.7,0.5-4.8-2-4.8-5c0-3.7,3.2-4.5,5.9-4.6
		C354.5,323,355,324,356.5,326.9z"/>
	<path class="st2" d="M500.6,348.9c-4.3-0.7-7.9-1.1-11.4-1.8c-3.3-0.7-4.7-3.3-3.8-6.3c1.5-5.3,3.6-10.5,5.6-15.7
		c0.2-0.6,0.9-0.9,2-1.4C490.6,333.4,495,341,500.6,348.9z"/>
	<path class="st2" d="M577.6,342.1c4.2-10.8,8-20.9,0-31.5c6.3,1.7,10.3,9.1,11.1,18.6C589,333.9,585,338.9,577.6,342.1z"/>
	<path class="st2" d="M518.6,320.5c0.1-4.9,3.1-8.3,7.1-8.1c4,0.2,4.2,3.7,4.8,6.4c0.5,2.4-5.1,7.3-7.6,6.8
		C520.1,325.1,517.7,323.8,518.6,320.5z"/>
	<path class="st2" d="M549.1,320.6c1.9-1.2,3.6-3,5.6-3.4c0.8-0.2,3.4,3,3.1,4.1c-0.5,1.8-2.5,3.8-4.2,4.4c-1.1,0.3-3-1.8-4.6-2.9
		C549.1,322,549.1,321.3,549.1,320.6z"/>
</g>
<g>
	<path class="st3" d="M623.5,398.9c2.4-13.2-0.9-24.6-3-36.1c-0.4-2.3-0.7-5,0-7.2c4.7-14.1,9.4-28,18.2-40.4
		c4.5-6.4,10.2-9.5,17.3-11.6c15-4.6,30.4-5,45.8-6.2c9.9-0.8,19.9-2.4,29.6-4.4c17.4-3.5,34.7-7.7,52.1-11.3
		c4.6-0.9,9.5-0.4,14.3-0.5c0.7,0,1.5-0.1,2.1-0.4c2.6-1.5,5.5-1.1,6.3,1.5c0.6,2-0.7,4.8-1.6,7.1c-0.3,0.9-1.8,1.4-2.8,2
		c-12.4,7.3-25.1,14.1-37.2,22c-8.4,5.4-16,12-23.7,18.4c-7.3,6-14.2,12.4-21.3,18.6c-7.8,6.8-15,14.3-23.4,20.2
		c-16.7,11.7-34.5,21.4-54.8,25.5C635.8,397.2,630,397.8,623.5,398.9z"/>
	<path class="st3" d="M252.8,349.6c-2-8.6-2.9-17.6-9.9-24.1c-4.7-4.4-9.3-8.9-14.3-12.9c-3.8-2.9-8-6.2-12.4-7
		c-7.5-1.4-15.3-1.2-22.9-1.2c-4.8,0-9.6,1.1-14.5,1.4c-11.8,0.6-23.6,1.1-35.4,1.3c-12.8,0.2-25.6,0.7-38.3-0.4
		c-16.5-1.5-32.9-4.5-49.3-6.9c-0.5-0.1-0.9-0.4-1.3-0.8h-4.7c0.5,1.4,1.3,2.8,2.2,4.1c1,1.4,3.1,2.1,4.7,3
		c6.1,3.7,12,7.9,18.5,10.9c11.5,5.2,23.4,9.4,35.1,14.4c12.1,5.1,23,12.2,33,20.9c16.3,14.2,35,24.6,55.3,31.7
		c12.8,4.5,26.3,7.3,39.7,10.1c5.6,1.1,11.6,0.2,17.4,0.2c-0.4-3.3-0.9-6.3-1-9.4C254.4,373,255.5,361.3,252.8,349.6z"/>
</g>
<g>
	<path class="st4" d="M192.6,304.2c-4.8,0-9.6,1.1-14.5,1.4c-11.8,0.6-23.6,1.1-35.4,1.3c-12.8,0.2-25.6,0.7-38.3-0.4
		c-16.5-1.5-32.9-4.5-49.3-6.9c0,0,0,0,0,0c0.2,0.1,0.4,0.2,0.6,0.3c16.4,2.4,32.8,5.4,49.3,6.9c12.7,1.1,25.5,0.6,38.3,0.4
		c11.8-0.2,23.6-0.7,35.4-1.3c4.8-0.2,9.6-1.4,14.5-1.4c7.7,0,15.5-0.2,22.9,1.2c1,0.2,1.9,0.5,2.9,0.9c-1.1-0.5-2.3-0.9-3.5-1.1
		C208.1,304,200.3,304.2,192.6,304.2z"/>
	<path class="st4" d="M187.1,379.5c-15.9-6.8-30.7-15.8-43.8-27.3c-10-8.7-20.9-15.7-33-20.9c-0.2-0.1-0.3-0.1-0.5-0.2
		c12.1,5.1,23,12.1,32.9,20.8C156,363.6,171,372.6,187.1,379.5z"/>
	<path class="st4" d="M757.2,282.1c-54.2,2-107.9,0.2-159.6-18.8c1.2,3,2.6,5.4,3.9,7.8c1.6,3,3.4,5.9,4.5,9c0.3,1-1.4,2.7-2.2,4
		c-0.9-0.8-2.2-1.5-2.6-2.6c-4.1-10.5-10.1-20-18.2-27.8c-7.5-7.2-17.3-10.9-26.6-15.3c-20.6-9.8-41.2-19.6-64-23.2
		c-8.8-1.4-17.6-3.2-24.5-4.4c-4.8,4.2-8.4,7.3-12,10.4c-0.5-0.5-1-0.9-1.5-1.4c2.7-3.2,5.3-6.5,8.7-10.6c-4.8-0.3-8.5-1.2-11.9-0.6
		c-3.1,0.6-5.8,3-9.6,5.1c0.9-2.4,1.5-3.9,2.4-6.2c-7.4,1.1-15.2-2.2-20.2,5.9c-7-8.7-15.3-3.3-23.3-4.1c0.8,3,5.2,4.6,0.8,7.7
		c-1.3-1.6-2.2-3.3-3.5-4.3c-1.2-0.9-3.1-2-4.4-1.7c-11.8,2.9-23.8,5.5-35.3,9.4c-12.2,4.2-24.2,9.4-35.9,14.9
		c-6.4,3-12.4,7.1-18.1,11.5c-4.6,3.5-8.5,8.1-12.4,12.3c-9.3,9.9-16.4,21.3-21.4,34c-0.5,1.3-2.2,2-3.3,3.1c-0.4-1.5-1.5-3.4-1-4.5
		c3.2-6.6,6.7-13,10.3-19.4c1.2-2.2,2.8-4.1,4.2-6.1c-3.5,0.8-6.1,2.4-9,3.1c-7,1.7-14.1,3.2-21.2,4.4
		c-30.8,5.2-61.6,10.1-92.8,12.2c-11.3,0.8-22.5,2.2-33.8,3.3c-17.2,1.8-34.2,4.8-51.7,3c-6.2-0.6-12.6,0.1-18.9,0.6
		c-1.7,0.1-4.6,2.1-4.5,3c0.2,2.4,1.5,4.9,2.9,6.8c1,1.4,3.1,2.1,4.7,3c6.1,3.7,12,7.9,18.5,10.9c1.6,0.7,3.2,1.4,4.9,2.1
		c-1.4-0.6-2.9-1.2-4.3-1.9c-6.5-2.9-12.4-7.2-18.5-10.9c-1.6-1-3.7-1.6-4.7-3c-0.9-1.2-1.7-2.6-2.2-4.1h4.4
		c-0.3-0.3-0.6-0.5-0.9-0.8c0.7-0.5,1.5-1.5,2.2-1.4c3.1,0.2,6.1,0.7,9.2,1.2c9.7,1.5,19.4,3.9,29.2,4.5c13.5,0.9,27.1,0.9,40.7,0.5
		c23.6-0.7,47.1-1.9,70.6-2.9c8.5-0.3,16.4,2,23.2,7.1c4.1,3.1,7.8,6.7,11.7,10.1c8.9,8,15.4,17.3,16.2,29.7
		c0.1,0.9,0.5,1.7,0.8,2.6c1.7-2.9,2.8-5.8,3-8.8c0.6-9.1,0.7-18.1,1.2-27.2c0.1-2.3-0.6-5.6,3-5.7c0.6,0,1.4,3.4,2.1,5.2
		c0.1,0.4,0.2,0.9,0.1,1.3c-0.6,9.5-0.2,19.3-2.1,28.5c-3.1,14.4-7.4,28.5-6,43.5c1,10.8,5.4,19.4,15.6,24.1
		c5.9,2.7,11.8,5.4,17.9,7.2c12.3,3.4,24.7,6.8,37.3,9c14.2,2.4,28.5,3.9,42.9,5.1c24,1.9,48,1.9,71.9-1.2
		c8.2-1.1,16.2-2.3,22.6,4.9c0.7,0.7,2.4,0.7,3.6,0.7c6.6-0.3,13.2-0.7,19.8-1.2c13.4-1,26.8-1.5,40-3.2c25.4-3.4,50.3-9.4,74-19.4
		c10.3-4.4,15.7-10.7,15.2-22.3c-0.4-8.6-1.7-17.3-3.8-25.6c-3.2-12.9-9.8-24.8-10.6-38.4c-0.4-7.8-1.1-15.5-1.5-23.3
		c-0.1-1.3,0.9-2.7,1.4-4.1c0.6,0,1.2,0.1,1.8,0.1c2.4,8.6,1.1,17.8,2.9,26.5c1.9,8.8,4.4,17.5,6.7,26.2c1.4-0.9,1.8-1.6,2-2.4
		c3.6-13.5,8.6-26.3,17.6-37.2c3.2-3.9,7-8,11.5-9.8c6.8-2.8,14.4-3.8,21.7-5.4c4.2-0.9,8.4-1.7,12.6-1.9
		c22.4-1.1,44.5-4.4,66.4-9.2c1.6-0.3,3.1-0.7,4.7-1.1c1.5-0.4,3.1-0.7,4.6-1C757.3,282.9,757.3,282.5,757.2,282.1z M325.4,267.5
		c-12.7,5.7-24.9,11.2-37.3,16.8C292.9,276.9,317.9,265.4,325.4,267.5z M302.1,286.6c12.7-3.6,25.4-8.2,38.8-7.6
		c8.6,0.4,17.7,0.7,25.6,3.6c6.7,2.5,12.4,8.3,17.8,13.4c4.3,4.1,7.7,9.2,11.2,14.1c0.9,1.3,0.5,3.6,0.8,5.4c-0.7,0.1-1.4,0.2-2,0.3
		c-1.2-2.2-2-4.5-3.5-6.4c-3.8-4.8-7.4-9.8-11.9-13.9c-4.1-3.9-8.8-7.4-13.9-9.8c-4.2-2-9.3-2.4-14.1-2.9c-17.6-1.8-34.2,3-50.2,9.4
		c-3.9,1.6-6.7,5.5-10.1,8.2c-1.5,1.2-3.3,2.1-5.4,2.5C288.9,295.3,294,288.9,302.1,286.6z M394.1,350c-10.1,6.4-21.5,9.2-33.1,11.3
		c-16.6,3-32.8,0.1-49-2.7c-9.1-1.6-17.6-4.5-24.4-11.3c-4.5-4.5-7.8-16.5-2.8-22.4c2.3-2.8,3.9-6.2,5.8-9.4
		c7.8-12.8,20.4-17.6,34.3-19.9c4.6-0.8,9.4-1,14-1.4c12.6-0.1,23.9,3.2,33.3,11.7c6.6,6,13.5,11.9,19,18.9
		c3.7,4.7,5.6,10.9,7.5,16.8C399.7,345.2,397.2,348,394.1,350z M553.2,258c2.2,1.3,4.6,2.3,7,3.3c5.3,2.1,10.7,3.8,15.9,6.1
		c2.1,1,3.8,3,5.6,4.6c-0.4,0.7-0.8,1.4-1.2,2.1c-11.9-8.7-26.3-10-40.6-14.4C543.2,256.9,550.7,256.6,553.2,258z M479.5,308.1
		c4.2-9.4,7.8-19.6,17.2-25.5c3.5-2.2,7.6-4.2,11.7-4.9c13.9-2.3,27.8-5.3,42-3.8c12.5,1.3,23.8,5.9,34.3,12.8
		c0.9,0.6,2.1,1.5,2.4,2.4c0.4,1.3-0.1,2.9-0.1,4.3c-1.2-0.6-2.4-1.1-3.5-1.7c-6.6-3.7-12.9-8.2-19.9-10.9c-8.2-3.1-17.1-4.7-26-3.5
		c-10.9,1.5-21.8,2.8-32.5,5.2c-7.8,1.7-13.5,6.9-16.4,14.7c-1.9,5.2-3.7,10.4-5.7,15.6c-0.7,1.9-1.9,3.6-2.9,5.4
		c-0.6-0.3-1.3-0.5-1.9-0.8C478.4,314.3,478.2,310.9,479.5,308.1z M425.8,344.4c4-5.4,9.7-6.8,17.5-6.4c4.2,0.3,10.3-0.2,14.2,5.1
		c0.9,1.3,1.9,3.6,1.3,4.6c-0.6,1.2-2.9,1.7-4.5,2.1c-0.6,0.2-1.6-0.5-2.1-1c-0.2-0.1,0.3-1.4,0.7-1.7c3.2-2.5,0.4-4.5-1.1-4.9
		c-6.4-1.7-13-3.3-19.3,0.3c-2.6,1.5-5.8,3-1.4,6.3c0.4,0.3,0.5,1.8,0.1,2.2c-0.4,0.5-1.5,0.8-2.3,0.7
		C424.8,351.2,423.3,347.8,425.8,344.4z M484.1,381.8c-3.2-2.9-7.8-5.4-12-5.8c-14.1-1.2-28.4-2.3-42.5,0.5
		c-8.6,1.7-16.7,5.3-23.2,11.7c-0.7,0.7-1.9,1-3.8,1.9c-0.1-4.5,0.9-6.8,4.6-8.3c4.3-1.7,8-5,12.3-6.7c5-2,10.3-4.2,15.5-4.5
		c12.3-0.7,24.7-1.3,36.9-0.1c6.6,0.7,13,5.1,19.2,8.1c1.4,0.7,2,3,3.3,5C490.3,384.5,487.4,384.9,484.1,381.8z M585.6,342.4
		c-8.9,6.2-18.6,9.5-29.6,9.7c-9.5,0.2-19,1.8-28.6,2.7c-11.3-0.9-22.6-1.6-33.9-2.9c-4.1-0.5-8.1-2.5-12-4.2
		c-1-0.4-1.8-2.7-1.6-3.9c4.8-22.3,17.6-42.4,44.7-49.4c18.4-4.7,35.4-0.8,51.2,8.4c7.7,4.4,14.8,10.5,16.6,20.2
		C594.3,332.2,593.8,336.7,585.6,342.4z"/>
	<path class="st4" d="M226.7,592.2c14,5.1,28.1,10.2,42.7,15.5c0.5,5.3-3.4,9.9-6,14.8c-1.1,2-3.2,1.8-4.3-0.1
		c-1.5-2.8-3.1-5.7-3.6-8.8c-0.4-2.7-1.4-4.3-3.9-4.3c-3,0.1-2.8,2.4-2.2,4.6c1.3,4.6,2.6,9.2,3.6,13.9c0.3,1.4,0.1,3.2-0.6,4.4
		c-0.3,0.5-2.3,0.4-3.5,0.1c-7.2-1.4-11.6-6.2-15.6-12C226.6,610.5,224.9,604,226.7,592.2z"/>
	<path class="st4" d="M621.1,602.5c12-3.1,23.7-6,35.7-9.1c5,9.9,3.2,16.3-4.2,24.4c-3.5,3.8-8,6.8-12.2,9.9
		c-2.2,1.6-5.4,2.8-7.1,0.2c-1-1.4,0.1-4.5,0.8-6.7c1.1-3.6,2.9-7,3.9-10.6c0.3-1-0.9-2.5-1.5-3.7c-1,0.9-2.4,1.7-3,2.9
		c-1.4,2.7-2.3,5.7-3.8,8.4c-1.1,2.1-2.9,2.3-3.8-0.3C624.1,612.8,622.6,607.6,621.1,602.5z"/>
</g>
</svg>
