<?xml version="1.0" encoding="UTF-8" standalone="no"?>
<!-- Created with Inkscape (http://www.inkscape.org/) -->

<svg
   xmlns:dc="http://purl.org/dc/elements/1.1/"
   xmlns:cc="http://creativecommons.org/ns#"
   xmlns:rdf="http://www.w3.org/1999/02/22-rdf-syntax-ns#"
   xmlns:svg="http://www.w3.org/2000/svg"
   xmlns="http://www.w3.org/2000/svg"
   xmlns:sodipodi="http://sodipodi.sourceforge.net/DTD/sodipodi-0.dtd"
   xmlns:inkscape="http://www.inkscape.org/namespaces/inkscape"
   id="svg5579"
   version="1.1"
   inkscape:version="0.48.5 r10040"
   width="237.08099"
   height="253.02737"
   viewBox="0 0 237.08099 253.02737"
   sodipodi:docname="kraftynook_tsumtsum_starwars_darthvader.svg">
  <metadata
     id="metadata5585">
    <rdf:RDF>
      <cc:Work
         rdf:about="">
        <dc:format>image/svg+xml</dc:format>
        <dc:type
           rdf:resource="http://purl.org/dc/dcmitype/StillImage" />
        <dc:title />
      </cc:Work>
    </rdf:RDF>
  </metadata>
  <defs
     id="defs5583" />
  <sodipodi:namedview
     pagecolor="#ffffff"
     bordercolor="#666666"
     borderopacity="1"
     objecttolerance="10"
     gridtolerance="10"
     guidetolerance="10"
     inkscape:pageopacity="0"
     inkscape:pageshadow="2"
     inkscape:window-width="512"
     inkscape:window-height="452"
     id="namedview5581"
     showgrid="false"
     inkscape:zoom="1.3235945"
     inkscape:cx="131.56092"
     inkscape:cy="112.89583"
     inkscape:window-x="0"
     inkscape:window-y="0"
     inkscape:window-maximized="0"
     inkscape:current-layer="layer4" />
  <g
     inkscape:groupmode="layer"
     id="layer4"
     inkscape:label="DarthVader"
     transform="translate(-11.408672,-31.526263)">
    <g
       id="g6368">
      <path
         id="path6148"
         d="m 129.05078,35.71875 c -22.24239,0.304269 -41.704972,3.868652 -55.326171,17.095703 -11.995005,11.647913 -15.54057,28.699245 -19.5,45.408203 -5.364467,22.638274 -21.043205,44.184544 -15.226562,68.115234 3.563461,14.66071 23.427235,24.08714 43.900391,29.74023 a 10.551086,9.2155056 0 0 0 -0.0918,1.11133 10.551086,9.2155056 0 0 0 10.550781,9.2168 10.551086,9.2155056 0 0 0 9.816411,-5.84375 c 11.38941,1.94853 21.12721,2.72953 25.87695,2.63867 5.08514,0.0973 15.88969,-0.80924 28.31641,-3.07422 a 10.551086,9.2155056 0 0 0 9.99023,6.2793 10.551086,9.2155056 0 0 0 10.55078,-9.2168 10.551086,9.2155056 0 0 0 -0.20898,-1.81445 c 19.56681,-5.72079 37.98398,-14.97335 41.40234,-29.03711 5.81664,-23.93069 -9.86014,-45.47696 -15.22461,-68.115234 -3.95943,-16.708958 -7.50499,-33.76029 -19.5,-45.408203 C 170.75576,39.587402 151.29317,36.023019 129.05078,35.71875 z"
         style="color:#000000;fill:#000000;fill-opacity:1;fill-rule:nonzero;stroke:none;stroke-width:0.75;marker:none;visibility:visible;display:inline;overflow:visible;enable-background:accumulate"
         inkscape:connector-curvature="0" />
      <path
         id="path6150"
         d="M 208.8848,143.49976 A 79.333481,59.166214 0 0 1 129.55132,202.66597 79.333481,59.166214 0 0 1 50.217834,143.49976 79.333481,59.166214 0 0 1 129.55132,84.333542 79.333481,59.166214 0 0 1 208.8848,143.49976 z"
         style="color:#000000;fill:#393b3d;fill-opacity:1;fill-rule:nonzero;stroke:none;stroke-width:0.49999997;marker:none;visibility:visible;display:inline;overflow:visible;enable-background:accumulate"
         inkscape:connector-curvature="0" />
      <path
         id="path6155"
         d="m 129.05078,35.71875 c -22.24239,0.304269 -41.704972,3.868652 -55.326171,17.095703 -11.995005,11.647913 -15.54057,28.699245 -19.5,45.408203 -5.364467,22.638274 -21.043205,44.184544 -15.226562,68.115234 1.078723,4.43806 3.652571,8.39736 7.283203,11.91797 -8.576169,-23.16939 -1.824252,-42.62233 17.447266,-60.36328 14.359348,-13.21892 35.853343,-17.35464 66.359374,-8.44922 30.50604,-8.90542 52.00004,-4.7697 66.35938,8.44922 18.19846,16.75312 25.24139,35.03143 18.74804,56.52539 1.85346,-2.49837 3.2027,-5.18554 3.90625,-8.08008 5.81664,-23.93069 -9.86014,-45.47696 -15.22461,-68.115234 -3.95943,-16.708958 -7.50499,-33.76029 -19.5,-45.408203 C 170.75576,39.587402 151.29317,36.023019 129.05078,35.71875 z"
         style="color:#000000;fill:#2e2e30;fill-opacity:1;fill-rule:nonzero;stroke:none;stroke-width:0.75;marker:none;visibility:visible;display:inline;overflow:visible;enable-background:accumulate"
         inkscape:connector-curvature="0" />
      <path
         id="path6161"
         d="m 129.33594,31.53125 c -4.23814,-0.128808 -8.69619,2.240136 -8.58399,6.789062 l 1.29102,52.341797 c -3.73932,-1.099053 -7.8628,-1.684202 -12.24414,-1.705078 C 82.832085,88.82854 46.678086,109.3116 37.814453,152.66602 c -0.256161,4.48488 0.05609,9.03312 1.183594,13.67187 1.078723,4.43806 3.652571,8.39736 7.283203,11.91797 -8.576169,-23.16939 -1.824252,-42.62233 17.447266,-60.36328 13.130365,-12.08755 32.231454,-16.57379 58.728514,-10.44531 0.0332,0.008 0.0664,0.0177 0.0996,0.0254 1.09792,0.25478 2.20969,0.53019 3.33203,0.82031 0.19339,0.0502 0.38593,0.0991 0.58008,0.15039 1.19232,0.31372 2.39682,0.64318 3.61914,1 1.27811,-0.37311 2.53472,-0.71534 3.78125,-1.04297 0.30754,-0.0808 0.61429,-0.1602 0.91992,-0.23828 1.22777,-0.31368 2.44535,-0.61313 3.64258,-0.88281 0.003,-7.4e-4 0.006,-10e-4 0.01,-0.002 0.005,-0.001 0.0105,-0.003 0.0156,-0.004 26.11638,-5.87733 44.98135,-1.35658 57.99024,10.61914 18.19846,16.75312 25.24139,35.03143 18.74804,56.52539 1.85346,-2.49837 3.2027,-5.18554 3.90625,-8.08008 2.63122,-10.8253 0.84994,-21.16077 -2.37109,-31.33203 -16.35935,-37.244447 -55.3185,-51.220777 -78.68359,-44.337891 l -1.29883,-52.742188 c -0.10407,-4.222722 -3.67258,-6.280877 -7.41211,-6.394531 z"
         style="font-size:medium;font-style:normal;font-variant:normal;font-weight:normal;font-stretch:normal;text-indent:0;text-align:start;text-decoration:none;line-height:normal;letter-spacing:normal;word-spacing:normal;text-transform:none;direction:ltr;block-progression:tb;writing-mode:lr-tb;text-anchor:start;baseline-shift:baseline;color:#000000;fill:#626368;fill-opacity:1;fill-rule:nonzero;stroke:none;stroke-width:0.75;marker:none;visibility:visible;display:inline;overflow:visible;enable-background:accumulate;font-family:sans-serif"
         inkscape:connector-curvature="0" />
      <path
         inkscape:connector-curvature="0"
         id="path6168"
         d="m 97.873047,105.85696 c -0.410575,9.4e-4 -0.804812,0.0185 -1.177735,0.0488 -20.666279,1.6834 -30.265037,21.1086 -26.310546,34.58985 18.785415,8.37075 35.080624,4.06737 53.023434,-1.20118 l -0.66797,-21.90429 c -8.50596,-8.19922 -18.70856,-11.54721 -24.867183,-11.53321 z m 63.707033,0 c -6.15863,-0.014 -16.36122,3.33399 -24.86719,11.53321 l -0.66797,21.90429 c 17.94281,5.26855 34.23607,9.57193 53.02149,1.20118 3.95449,-13.48125 -5.64427,-32.90645 -26.31055,-34.58985 -0.37292,-0.0304 -0.76521,-0.0479 -1.17578,-0.0488 z"
         style="color:#000000;fill:#2b292c;fill-opacity:1;fill-rule:nonzero;stroke:none;stroke-width:0.75;marker:none;visibility:visible;display:inline;overflow:visible;enable-background:accumulate" />
      <path
         inkscape:connector-curvature="0"
         id="path6170"
         d="m 106.75195,117.75735 c -0.23558,5.4e-4 -0.45985,0.01 -0.67383,0.0273 -11.857979,0.96226 -17.366676,12.06725 -15.097651,19.77344 10.778781,4.78492 20.128531,2.32413 30.423831,-0.6875 l -0.38282,-12.51954 c -4.88058,-4.68686 -10.7358,-6.60176 -14.26953,-6.59375 z m 45.94727,0 c -3.53373,-0.008 -9.38699,1.90689 -14.26758,6.59375 l -0.38281,12.51954 c 10.2953,3.01163 19.64309,5.47242 30.42187,0.6875 2.26902,-7.70619 -3.23772,-18.81118 -15.0957,-19.77344 -0.21398,-0.0174 -0.4402,-0.0268 -0.67578,-0.0273 z"
         style="color:#000000;fill:#848386;fill-opacity:1;fill-rule:nonzero;stroke:none;stroke-width:0.75;marker:none;visibility:visible;display:inline;overflow:visible;enable-background:accumulate" />
      <path
         sodipodi:nodetypes="cccccccsssccccccccc"
         inkscape:connector-curvature="0"
         style="color:#000000;fill:#1a1a1a;fill-opacity:1;fill-rule:nonzero;stroke:none;stroke-width:0.75;marker:none;visibility:visible;display:inline;overflow:visible;enable-background:accumulate"
         d="m 106.31055,104.92773 0.0215,2.45313 c 5.20971,1.70889 11.13481,4.92657 16.4082,10.00976 l 0.63672,20.91211 0.85743,1.01563 c -1.13439,1.30906 -1.75973,2.98266 -1.76172,4.71484 0.003,1.05416 0.23696,2.09487 0.68554,3.04883 -7.63273,6.50088 -37.936771,33.37551 -31.671872,45.16992 4.109995,7.73755 25.212992,7.07813 38.144532,7.07813 12.93154,0 34.03258,0.65942 38.14258,-7.07813 6.24669,-11.76013 -23.85226,-38.5037 -31.59375,-45.10351 0.46895,-0.97172 0.71389,-2.03628 0.71679,-3.11524 -0.003,-1.76037 -0.64974,-3.45885 -1.81836,-4.77539 l 1.00391,-1.1914 0.63086,-20.67579 c 5.63547,-5.43223 12.01523,-8.73532 17.4707,-10.34179 l -0.32226,-2.11719 c -7.23069,0.5186 -15.14001,1.99142 -23.77344,4.51172 -8.63318,-2.52022 -16.54489,-3.99486 -23.77734,-4.51563 z"
         id="path6269" />
      <path
         id="path6174"
         d="m 106.31055,104.92773 0.0215,2.45313 c 5.20971,1.70889 11.13481,4.92657 16.4082,10.00976 l 0.63672,20.91211 0.85743,1.01563 c -1.13439,1.30906 -1.75973,2.98266 -1.76172,4.71484 0.003,1.05416 0.23696,2.09487 0.68554,3.04883 -7.63273,6.50088 -37.936771,33.37551 -31.671872,45.16992 4.109995,7.73755 25.212992,7.07813 38.144532,7.07813 12.93154,0 34.03258,0.65942 38.14258,-7.07813 6.24669,-11.76013 -23.85226,-38.5037 -31.59375,-45.10351 0.46895,-0.97172 0.71389,-2.03628 0.71679,-3.11524 -0.003,-1.76037 -0.64974,-3.45885 -1.81836,-4.77539 l 1.00391,-1.1914 0.63086,-20.67579 c 5.63547,-5.43223 12.01523,-8.73532 17.4707,-10.34179 l -0.32226,-2.11719 c -7.23069,0.5186 -15.14001,1.99142 -23.77344,4.51172 -8.63318,-2.52022 -16.54489,-3.99486 -23.77734,-4.51563 z m 23.24023,45.38282 c 0.56968,0.0168 1.62542,0.72703 2.99024,1.90039 l 0,43.79101 c -2.00424,0.0373 -4.00171,0.0511 -6,0.0371 l 0,-43.89258 c 1.3694,-1.17083 2.4267,-1.85316 3.00976,-1.83593 z m -9.00976,7.85547 0,37.74609 c -1.65513,-0.0593 -3.25234,-0.14098 -4.81836,-0.24219 l 0,-31.98828 c 1.66397,-1.97454 3.28269,-3.83134 4.81836,-5.51562 z m 18,0.0176 c 1.58807,1.71556 3.26503,3.60015 5,5.61719 l 0,31.73633 c -1.62643,0.11078 -3.28911,0.20165 -5,0.27734 l 0,-37.63086 z m 11,12.83399 c 1.73969,2.16322 3.43653,4.32638 5,6.39844 l 0,16.98828 c -1.5081,0.23221 -3.22283,0.4301 -5,0.61718 l 0,-24.0039 z m -39.81836,0.0684 0,24.07226 c -1.84771,-0.21338 -3.56194,-0.46594 -5.08594,-0.76172 l 0,-16.43945 -0.0762,0 c 1.59391,-2.21388 3.3346,-4.52895 5.16211,-6.87109 z m 50.81836,14.85937 c 1.89081,2.98181 2.94473,5.15297 2.5332,5.76953 -0.3327,0.49846 -1.2245,0.96181 -2.5332,1.38868 l 0,-7.15821 z m -61.904301,1.05078 0,5.4961 c -0.682966,-0.40037 -1.170365,-0.83686 -1.40625,-1.3125 -0.295222,-0.59529 0.26416,-2.10066 1.40625,-4.1836 z"
         style="color:#000000;fill:#424044;fill-opacity:1;fill-rule:nonzero;stroke:none;stroke-width:0.75;marker:none;visibility:visible;display:inline;overflow:visible;enable-background:accumulate"
         inkscape:connector-curvature="0" />
      <path
         id="path6182"
         d="m 129.68555,136.82227 a 7.2121348,7.2121348 0 0 0 -7.21289,7.21093 7.2121348,7.2121348 0 0 0 7.21289,7.21289 7.2121348,7.2121348 0 0 0 7.21093,-7.21289 7.2121348,7.2121348 0 0 0 -7.21093,-7.21093 z m -34.191409,51.95312 a 2.5376029,2.5376029 0 0 0 -2.53711,2.53906 2.5376029,2.5376029 0 0 0 2.53711,2.53711 2.5376029,2.5376029 0 0 0 2.537109,-2.53711 2.5376029,2.5376029 0 0 0 -2.537109,-2.53906 z m 68.999999,0 a 2.5376029,2.5376029 0 0 0 -2.53711,2.53906 2.5376029,2.5376029 0 0 0 2.53711,2.53711 2.5376029,2.5376029 0 0 0 2.53711,-2.53711 2.5376029,2.5376029 0 0 0 -2.53711,-2.53906 z"
         style="color:#000000;fill:#cccccc;fill-opacity:1;fill-rule:nonzero;stroke:none;stroke-width:0.5;marker:none;visibility:visible;display:inline;overflow:visible;enable-background:accumulate"
         inkscape:connector-curvature="0" />
      <path
         id="path6303"
         d="m 177.69922,195.375 c -6.83778,1.99918 -13.8042,3.56215 -20.33203,4.75195 a 10.551086,9.2155056 0 0 0 9.99023,6.2793 10.551086,9.2155056 0 0 0 10.55078,-9.2168 10.551086,9.2155056 0 0 0 -0.20898,-1.81445 z m -94.800782,0.70312 a 10.551086,9.2155056 0 0 0 -0.0918,1.11133 10.551086,9.2155056 0 0 0 10.550781,9.2168 10.551086,9.2155056 0 0 0 9.816411,-5.84375 c -6.431625,-1.10034 -13.384104,-2.58154 -20.275395,-4.48438 z"
         style="color:#000000;fill:#626368;fill-opacity:1;fill-rule:nonzero;stroke:none;stroke-width:0.5;marker:none;visibility:visible;display:inline;overflow:visible;enable-background:accumulate"
         inkscape:connector-curvature="0" />
      <g
         style="fill:#ffffff"
         inkscape:label="Layer 1"
         id="layer1"
         transform="matrix(0.19495227,0,0,0.19495227,60.312753,53.536928)">
        <g
           style="font-size:90px;font-style:normal;font-variant:normal;font-weight:normal;font-stretch:normal;text-indent:0;text-align:center;text-decoration:none;line-height:125%;letter-spacing:0px;word-spacing:0px;text-transform:none;direction:ltr;block-progression:tb;writing-mode:lr-tb;text-anchor:middle;baseline-shift:baseline;color:#000000;fill:#ffffff;fill-opacity:1;fill-rule:nonzero;stroke:none;stroke-width:1px;marker:none;visibility:visible;display:inline;overflow:visible;enable-background:accumulate;font-family:Arial Black;-inkscape-font-specification:'Arial Black, Normal'"
           id="text7227">
          <path
             style="fill:#ffffff"
             inkscape:connector-curvature="0"
             d="m -70.544922,198.16602 c -3.925781,0 -6.914062,0.45508 -8.964844,1.36328 -2.021484,0.87893 -3.603515,2.05082 -4.746093,3.51562 -1.113282,1.43554 -1.875,3.29488 -2.285157,5.58008 -0.410156,2.28513 -0.615234,4.38082 -0.615234,6.28516 l 0,2.10937 -6.679688,0 0,13.0957 6.679688,0 0,33.57422 17.929688,0 0,-33.57422 8.52539,0 0,-13.0957 -8.52539,0 c 0,-2.08007 0.07422,-3.44336 0.220703,-4.08789 0.292968,-1.17187 0.791015,-2.02149 1.49414,-2.54883 0.703125,-0.55666 1.859375,-0.83398 3.470703,-0.83398 1.31836,0 3.046875,0.17574 5.185547,0.52734 l 1.978516,-10.81055 c -5.976562,-0.7324 -10.533203,-1.0996 -13.667969,-1.0996 z m -180.306638,1.0996 0,64.42383 18.28125,0 0,-12.1289 6.72265,-6.5918 9.44922,18.7207 20.16992,0 -17.70898,-30.32226 16.74219,-16.34766 -22.01563,0 -13.35937,15.46875 0,-33.22266 -18.28125,0 z m 218.451169,0 -17.929687,9.1836 0,8.57031 -6.591797,0 0,13.05078 6.591797,0 0,16.43555 c 0,5.21487 0.498047,8.99416 1.49414,11.33789 1.025391,2.31447 2.59375,4.04295 4.703126,5.18555 2.109374,1.14253 5.390624,1.71484 9.84375,1.71484 3.83789,0 7.96875,-0.48437 12.392578,-1.45117 l -1.31836,-12.34766 c -2.373047,0.76174 -4.21875,1.14258 -5.537109,1.14258 -1.464843,0 -2.490234,-0.49801 -3.076172,-1.49414 -0.380859,-0.64453 -0.572266,-1.96294 -0.572266,-3.95508 l 0,-16.56836 9.84375,0 0,-13.05078 -9.84375,0 0,-17.75391 z m 253.521481,0 0,64.42383 18.28125,0 0,-12.1289 6.72266,-6.5918 9.44922,18.7207 20.16992,0 -17.70898,-30.32226 16.74218,-16.34766 -22.01562,0 -13.35938,15.46875 0,-33.22266 -18.28125,0 z m 90.26368,0 0,64.42383 16.74218,0 0,-6.90039 c 2.31446,2.9004 4.45313,4.87886 6.41602,5.9336 2.60742,1.3476 5.47851,2.02148 8.61328,2.02148 3.66211,0 6.98828,-0.95315 9.97656,-2.85742 3.01758,-1.9336 5.37501,-4.83397 7.07422,-8.70117 1.69922,-3.89647 2.54883,-8.39257 2.54883,-13.49024 0,-7.64646 -1.85938,-13.50586 -5.58008,-17.57812 -3.72071,-4.1016 -8.42383,-6.15235 -14.10742,-6.15235 -2.75391,0 -5.27344,0.46872 -7.55859,1.40625 -2.25586,0.93747 -4.27735,2.34375 -6.06446,4.21875 l 0,-22.32422 -18.06054,0 z m 60.46875,0 0,64.42383 17.92968,0 0,-64.42383 -17.92968,0 z m 345.6289,0 -17.92969,9.1836 0,8.57031 -6.59179,0 0,13.05078 6.59179,0 0,16.43555 c 0,5.21487 0.49805,8.99416 1.49415,11.33789 1.02538,2.31447 2.59374,4.04295 4.70312,5.18555 2.10937,1.14253 5.39062,1.71484 9.84375,1.71484 3.83789,0 7.96875,-0.48437 12.39258,-1.45117 l -1.31836,-12.34766 c -2.37305,0.76174 -4.21876,1.14258 -5.53711,1.14258 -1.46485,0 -2.49023,-0.49801 -3.07617,-1.49414 -0.38086,-0.64453 -0.57227,-1.96294 -0.57227,-3.95508 l 0,-16.56836 9.84375,0 0,-13.05078 -9.84375,0 0,-17.75391 z m -879.96094,16.69922 c -2.51953,0 -4.64258,0.62888 -6.37109,1.88868 -1.69922,1.23046 -3.35547,3.50196 -4.9668,6.8125 l 0,-7.64649 -16.74218,0 0,46.66992 17.97265,0 0,-15.64453 c 0,-7.47066 0.92383,-12.5683 2.76953,-15.29297 1.28906,-1.93353 3.10547,-2.90039 5.44922,-2.90039 1.23047,0 2.90039,0.4395 5.00977,1.31836 l 5.53711,-12.74414 c -3.13476,-1.64067 -6.02149,-2.46094 -8.65821,-2.46094 z m 36.6504,0 c -3.33985,0 -6.44532,0.24803 -9.31641,0.7461 -2.87109,0.49806 -5.12695,1.20117 -6.76758,2.10937 -2.28515,1.25974 -4.04297,2.75389 -5.27344,4.48242 -1.20117,1.6992 -2.12304,4.04292 -2.76757,7.03125 l 17.09374,1.80274 c 0.70313,-2.02147 1.62696,-3.39846 2.76954,-4.13086 1.46484,-0.93753 3.66211,-1.40625 6.59179,-1.40625 2.28516,0 3.88086,0.43943 4.78907,1.31836 0.9082,0.87887 1.36328,2.41601 1.36328,4.61328 -2.22656,0.87893 -4.33594,1.5977 -6.32813,2.1543 -1.99218,0.5274 -6.34375,1.4649 -13.05273,2.8125 -5.5957,1.11333 -9.43359,2.81252 -11.51367,5.09765 -2.08008,2.28514 -3.11915,5.19921 -3.11915,8.74414 10e-6,3.77934 1.43555,6.95905 4.30665,9.53711 2.90039,2.57814 7.13281,3.86719 12.69921,3.86719 4.18946,0 7.86719,-0.64453 11.03125,-1.93359 2.31446,-0.9668 4.64258,-2.57819 6.98633,-4.83399 0.20508,1.3476 0.41016,2.34375 0.61524,2.98828 0.20508,0.61527 0.64453,1.52348 1.31836,2.72461 l 16.787106,0 c -0.9375,-1.93353 -1.552734,-3.51562 -1.845704,-4.74609 -0.263671,-1.2598 -0.394531,-2.98828 -0.394531,-5.18555 l 0,-20.61133 c 0,-2.19726 -0.439451,-4.49603 -1.318361,-6.89843 -0.8789,-2.4316 -2.08007,-4.3066 -3.60351,-5.625 -2.16797,-1.90427 -4.87891,-3.1504 -8.13086,-3.73633 -3.25196,-0.61527 -7.5586,-0.92188 -12.91992,-0.92188 z m 200.478511,0 c -3.66211,0 -6.767578,0.67382 -9.316407,2.02149 -2.548828,1.3184 -5.068359,3.5293 -7.558593,6.63476 l 0,-7.60156 -16.654297,0 0,46.66992 17.884765,0 0,-22.41211 c 0,-4.248 0.673828,-7.19331 2.021485,-8.83398 1.347656,-1.6406 3.105469,-2.46094 5.273437,-2.46094 1.962891,0 3.486328,0.61524 4.570313,1.8457 1.083984,1.20121 1.626953,3.2676 1.626953,6.19727 l 0,25.66406 17.972656,0 0,-29.66406 c 0,-6.1524 -1.40625,-10.69338 -4.21875,-13.62305 -2.783203,-2.959 -6.650391,-4.4375 -11.601562,-4.4375 z m 51.064449,0 c -8.17383,0 -14.66211,2.31443 -19.46679,6.94336 -4.80469,4.5996 -7.207034,10.45899 -7.207034,17.57813 0,7.64646 2.841794,13.82812 8.525394,18.54492 4.6289,3.8086 10.69336,5.71289 18.19336,5.71289 8.4082,0 14.98437,-2.2852 19.73046,-6.85547 4.77539,-4.5996 7.16407,-10.48828 7.16407,-17.66601 0,-6.38674 -1.91993,-11.76364 -5.75782,-16.12891 -4.77539,-5.41993 -11.83594,-8.12891 -21.18164,-8.12891 z m 59.94141,0 c -8.17383,0 -14.66211,2.31443 -19.4668,6.94336 -4.80468,4.5996 -7.20703,10.45899 -7.20703,17.57813 0,7.64646 2.8418,13.82812 8.52539,18.54492 4.62891,3.8086 10.69336,5.71289 18.19336,5.71289 8.4082,0 14.98438,-2.2852 19.73047,-6.85547 4.77539,-4.5996 7.16406,-10.48828 7.16406,-17.66601 0,-6.38674 -1.91992,-11.76364 -5.75781,-16.12891 -4.77539,-5.41993 -11.83593,-8.12891 -21.18164,-8.12891 z m 239.94141,0 c -8.17383,0 -14.66211,2.31443 -19.4668,6.94336 -4.80469,4.5996 -7.20703,10.45899 -7.20703,17.57813 0,7.64646 2.84179,13.82812 8.52539,18.54492 4.6289,3.8086 10.69336,5.71289 18.19336,5.71289 8.4082,0 14.98437,-2.2852 19.73047,-6.85547 4.77539,-4.5996 7.16406,-10.48828 7.16406,-17.66601 0,-6.38674 -1.91992,-11.76364 -5.75781,-16.12891 -4.7754,-5.41993 -11.83594,-8.12891 -21.18164,-8.12891 z m 52.33984,0 c -5.68359,0 -10.2832,1.90429 -13.79883,5.71289 -3.51562,3.8086 -5.27344,9.34567 -5.27344,16.61133 0,6.3574 1.36134,11.46874 4.08594,15.33594 3.8379,5.4492 8.87696,8.17383 15.11719,8.17383 3.19336,0 6.16797,-0.7324 8.92187,-2.19727 1.75782,-0.93746 3.51563,-2.44532 5.27344,-4.52539 l 0,7.07422 c 0,3.42773 -0.64453,5.8301 -1.93359,7.20703 -1.25976,1.37694 -3.17969,2.06641 -5.75781,2.06641 -1.99219,0 -3.64649,-0.45508 -4.96485,-1.36328 -0.9082,-0.6152 -1.58203,-1.72851 -2.02148,-3.33985 l -17.35938,-1.97656 c -0.0586,0.99613 -0.0879,1.78711 -0.0879,2.37305 0,4.7168 1.74414,8.4805 5.23047,11.29297 3.51562,2.81253 9.96094,4.21875 19.33594,4.21875 4.10156,0 7.73438,-0.36519 10.89844,-1.09766 3.19336,-0.7324 5.81445,-1.91995 7.86523,-3.56055 2.08008,-1.64066 3.73633,-3.79298 4.9668,-6.45898 1.25976,-2.63673 1.88867,-5.41994 1.88867,-8.34961 l -0.043,-2.06641 0,-44.07617 -16.74414,0 0,6.89844 c -2.05078,-2.8418 -4.26172,-4.87696 -6.63477,-6.10742 -2.34374,-1.23047 -5.33203,-1.84571 -8.96484,-1.84571 z m 64.55469,0 c -5.27344,0 -9.47657,0.55659 -12.61133,1.66993 -3.13477,1.08393 -5.5957,2.73824 -7.38281,4.96484 -1.78711,2.22653 -2.68164,4.87888 -2.68164,7.95508 0,2.81246 0.82031,5.3164 2.46093,7.51367 1.66992,2.19727 3.70703,3.76559 6.10938,4.70312 2.43164,0.9082 6.75196,1.90429 12.96289,2.98829 4.16016,0.7324 6.72461,1.34763 7.69141,1.8457 1.34766,0.70313 2.02148,1.69928 2.02148,2.98828 0,1.1426 -0.51367,2.09374 -1.53906,2.85547 -1.31836,1.0254 -3.17774,1.53906 -5.58008,1.53906 -2.19727,0 -3.95508,-0.45508 -5.27344,-1.36328 -1.31836,-0.9082 -2.34375,-2.41599 -3.07617,-4.52539 l -17.75391,1.66992 c 1.0254,4.48247 3.33985,7.9395 6.94336,10.37109 3.63282,2.43167 9.71094,3.64649 18.23633,3.64649 6.03516,0 10.79688,-0.7461 14.2832,-2.24023 3.51563,-1.52347 6.07813,-3.56058 7.68946,-6.10938 1.64062,-2.54887 2.46093,-5.16997 2.46093,-7.86523 10e-6,-2.66607 -0.77539,-5.11331 -2.32812,-7.33985 -1.52344,-2.2266 -3.73633,-3.93949 -6.63672,-5.14062 -2.90039,-1.2012 -7.32422,-2.1387 -13.27148,-2.8125 -3.92578,-0.46874 -6.47461,-0.9961 -7.64649,-1.58203 -1.17188,-0.58594 -1.75781,-1.45115 -1.75781,-2.59375 0,-1.0254 0.45507,-1.88867 1.36328,-2.5918 0.9375,-0.7324 2.41602,-1.09961 4.4375,-1.09961 1.99219,0 3.69141,0.46878 5.09766,1.40625 1.02539,0.70313 1.75781,1.80274 2.19726,3.29687 l 16.96289,-1.66992 c -1.17188,-3.04686 -2.65039,-5.46482 -4.4375,-7.25195 -1.75781,-1.78707 -3.9707,-3.10548 -6.63671,-3.95508 -2.63673,-0.84967 -6.73829,-1.27344 -12.30469,-1.27344 z m 65.39062,0 c -3.16406,0 -6.04883,0.68746 -8.65625,2.06446 -1.93359,1.0254 -4.05859,2.98834 -6.37304,5.88867 l 0,-6.89844 -16.74219,0 0,64.42383 18.06055,0 0,-22.28125 c 1.7871,1.84567 3.80859,3.23825 6.06445,4.17578 2.28516,0.93747 4.80469,1.40625 7.55859,1.40625 5.6836,0 10.38672,-2.03711 14.10742,-6.10937 3.7207,-4.10154 5.58008,-10.03321 5.58008,-17.79688 0,-7.03127 -1.71289,-12.93554 -5.14062,-17.71094 -3.39844,-4.7754 -8.21875,-7.16211 -14.45899,-7.16211 z m 52.5586,0 c -8.17383,0 -14.66211,2.31443 -19.4668,6.94336 -4.80469,4.5996 -7.20703,10.45899 -7.20703,17.57813 0,7.64646 2.84179,13.82812 8.52539,18.54492 4.6289,3.8086 10.69336,5.71289 18.19336,5.71289 8.4082,0 14.98437,-2.2852 19.73047,-6.85547 4.77539,-4.5996 7.16406,-10.48828 7.16406,-17.66601 0,-6.38674 -1.91992,-11.76364 -5.75781,-16.12891 -4.7754,-5.41993 -11.83594,-8.12891 -21.18164,-8.12891 z m 130.65039,0 c -5.44922,0 -9.91797,0.71675 -13.4043,2.15235 -2.19727,0.9082 -4.33594,2.30078 -6.41602,4.17578 -2.08008,1.84567 -3.7207,3.93947 -4.92187,6.2832 -1.64063,3.1934 -2.46094,7.19338 -2.46094,11.99805 0,4.5996 0.67383,8.29102 2.02149,11.07422 1.34765,2.7832 3.20898,5.21479 5.58203,7.29492 2.37304,2.05073 5.19921,3.54489 8.48047,4.48242 3.31054,0.9082 7.4414,1.36133 12.39257,1.36133 5.12696,0 9.34571,-0.71681 12.65625,-2.15234 3.33984,-1.4356 6.08008,-3.44342 8.21875,-6.02149 2.13868,-2.60747 3.67579,-5.68358 4.61329,-9.22851 l -17.00586,-1.9336 c -0.79102,2.49027 -1.99219,4.33591 -3.60352,5.53711 -1.58203,1.20113 -3.54492,1.80274 -5.88867,1.80274 -2.8125,0 -5.12695,-0.99609 -6.94336,-2.98829 -1.81641,-1.9922 -2.72461,-4.90822 -2.72461,-8.74609 0,-4.3066 0.9082,-7.51365 2.72461,-9.62305 1.8457,-2.13866 4.24804,-3.20898 7.20703,-3.20898 2.34375,0 4.20313,0.51366 5.58008,1.53906 1.40625,0.99607 2.37305,2.49022 2.90039,4.48242 l 16.83203,-2.24218 c -1.61133,-5.24414 -4.42383,-9.22853 -8.4375,-11.95313 -3.98438,-2.72467 -9.78516,-4.08594 -17.40234,-4.08594 z m 59.36914,0 c -8.17383,0 -14.66211,2.31443 -19.4668,6.94336 -4.80469,4.5996 -7.20703,10.45899 -7.20703,17.57813 0,7.64646 2.8418,13.82812 8.52539,18.54492 4.62891,3.8086 10.69336,5.71289 18.19336,5.71289 8.4082,0 14.98437,-2.2852 19.73047,-6.85547 4.77539,-4.5996 7.16406,-10.48828 7.16406,-17.66601 0,-6.38674 -1.91992,-11.76364 -5.75781,-16.12891 -4.77539,-5.41993 -11.83594,-8.12891 -21.18164,-8.12891 z m 68.42383,0 c -3.45703,0 -6.41602,0.59959 -8.87696,1.80078 -2.43164,1.20121 -4.8496,3.22272 -7.25195,6.06446 l 0,-6.81055 -16.69922,0 0,46.66992 17.92969,0 0,-23.81836 c 0,-3.54493 0.66015,-6.09375 1.97851,-7.64648 1.31836,-1.55273 3.00196,-2.33008 5.05274,-2.33008 1.25976,0 2.35937,0.36721 3.29687,1.09961 0.9375,0.70313 1.59571,1.64063 1.97657,2.8125 0.23437,0.73247 0.35156,2.1231 0.35156,4.17383 l 0,25.70898 17.92969,0 0,-24.08203 c 0,-3.36913 0.64453,-5.81638 1.93359,-7.33984 1.28907,-1.5234 2.98828,-2.28516 5.09766,-2.28516 1.7871,0 3.28124,0.80664 4.48242,2.41797 0.82031,1.0254 1.23047,2.59184 1.23047,4.70117 l 0,26.58789 17.92968,0 0,-29.3125 c 0,-6.32813 -1.40625,-10.97075 -4.21875,-13.92968 -2.8125,-2.98834 -6.72265,-4.48243 -11.73242,-4.48243 -3.39844,0 -6.25586,0.55659 -8.57031,1.66993 -2.31445,1.08393 -4.87695,3.14844 -7.68945,6.19531 -1.37696,-2.6074 -3.1504,-4.57034 -5.31836,-5.88867 -2.16797,-1.3184 -5.11133,-1.97657 -8.83203,-1.97657 z m -937.968754,1.05469 19.599609,46.66992 c -0.90820313,2.49027 -2.0214844,4.21875 -3.3398438,5.18555 -1.2890624,0.9668 -2.9882812,1.44922 -5.0976562,1.44922 -3.164062,0 -6.035156,-0.41014 -8.613281,-1.23047 l 1.40625,12.48047 c 5.3906248,0.70313 9.3749998,1.05469 11.9531248,1.05469 6.3574218,0 11.0878906,-1.40622 14.1933592,-4.21875 2.197266,-1.9922 4.351563,-5.83014 6.460938,-11.51368 l 18.5,-49.87695 -17.621094,0 -8.9218751,31.06836 -9.6230469,-31.06836 -18.896484,0 z m 145.062504,11.25 c 2.46093,0 4.52733,0.99608 6.19726,2.98828 1.66992,1.96287 2.50391,4.96481 2.50391,9.00781 0,4.33594 -0.83399,7.48636 -2.50391,9.44922 -1.64063,1.96294 -3.75,2.94336 -6.32812,2.94336 -2.54883,0 -4.67383,-0.99608 -6.37305,-2.98828 -1.66992,-1.9922 -2.50391,-5.06838 -2.50391,-9.22851 0,-4.1016 0.84961,-7.1485 2.54883,-9.14063 1.69922,-2.02153 3.85157,-3.03125 6.45899,-3.03125 z m 59.9414,0 c 2.46094,0 4.52735,0.99608 6.19727,2.98828 1.66992,1.96287 2.5039,4.96481 2.5039,9.00781 0,4.33594 -0.83398,7.48636 -2.5039,9.44922 -1.64062,1.96294 -3.75,2.94336 -6.32813,2.94336 -2.54882,0 -4.67382,-0.99608 -6.37304,-2.98828 -1.66992,-1.9922 -2.50391,-5.06838 -2.50391,-9.22851 0,-4.1016 0.84961,-7.1485 2.54883,-9.14063 1.69922,-2.02153 3.85156,-3.03125 6.45898,-3.03125 z m 239.94141,0 c 2.46094,0 4.52734,0.99608 6.19726,2.98828 1.66992,1.96287 2.50391,4.96481 2.50391,9.00781 0,4.33594 -0.83399,7.48636 -2.50391,9.44922 -1.64062,1.96294 -3.75,2.94336 -6.32812,2.94336 -2.54883,0 -4.67383,-0.99608 -6.37305,-2.98828 -1.66992,-1.9922 -2.5039,-5.06838 -2.5039,-9.22851 0,-4.1016 0.8496,-7.1485 2.54882,-9.14063 1.69922,-2.02153 3.85157,-3.03125 6.45899,-3.03125 z m 234.84375,0 c 2.46094,0 4.52734,0.99608 6.19726,2.98828 1.66992,1.96287 2.50391,4.96482 2.50391,9.00781 0,4.33594 -0.83399,7.48636 -2.50391,9.44922 -1.64062,1.96294 -3.75,2.94336 -6.32812,2.94336 -2.54883,0 -4.67383,-0.99608 -6.37305,-2.98828 -1.66992,-1.9922 -2.5039,-5.06838 -2.5039,-9.22851 0,-4.1016 0.8496,-7.1485 2.54882,-9.14063 1.69922,-2.02153 3.85157,-3.03125 6.45899,-3.03125 z m 190.01953,0 c 2.46094,0 4.52734,0.99608 6.19727,2.98828 1.66991,1.96287 2.5039,4.96482 2.5039,9.00781 0,4.33594 -0.83399,7.48636 -2.5039,9.44922 -1.64063,1.96294 -3.75001,2.94336 -6.32813,2.94336 -2.54883,0 -4.67383,-0.99608 -6.37305,-2.98828 -1.66992,-1.9922 -2.5039,-5.06838 -2.5039,-9.22851 0,-4.1016 0.8496,-7.1485 2.54882,-9.14063 1.69922,-2.02153 3.85157,-3.03125 6.45899,-3.03125 z m -366.50391,0.6582 c 2.28516,0 4.21875,0.90821 5.80078,2.72461 1.58203,1.78714 2.37305,4.3809 2.37305,7.7793 0,3.39847 -0.76172,5.94728 -2.28515,7.64648 -1.49415,1.66994 -3.35352,2.50391 -5.58008,2.50391 -2.34375,0 -4.23438,-0.80468 -5.66992,-2.41601 -1.43555,-1.6406 -2.15235,-4.1465 -2.15235,-7.51563 0,-3.83793 0.67383,-6.5762 2.02149,-8.2168 1.37695,-1.66993 3.20702,-2.50586 5.49218,-2.50586 z m 117.81836,0.17579 c 2.10938,0 3.89648,0.8945 5.36133,2.68164 1.46484,1.7578 2.19727,4.52542 2.19727,8.30468 0,4.1016 -0.70313,7.01763 -2.10938,8.7461 -1.40625,1.69926 -3.15039,2.54883 -5.23047,2.54883 -2.37304,0 -4.33593,-0.89451 -5.88867,-2.68165 -1.55273,-1.78713 -2.32812,-4.52539 -2.32812,-8.21679 0,-4.01367 0.76171,-6.91411 2.28515,-8.70117 1.52344,-1.78714 3.42773,-2.68164 5.71289,-2.68164 z m -264.46289,0.2207 c 2.02148,0 3.73437,0.86326 5.14063,2.5918 1.43554,1.72853 2.15429,4.43946 2.15429,8.13086 0,4.1894 -0.73242,7.17771 -2.19726,8.96484 -1.43555,1.7578 -3.22266,2.63672 -5.36133,2.63672 -2.31445,0 -4.23437,-0.89458 -5.75781,-2.68164 -1.49414,-1.8164 -2.24024,-4.73048 -2.24024,-8.74414 0,-3.66214 0.76172,-6.3867 2.28516,-8.17383 1.55273,-1.8164 3.54492,-2.72461 5.97656,-2.72461 z m -454.92187,12.2168 0,2.85546 c 0,2.22654 -0.36719,4.04296 -1.09961,5.44922 -0.70313,1.37694 -1.91797,2.54883 -3.64649,3.51563 -1.69922,0.9668 -3.54492,1.45117 -5.53711,1.45117 -1.9043,0 -3.35547,-0.43943 -4.35156,-1.31836 -0.96679,-0.9082 -1.44922,-2.06646 -1.44922,-3.47266 0,-1.23046 0.49805,-2.32812 1.49414,-3.29492 0.9668,-0.93753 3.26563,-1.89062 6.89844,-2.85742 2.66602,-0.6738 5.23047,-1.44919 7.69141,-2.32812 z m 398.62695,4.21875 0,17.92968 19.11719,0 0,-17.92968 -19.11719,0 z m 454.74609,0 0,17.92968 19.11719,0 0,-17.92968 -19.11719,0 z"
             transform="translate(0,902.36218)"
             id="path7232" />
        </g>
      </g>
    </g>
  </g>
</svg>
