<svg id="Layer_1" data-name="Layer 1" xmlns="http://www.w3.org/2000/svg" viewBox="0 0 120 120"><defs><style>.cls-1{fill:#d5903f;}.cls-1,.cls-10,.cls-11,.cls-12,.cls-13,.cls-15,.cls-16,.cls-3,.cls-4,.cls-5,.cls-6,.cls-7,.cls-8,.cls-9{fill-rule:evenodd;}.cls-15,.cls-2{fill:#e6a85c;}.cls-3{fill:#9caa39;}.cls-4{fill:#bcce3d;}.cls-5{fill:#81351b;}.cls-6{fill:#9d3e22;}.cls-7{fill:#ffcc04;}.cls-8{fill:#ebddc1;}.cls-9{fill:#f5e8cb;}.cls-10,.cls-14{fill:#dd1f26;}.cls-11{fill:#ed1c24;}.cls-12{fill:#c07629;}.cls-13{fill:#e28526;}.cls-16{fill:#f1b164;}</style></defs><title>stickers no outline</title><path class="cls-1" d="M11.33,82.72a27,27,0,0,1,0-7.3l.4-1.36a23.73,23.73,0,0,1,1.14-2.7c3.3-6.45,10-11.14,16.35-14.15,18.26-8.6,44.72-8.6,63,0,6.38,3,13,7.7,16.35,14.15a23.73,23.73,0,0,1,1.14,2.7l.4,1.36a27,27,0,0,1,0,7.3l-.27,1.78c-7.48,41.23-90.74,41.23-98.22,0Z"/><ellipse class="cls-2" cx="60.71" cy="79.27" rx="49.38" ry="28.51"/><polygon class="cls-3" points="15.23 81.08 15.23 81.68 15.29 81.93 15.36 82.2 15.44 82.48 15.53 82.77 15.62 83.07 15.71 83.39 15.79 83.72 15.86 84.07 15.86 83.47 15.79 83.13 15.71 82.8 15.62 82.48 15.53 82.18 15.44 81.89 15.36 81.61 15.29 81.34 15.23 81.08"/><polygon class="cls-3" points="95.85 86.62 95.85 87.21 95.97 86.82 96.07 86.54 96.16 86.27 96.24 86 96.31 85.75 96.37 85.51 96.42 85.27 96.42 84.68 96.37 84.92 96.31 85.16 96.24 85.41 96.16 85.67 96.07 85.94 95.97 86.22 95.85 86.62"/><path class="cls-4" d="M90.82,75.45c-17.51-13.81-51.13-14-68.73-.25A19.18,19.18,0,0,1,17,78.48c-4.59,2.17,1.5,4.13-2.32,10.69-2.73,4.69-.37,3.73,2.68,6.48,3.65,3.28-1.09,8.58,3.88,8.31,4.55-.24,5.2-.73,6.83,3.68,2.31,6.23,7.44-1.49,10.75,2.71,2.67,3.38,2.55,6.58,7.08,2.69,5.64-4.84,5.09-.31,8.41,3,3.84,3.78,4.62-9.11,9.8-3.75.71.74,3.38,4.47,4.53,3.73,2.23-1.44,1.12-9.26,7.91-5.66,5.44,2.88,4.21.16,7.14-3.45,2.74-3.38,6-.88,9-6,1.7-2.88,1.87-2.81,4.33-5,4.71-4.2-2.53-5.35-1-9.66,1.09-3,.71-4.3-1.48-7l-2.11-2.32C91.86,76.35,91.38,75.93,90.82,75.45Z"/><polygon class="cls-3" points="28.77 74.24 28.77 74.83 28.83 75.09 28.9 75.36 28.98 75.64 29.07 75.92 29.16 76.23 29.25 76.55 29.33 76.88 29.4 77.22 29.4 76.63 29.33 76.28 29.25 75.95 29.16 75.64 29.07 75.33 28.98 75.04 28.9 74.77 28.83 74.5 28.77 74.24"/><polygon class="cls-3" points="27.04 85.71 27.04 86.3 27.09 86.46 27.17 86.61 27.26 86.75 27.37 86.89 27.5 87.01 27.64 87.14 27.8 87.26 27.97 87.38 28.16 87.5 28.36 87.62 28.57 87.75 28.79 87.89 29.02 88.03 29.26 88.18 29.52 88.34 29.77 88.52 30.04 88.71 30.32 88.92 30.59 89.15 30.88 89.39 31.2 89.71 31.47 90.03 31.7 90.37 31.89 90.71 32.04 91.05 32.16 91.41 32.26 91.76 32.26 91.17 32.16 90.81 32.04 90.46 31.89 90.11 31.7 89.77 31.47 89.44 31.2 89.12 30.88 88.8 30.59 88.56 30.32 88.33 30.04 88.12 29.77 87.93 29.52 87.75 29.26 87.59 29.02 87.44 28.79 87.29 28.57 87.16 28.36 87.03 28.16 86.91 27.97 86.78 27.8 86.66 27.64 86.54 27.5 86.42 27.37 86.29 27.26 86.16 27.17 86.02 27.09 85.87 27.04 85.71"/><polygon class="cls-3" points="109.39 79.78 109.39 80.37 109.51 79.97 109.61 79.69 109.7 79.42 109.78 79.16 109.85 78.91 109.91 78.67 109.96 78.43 109.96 77.84 109.91 78.07 109.85 78.32 109.78 78.57 109.7 78.83 109.61 79.1 109.51 79.38 109.39 79.78"/><path class="cls-5" d="M19,91.75a38,38,0,0,0,6.61,5c8.49,5.13,19.23,7.77,29.08,8.49a80.39,80.39,0,0,0,28.57-3,54.33,54.33,0,0,0,14.89-6.93c5.38-3.72,9-7.79,10.73-13.91V71.29c-2.48,8.65-9.41,14-17.57,17.79a64.66,64.66,0,0,1-12.46,4.23C64,96.75,46.25,95.87,32.16,89.94a47,47,0,0,1-10.77-6.22,27.35,27.35,0,0,1-6.94-7.91,23.41,23.41,0,0,1-1.14-2.5L12.88,72l-.31-1.3V80.87l.31,1.3a22.94,22.94,0,0,0,.95,2.55A23.9,23.9,0,0,0,19,91.75Z"/><path class="cls-6" d="M12.67,72C14.32,86.14,34.6,97.43,59.21,97.87c27.43.49,50.24-12.55,49.64-28.39-.55-14.62-21-26.61-46.28-27.17C34.14,41.67,10.76,55.57,12.67,72Z"/><path class="cls-7" d="M62.12,36.65A291.13,291.13,0,0,1,37.25,52.87C28.42,58,19,62.7,9.15,67.23,7.54,68,7.71,69,9.46,69.64a205.89,205.89,0,0,1,29.4,13.61,149.78,149.78,0,0,1,23.56,17,3.38,3.38,0,0,0,4.18.18A286.77,286.77,0,0,1,91.49,84.18c8.82-5.09,18.28-9.84,28.08-14.36,1.61-.74,1.44-1.74-.31-2.41A207.51,207.51,0,0,1,89.86,53.8a149.18,149.18,0,0,1-23.56-17A3.37,3.37,0,0,0,62.12,36.65Z"/><path class="cls-8" d="M56.35,78v1.24l.06.35.06.36.08.35.1.35.11.35.12.35.14.35.16.34.16.35.19.34.2.34.21.34.23.33.24.34.25.33.27.32.29.33.3.32.32.31.33.32.34.31.36.3.37.3.39.3.41.29.41.29.44.29.44.28.47.27.47.27.48.25.49.25.5.24.51.24.52.22.52.22.53.21.53.19.55.19.55.19.55.17.56.17.57.15.57.15.58.14.58.13.58.12.59.12.59.1.6.1.6.09.6.08.61.07.6.07.61.05.61,0,.62,0,.61,0,.61,0h2.46l.62,0,.61,0,.61,0,.61,0,.61-.05.61-.07.6-.07.61-.08.59-.09.6-.1.59-.1.59-.12L91,92l.58-.13.58-.14.57-.15.56-.15.56-.17.56-.17.55-.19.54-.19.54-.19.53-.21.52-.22.51-.22.51-.24.5-.24.49-.25.49-.25.47-.27.46-.27.45-.28.43-.29.42-.29.4-.29.39-.3.37-.3.36-.3.35-.31.33-.32.31-.31.3-.32.29-.33.27-.32.26-.33.24-.34.23-.33.21-.34.2-.34.18-.34.17-.35.15-.34.14-.35.13-.35.11-.35.09-.35.08-.35.07-.36,0-.35V78l0,.35-.07.36-.08.35-.09.35-.11.35-.13.35-.14.35-.15.34-.17.35-.18.34-.2.34-.21.34-.23.33-.24.34-.26.33-.27.32-.29.33-.3.32-.31.32-.33.31-.35.31-.36.3-.37.31-.39.29-.4.3-.42.28-.43.29-.45.28-.46.27-.47.27-.49.26-.49.25-.5.24-.51.23-.51.22-.52.22-.53.21-.54.2-.54.19-.55.18-.56.17-.56.17-.56.15-.57.15-.58.14-.58.13-.59.13-.59.11-.59.11-.6.09-.59.09-.61.08-.6.07-.61.07-.61,0-.61,0-.61,0-.61,0-.62,0H80.69l-.61,0-.61,0-.62,0-.61,0-.61,0-.6-.07-.61-.07-.6-.08-.6-.09-.6-.09L74,91l-.59-.11-.58-.13-.58-.13-.58-.14-.57-.15-.57-.15L70,90l-.55-.17-.55-.18-.55-.19-.53-.2-.53-.21-.52-.22-.52-.22-.51-.23-.5-.24-.49-.25-.48-.26-.47-.27-.47-.27-.44-.28-.44-.29L62,86.25l-.41-.3-.39-.29-.37-.31-.36-.3-.34-.31-.33-.31-.32-.32-.3-.32-.29-.33-.27-.32-.25-.33-.24-.34-.23-.33-.21-.34-.2-.34-.19-.34-.16-.35L57,80.43l-.14-.35-.12-.35-.11-.35-.1-.35-.08-.35-.06-.36L56.35,78Zm3-.13v1.24l0-.31,0-.31V76.59l0-.31,0-.31,0-.32.06-.31.07-.31.09-.31.09-.31.11-.31.13-.3.13-.31.15-.3.16-.3.18-.3.19-.3L61,72l.21-.29.23-.29.23-.29.26-.28.26-.29.28-.28.29-.27.3-.27.32-.27.33-.27.34-.26.36-.26.37-.26.38-.25.39-.24.41-.24.42-.24.42-.22.44-.23.44-.21.44-.2.46-.2.46-.19.47-.18.47-.18.48-.17.48-.16.49-.15.5-.15.5-.13.5-.14.51-.12.51-.11.52-.11.52-.1.52-.1.52-.08.53-.08.53-.07.54-.07.53,0,.54-.05.54,0,.54,0,.54,0,.54,0H83l.54,0,.54,0,.54,0,.54,0,.53.05.54,0,.53.07.53.07.53.08.53.08.52.1.52.1.52.11.51.11.51.12.5.14.5.13.49.15.49.15.49.16.48.17.47.18.47.18.46.19.45.2.45.2.44.21.43.23.43.22.41.24.41.24.4.24.38.25.37.26.35.26.34.26.33.27.32.27.3.27.3.27.27.28.27.29.25.28.24.29.23.29.21.29.2.3.19.3.17.3.16.3.15.3.14.31.12.3.11.31.1.31.08.31.07.31.06.31,0,.32,0,.31,0,.31v1.87l0,.31,0,.31V77.84l0-.31h0l0-.32,0-.31-.06-.31-.07-.31-.08-.31-.1-.31-.11-.31-.12-.3-.14-.31-.15-.3-.16-.3-.17-.3-.19-.3-.2-.3-.21-.29-.23-.29-.24-.29-.25-.29-.27-.28-.27-.28-.3-.27-.3-.28-.32-.27-.33-.26-.34-.26-.35-.26-.37-.26-.38-.25-.4-.24-.41-.24-.41-.24-.43-.23-.43-.22L96.19,68l-.45-.21-.45-.19-.46-.19-.47-.19-.47-.17-.48-.17-.49-.16-.49-.15-.49-.15-.5-.14-.5-.13-.51-.12-.51-.12-.52-.1-.52-.11-.52-.09-.53-.08-.53-.08-.53-.07-.53-.07-.54,0-.53,0-.54,0-.54,0-.54,0-.54,0H80.84l-.54,0-.54,0-.54,0-.54,0-.54,0-.53,0-.54.07-.53.07-.53.08-.52.08-.52.09-.52.11-.52.1-.51.12-.51.12-.5.13-.5.14-.5.15-.49.15-.48.16-.48.17-.47.17-.47.19-.46.19-.46.19-.44.21-.44.21-.44.22-.42.23-.42.24-.41.24-.39.24-.38.25-.37.26-.36.26-.34.26-.33.26L63,71l-.3.28-.29.27-.28.28-.26.28-.26.29-.23.29-.23.29-.21.29-.2.3-.19.3-.18.3-.16.3-.15.3L60,75l-.13.3-.11.31-.09.31-.09.31-.07.31-.06.31,0,.31,0,.32h0Z"/><path class="cls-9" d="M63.8,66.44c-5,2.89-7.51,6.68-7.51,10.47s2.5,7.57,7.51,10.46,11.56,4.34,18.12,4.34S95,90.26,100.05,87.37s7.51-6.68,7.51-10.47-2.51-7.57-7.51-10.46-11.57-4.33-18.13-4.33S68.8,63.55,63.8,66.44ZM59.32,76.91c0-3.34,2.21-6.68,6.62-9.23a32.64,32.64,0,0,1,16-3.82,32.61,32.61,0,0,1,16,3.82c4.42,2.55,6.62,5.89,6.62,9.23s-2.2,6.67-6.62,9.22a32.61,32.61,0,0,1-16,3.82,32.64,32.64,0,0,1-16-3.82C61.53,83.58,59.32,80.24,59.32,76.91Z"/><path class="cls-8" d="M12.61,60.47v.92l0,.26,0,.26.06.27.08.26.08.26L13,63l.1.26.12.26.12.25.14.26.15.25.16.25.17.25.18.25.19.24.2.25.21.24L15,66l.23.23.25.24.25.23.27.23.28.22.29.22.3.22.31.21.32.22.33.2.35.21.35.2.36.19.37.18.37.18.38.18.38.16.39.16.39.16.4.15.41.14.4.13.42.13.42.13.42.11.42.11.43.11.43.09.44.1.44.08.44.08.44.07.45.07.45.06.45,0,.45,0,.45,0,.46,0,.46,0,.45,0H33l.45,0,.46,0,.45,0,.46,0,.45,0,.45,0,.45-.06.44-.07.45-.07.44-.08L38,71l.43-.1.44-.09.43-.11.42-.11.42-.11.42-.13.41-.13.41-.13.41-.14.4-.15.39-.16.39-.16.38-.16.38-.18.37-.18.37-.18.36-.19.35-.2.34-.21.34-.2.32-.22.31-.21.3-.22.29-.22.28-.22.27-.23.25-.23.25-.24.23-.23.23-.24.21-.24.2-.25.19-.24.18-.25.17-.25.16-.25.15-.25.13-.26.13-.25.11-.26.11-.26.09-.26.08-.26.07-.26.06-.27,0-.26,0-.26v-.92l0,.26,0,.26-.06.26-.07.27-.08.26-.09.26-.11.26-.11.25-.13.26-.13.25-.15.26-.16.25-.17.25-.18.25-.19.24-.2.25-.21.24-.23.24-.23.23-.25.24-.25.23-.27.22-.28.23-.29.22-.3.22-.31.21-.32.21-.34.21-.34.2-.35.2-.36.2-.37.18-.37.18-.38.17-.38.17-.39.16-.39.16-.4.14-.41.15-.41.13-.41.13-.42.12-.42.12-.42.11-.43.11-.44.09-.43.09-.44.09-.44.08-.45.07-.44.07-.45.06-.45,0-.45.05-.46,0-.45,0-.46,0-.45,0-.46,0H30.73l-.46,0-.45,0-.46,0-.46,0-.45,0L28,70.49l-.45,0-.45-.06-.45-.07-.44-.07-.44-.08-.44-.09L24.89,70l-.43-.09L24,69.78l-.42-.11-.42-.12-.42-.12-.42-.13-.4-.13L21.54,69l-.4-.14-.39-.16-.39-.16L20,68.39l-.38-.17L19.23,68l-.37-.18-.36-.2-.35-.2-.35-.2-.33-.21-.32-.21-.31-.21-.3-.22-.29-.22L16,66l-.27-.22-.25-.23-.25-.24L15,65l-.23-.24-.21-.24-.2-.25-.19-.24L14,63.82l-.17-.25-.16-.25-.15-.26-.14-.25-.12-.26-.12-.25L13,62l-.09-.26-.08-.26-.08-.27L12.69,61l0-.26,0-.26Zm2.25-.1v.92l0-.23,0-.23V59.44l0-.23,0-.24,0-.23,0-.23.05-.23.06-.23.07-.23.09-.23.09-.23.1-.23.11-.22.12-.23.13-.22.14-.22.15-.22.16-.22.17-.22.17-.21.19-.22.2-.21.21-.2.21-.21.23-.2.23-.2.25-.2.26-.2.26-.19.27-.19.29-.18.29-.19.31-.18.31-.17.31-.17.33-.17.32-.15.34-.16.33-.14.35-.15.35-.13.35-.13.35-.13.36-.12.37-.11.37-.11.37-.1.37-.1.38-.09.38-.09.39-.08.38-.07.39-.07.39-.07.4-.06.39,0,.4,0,.4,0,.4,0,.4,0,.4,0,.4,0h2.42l.41,0,.4,0,.4,0,.4,0,.4,0,.4,0,.39,0,.39.06.4.07.38.07.39.07.39.08.38.09.38.09.37.1.37.1.37.11.36.11.37.12.35.13.35.13.35.13.34.15.34.14.34.16.32.15.33.17.31.17.31.17.31.18.29.19.28.18.28.19.26.19.26.2.24.2.24.2.23.2.21.21.21.2.2.21.19.22.17.21.17.22.16.22.15.22.14.22.13.22.12.23.11.22.1.23.09.23.08.23.08.23.06.23.05.23,0,.23,0,.23,0,.24,0,.23v1.39l0,.23,0,.23v-.92l0-.23h0l0-.23,0-.24,0-.23-.05-.23L48.24,59l-.08-.23-.08-.23L48,58.28l-.1-.23-.11-.22-.12-.23-.13-.22-.14-.22-.15-.22-.16-.22-.17-.22-.17-.21-.19-.21-.2-.21-.21-.21-.21-.21-.23-.2-.24-.2-.24-.2-.26-.2-.26-.19-.28-.19-.28-.18-.29-.19-.31-.18-.31-.17-.31-.17-.33-.16-.32-.16-.34-.16-.34-.14-.34-.14-.35-.14-.35-.13-.35-.13-.37-.12L39.47,52l-.37-.11-.37-.1-.37-.1L38,51.59l-.38-.09-.39-.08-.39-.07-.38-.07-.4-.06-.39-.06-.39-.06-.4,0-.4-.05-.4,0-.4,0-.4,0-.41,0H30.43l-.4,0-.4,0-.4,0-.4,0-.4.05-.4,0-.39.06-.4.06-.39.06-.39.07-.38.07-.39.08-.38.09-.38.09-.37.1-.37.1-.37.11-.37.11-.36.12-.35.13-.35.13-.35.14-.35.14-.33.14-.34.16-.32.16-.33.16-.31.17-.31.17-.31.18-.29.19-.29.18-.27.19-.26.19-.26.2-.25.2-.23.2-.23.2-.21.21-.21.21-.2.21-.19.21-.17.21-.17.22-.16.22-.15.22-.14.22-.13.22-.12.23-.11.22-.1.23-.09.23-.09.23-.07.23L15,59.2l-.05.23,0,.23,0,.24,0,.23h0Z"/><path class="cls-9" d="M18.15,51.88c-3.73,2.15-5.59,5-5.59,7.79s1.86,5.64,5.59,7.79a27.5,27.5,0,0,0,13.49,3.23,27.51,27.51,0,0,0,13.5-3.23c3.73-2.15,5.59-5,5.59-7.79S48.87,54,45.14,51.88a27.62,27.62,0,0,0-13.5-3.23,27.61,27.61,0,0,0-13.49,3.23Zm-3.33,7.79c0-2.48,1.64-5,4.93-6.87A24.37,24.37,0,0,1,31.64,50a24.38,24.38,0,0,1,11.9,2.84c3.29,1.9,4.93,4.39,4.93,6.87s-1.64,5-4.93,6.87a24.27,24.27,0,0,1-11.9,2.85,24.26,24.26,0,0,1-11.89-2.85C16.46,64.65,14.82,62.16,14.82,59.67Z"/><path class="cls-8" d="M34.62,59v1.18l.05.33.07.34.07.33.09.34.11.33.12.33.13.33.14.33.16.33.18.32.19.32.2.32.21.32.23.32.25.31.25.31.27.31.29.3.3.3.31.3.33.29.34.29.35.29.37.28L40,68l.39.27.41.27.43.27.43.26.45.25.46.24.47.24.47.23.48.22.49.21.5.21.5.2L46,71l.51.18.52.18.53.16.53.16.54.15.54.14.55.13.55.12.55.12.56.11.57.1.56.09.57.09.57.07.58.07.57.06.58.05.58,0,.58,0,.58,0,.58,0h2.34l.58,0,.58,0,.58,0,.58,0L63,73l.57-.06.58-.07.57-.07.57-.09.56-.09.57-.1.55-.11.56-.12.55-.12.55-.13.54-.14.54-.15.53-.16.53-.16.52-.18.51-.18.51-.18.5-.2.5-.21.49-.21.48-.22.47-.23.47-.24.46-.24.44-.25.44-.26.43-.27.41-.27.39-.27.39-.28.37-.28.35-.29.34-.29.33-.29.31-.3.3-.3.28-.3.28-.31.25-.31.25-.31.23-.32.21-.32.2-.32.19-.32.18-.32.16-.33.14-.33.13-.33.12-.33.11-.33.09-.34L83,60.8l.07-.34,0-.33V59l0,.34-.07.34L83,60l-.09.33-.11.34-.12.33-.13.33-.14.32-.16.33-.18.33-.19.32-.2.32-.21.32-.23.31-.25.32-.25.31-.28.3-.28.31-.3.3-.31.3-.33.29-.34.29-.35.29-.37.28-.39.28-.39.27-.41.27-.43.26-.44.26-.44.25-.46.25-.47.24-.47.23-.48.22-.49.21-.5.2-.5.2-.51.19-.51.18-.52.17-.53.17-.53.15-.54.15-.54.14L68,71l-.55.12-.56.12-.55.11-.57.1-.56.09-.57.08-.57.08-.58.07-.57.06-.58,0-.58,0-.58,0-.58,0-.58,0H57.71l-.58,0-.58,0-.58,0-.58,0-.58,0-.57-.06-.58-.07-.57-.08-.57-.08L52,71.41l-.57-.1-.56-.11-.55-.12L49.73,71l-.55-.14-.54-.14-.54-.15-.53-.15L47,70.21,46.52,70,46,69.86l-.51-.19-.5-.2-.5-.2L44,69.06l-.48-.22-.47-.23-.47-.24-.46-.25-.45-.25-.43-.26-.43-.26-.41-.27L40,66.81l-.39-.28-.37-.28L38.91,66l-.34-.29-.33-.29-.31-.3-.3-.3-.29-.31-.27-.3-.25-.31-.25-.32-.23-.31-.21-.32-.2-.32-.19-.32-.18-.33-.16-.33-.14-.32L35.13,61,35,60.63l-.11-.34L34.81,60l-.07-.33-.07-.34L34.62,59Zm2.87-.12V60l0-.3V57.35l0-.3,0-.29.05-.3.07-.29.08-.3.09-.29.11-.29.11-.29.13-.29.14-.29.16-.29.16-.28.18-.28.19-.28.2-.28.22-.28.22-.27.24-.27.25-.27.27-.27.27-.26.29-.26.3-.25.31-.25.33-.25.34-.25.35-.24.36-.24.37-.23.39-.23.4-.22.4-.22.41-.21.42-.2.42-.19L46.2,48l.44-.18.44-.18.45-.16.46-.16.45-.15.47-.15.47-.14.47-.13.48-.12.48-.12.49-.11.49-.1.49-.1.5-.08.49-.09.51-.07.5-.07.5-.06.51,0,.51-.05.51,0,.51,0,.52,0,.51,0h2.06l.51,0,.51,0,.52,0,.51,0,.51.05.5,0,.51.06.5.07.51.07.49.09.5.08.49.1.49.1.49.11.48.12.48.12.47.13.47.14.46.15.46.15.46.16.45.16.44.18.44.18.43.19.42.19.42.2.41.21.4.22.4.22.39.23.37.23.36.24.35.24.34.25.32.25.32.25.3.25.29.26.27.26.27.27.25.27.24.27.22.27.22.28.2.28.19.28.18.28.16.28.16.29.14.29.13.29.11.29.11.29.09.29.08.3.07.29,0,.3,0,.29,0,.3v2.36l0,.3V58.83l0-.29h0l0-.29,0-.3,0-.29-.07-.3L80,57.05l-.09-.3-.11-.29-.11-.29-.13-.29-.14-.29-.16-.28L79.12,55l-.18-.28-.19-.28-.2-.28-.22-.27-.22-.28-.24-.27-.25-.27-.27-.26-.27-.26-.29-.26-.3-.26-.32-.25-.32-.25-.34-.24-.35-.25-.36-.23-.37-.24L74,50.37l-.4-.23-.4-.21-.41-.21-.42-.2-.42-.2-.43-.19L71.12,49l-.44-.17-.45-.17-.46-.16-.46-.15-.46-.14L68.38,48l-.47-.13-.48-.13L67,47.65l-.49-.11L66,47.43l-.49-.09-.5-.09-.49-.08L64,47.09l-.5-.06L63,47l-.5-.06-.51,0-.51,0-.52,0-.51,0-.51,0H57.85l-.51,0-.52,0-.51,0-.51,0-.51,0-.51.06-.5.06-.5.06-.51.08-.49.08-.5.09-.49.09-.49.11-.49.11-.48.11-.48.13-.47.13-.47.14-.47.14-.45.15-.46.16-.45.17-.44.17-.44.18-.43.19-.42.2-.42.2-.41.21-.4.21-.4.23-.39.22-.37.24-.36.23-.35.25-.34.24-.33.25-.31.25-.3.26-.29.26-.27.26-.27.26-.25.27-.24.27-.22.28-.22.27-.2.28-.19.28-.18.28-.16.29-.16.28-.14.29-.13.29-.11.29-.11.29-.09.3-.08.29-.07.3-.05.29,0,.3,0,.29h0Z"/><path class="cls-9" d="M41.68,48c-4.74,2.74-7.12,6.33-7.12,9.92s2.38,7.19,7.12,9.93S52.66,72,58.88,72s12.45-1.37,17.19-4.11,7.13-6.33,7.13-9.93S80.82,50.76,76.07,48s-11-4.12-17.19-4.12S46.43,45.28,41.68,48Zm-4.24,9.92c0-3.16,2.09-6.33,6.28-8.75a31,31,0,0,1,15.16-3.62A31,31,0,0,1,74,49.19c4.19,2.42,6.28,5.59,6.28,8.75S78.23,64.28,74,66.7a31.07,31.07,0,0,1-15.16,3.62A31.07,31.07,0,0,1,43.72,66.7C39.53,64.28,37.44,61.11,37.44,57.94Z"/><path class="cls-8" d="M67.48,60v1l0,.29,0,.29.07.29.07.29.09.28.11.29L68,63l.13.29.13.28.15.28.17.28.17.27.19.28.19.27.21.27.23.27.23.26.25.26.25.26.27.26.29.25.29.25.31.25.31.24.33.24.35.24.35.23.37.23.37.22.39.22.4.21.4.21.41.2.41.19.42.18.43.18.43.17.44.16.45.15.45.15.45.15.46.13.46.13.47.12.47.11.48.11.48.1.48.1.48.08.49.08.49.07.49.07.5.06.5.05.49,0,.5,0,.51,0,.5,0,.5,0h2l.5,0,.51,0,.5,0,.5,0,.5,0,.49-.05.5-.06.49-.07.49-.07.49-.08.48-.08.49-.1.47-.1.48-.11.47-.11.47-.12L97.7,71l.46-.13.46-.15.45-.15.44-.15.44-.16.43-.17.43-.18.42-.18.42-.19.4-.2.41-.21.39-.21.39-.22.38-.22.36-.23.36-.23.34-.24.33-.24.32-.24.3-.25.3-.25.28-.25.27-.26.26-.26.24-.26.24-.26.22-.27.21-.27.2-.27.18-.28.18-.27.16-.28.15-.28.14-.28.12-.29.12-.28.1-.29.09-.28.08-.29.06-.29.06-.29,0-.29V60l0,.29-.06.29-.06.29-.08.28-.09.29-.1.29-.12.28-.12.28-.14.29-.15.28-.16.27-.18.28-.18.27-.2.28-.21.27-.22.26-.24.27-.24.26-.26.26-.27.26-.28.25-.3.25-.3.25-.32.24-.33.24-.34.24-.36.23-.36.23-.38.22-.39.22-.39.21-.41.21-.4.19-.42.19-.42.19-.43.17-.43.17-.44.17-.44.15-.45.15-.46.14L97.7,70l-.46.13-.47.12-.47.11-.48.11-.47.1-.49.09-.48.09-.49.08-.49.07-.49.07-.5.06-.49,0-.5,0-.5,0-.5,0-.51,0h-3l-.5,0-.51,0-.5,0-.49,0-.5,0-.5-.06-.49-.07-.49-.07-.49-.08L82,70.61l-.48-.09-.48-.1-.48-.11L80,70.2l-.47-.12L79.11,70l-.46-.14-.45-.14-.45-.15-.45-.15-.44-.17L76.43,69,76,68.86l-.42-.19-.41-.19-.41-.19-.4-.21-.4-.21-.39-.22-.37-.22-.37-.23L72.48,67l-.35-.24-.33-.24-.31-.24L71.18,66l-.29-.25-.29-.25-.27-.26L70.08,65l-.25-.26-.23-.27-.23-.26-.21-.27L69,63.64l-.19-.27-.17-.28-.17-.27-.15-.28-.13-.29L68,62l-.11-.28-.11-.29-.09-.29-.07-.28-.07-.29,0-.29,0-.29Zm2.48-.1v1l0-.26v-2l0-.26,0-.26,0-.25.06-.26.07-.25.08-.25.09-.25.1-.25.11-.25.12-.25.14-.25.14-.25.15-.24.17-.24.17-.24.19-.24.19-.23.21-.24.21-.23.23-.23.24-.22.25-.23.26-.22.27-.22.28-.21.29-.21.3-.21.31-.2.32-.21.34-.19.34-.2.35-.18.35-.18.36-.18.37-.16.37-.17.38-.15.38-.15.39-.15.39-.13.39-.13.41-.13.4-.12.41-.11.41-.11.42-.1.42-.09.42-.09.42-.08.43-.08.43-.07.43-.07.44-.05.43-.06.44,0,.44,0,.44,0,.44,0,.45,0,.44,0h1.77l.45,0,.44,0,.44,0,.44,0,.44,0,.44,0,.43.06.44.05.43.07.43.07.43.08.42.08.43.09.42.09.41.1.41.11.41.11.41.12.4.13.39.13.4.13.38.15.38.15.38.15.37.17.37.16.36.18.35.18.35.18.34.2.34.19.32.21.31.2.3.21.29.21.28.21.27.22.26.22.25.23.24.22.23.23.22.23.2.24.2.23.18.24.18.24.16.24.15.24.15.25.13.25.12.25.11.25.1.25.09.25.08.25.07.25.06.26,0,.25,0,.26,0,.26,0,.25v1.53l0,.25,0,.26v-1l0-.26h0l0-.26,0-.25,0-.26-.06-.25-.07-.26-.08-.25-.09-.25-.1-.25-.11-.25-.12-.25-.13-.25-.15-.24-.15-.25-.16-.24-.18-.24-.18-.24-.2-.23-.2-.24-.22-.23-.23-.23-.24-.22-.25-.22-.26-.23-.27-.21-.28-.22-.29-.21-.3-.21-.31-.2-.32-.2-.34-.2-.34-.19-.35-.19-.35-.18-.36-.17-.37-.17-.37-.16L99,51.33l-.38-.15L98.2,51l-.4-.14-.39-.13-.4-.13-.41-.11-.41-.12-.41-.1-.41-.11L95,50.11,94.52,50l-.42-.08-.43-.08-.43-.07-.43-.06-.44-.06-.43-.05-.44,0-.44,0-.44,0-.44,0-.44,0-.45,0H87.52l-.44,0-.45,0-.44,0-.44,0-.44,0-.44,0-.43.05-.44.06-.43.06-.43.07-.43.08-.42.08-.42.09-.42.09-.42.11-.41.1-.41.12-.4.11-.41.13L79,50.9l-.39.14-.39.14-.38.15-.38.16-.37.16-.37.17-.36.17-.35.18-.35.19-.34.19-.34.2-.32.2-.31.2-.3.21-.29.21-.28.22-.27.21-.26.23-.25.22-.24.22-.23.23-.21.23-.21.24-.19.23-.19.24-.17.24-.17.24-.15.25-.14.24-.14.25-.12.25-.11.25-.1.25-.09.25-.08.25-.07.26-.06.25,0,.26,0,.25,0,.26h0Z"/><path class="cls-9" d="M73.57,50.52c-4.09,2.37-6.14,5.47-6.14,8.57s2,6.2,6.14,8.56A30.3,30.3,0,0,0,88.41,71.2a30.29,30.29,0,0,0,14.83-3.55c4.09-2.36,6.14-5.46,6.14-8.56s-2-6.2-6.14-8.57A30.39,30.39,0,0,0,88.41,47a30.41,30.41,0,0,0-14.84,3.54Zm-3.66,8.57c0-2.74,1.81-5.47,5.42-7.55a26.67,26.67,0,0,1,13.08-3.13,26.65,26.65,0,0,1,13.07,3.13c3.62,2.08,5.42,4.81,5.42,7.55s-1.8,5.46-5.42,7.55a26.76,26.76,0,0,1-13.07,3.13,26.78,26.78,0,0,1-13.08-3.13C71.72,64.55,69.91,61.82,69.91,59.09Z"/><path class="cls-10" d="M47.3,67.13l0,.07h0l.29-.19.27-.19.26-.19.23-.2.22-.2.21-.2.18-.21.16-.21.14-.21.12-.22.1-.23.08-.25.06-.26,0-.26,0-.25V66.4l0,.26,0,.26-.06.25-.08.26-.1.22-.12.22-.14.22-.16.21-.18.21-.21.2-.22.2-.23.2-.26.19-.27.19-.29.19-.3.18-.31.19-.32.18-.34.18-.35.19-.36.18-.36.18-.37.18-.39.19-.38.18-.39.19-.4.19-.4.19-.4.2-.41.19-.4.21-.41.2-.4.21-.4.21-.4.22-.39.23L39,74l-.38.23-.37.23-.37.23-.35.24-.35.23-.34.23-.34.23-.33.24-.33.22-.32.23-.32.22-.32.22-.32.22-.31.21-.32.21-.32.2-.31.19L33,78l-.32.18-.32.17-.33.17-.33.15-.33.15-.34.14-.34.13-.35.11-.36.11-.37.09-.37.08-.38.07-.4.06-.43,0-.45,0-.44,0H25.78l-.46,0-.45,0-.46,0-.46,0-.45-.06L23,79.45l-.46-.07-.46-.08-.45-.09-.46-.1L20.76,79l-.46-.12-.45-.12-.44-.13L19,78.49l-.44-.15-.43-.16L17.65,78l-.42-.17-.43-.18-.42-.19L16,77.29l-.41-.2-.4-.2-.39-.22-.39-.21L14,76.23,13.63,76l-.35-.23-.35-.24-.33-.24-.33-.24L12,74.8l-.29-.25-.29-.25-.27-.25-.26-.26-.25-.27-.24-.26L10.14,73l-.22-.26-.19-.27-.19-.28-.17-.27-.16-.28-.15-.27-.13-.28-.12-.28-.1-.28-.09-.28L8.54,70l-.06-.28-.05-.29,0-.28,0-.28V66.36l0,.28,0,.29.05.28.06.28.08.28.09.28.1.28.12.28.13.28.15.28.16.27.17.28.19.27.19.27.22.27.22.26.24.27.25.26.26.26.27.25.29.26.29.25.31.24.33.25.33.24.35.23.35.24.37.22.38.23.39.22.39.21.4.2.41.2.41.2.42.18.43.18.42.17.44.16.43.16L19,76l.45.14.44.13.45.13.46.11.45.11.46.1.45.09.46.08,0,0-.07-.06-.06-.07-.05-.07-.05-.08-.05-.07,0-.08,0-.07,0-.08,0-.08,0-.08,0-.08V75.4l0,0-.05,0-.06,0-.05,0-.06,0-.06,0-.06,0-.07,0-.06,0-.07,0-.06,0-.07,0-.07,0-.07,0-.07,0-.08,0-.11,0-.11,0-.12,0-.12,0-.12,0-.11,0h-.61l-.11,0-.12,0-.12,0-.11,0-.12,0L19,75.83l-.14-.07-.13-.09-.11-.09-.09-.1-.07-.1-.06-.11,0-.11,0-.11v-.76h-.06l-.05,0h-.11l-.12,0-.12,0h-.12l-.12,0h-.72l-.12,0-.11,0-.12,0-.11,0-.1,0-.11,0-.1-.06-.1-.05L16,74.07,15.9,74l-.06-.06-.06-.07,0-.06,0-.07,0-.07,0-.08V72.11H14.5l-.11,0-.12,0-.12,0L14,72l-.1,0-.1,0-.1,0-.09,0-.09,0-.08-.06-.08,0-.06-.07-.09-.11-.07-.11,0-.11V70h-1l-.08,0H12l-.07,0h-.08l-.07,0-.07,0-.12,0-.11,0-.1,0-.1,0-.1,0-.09,0L11,69.57l-.08,0-.07-.06-.07-.06-.06-.06,0-.06,0-.06,0-.07,0-.07,0-.08V66.61l0,.11-.1.24-.07.23-.07.24-.05.24,0,.24,0,.26V65.7l0-.26,0-.24.05-.24.07-.23.07-.24.1-.24.1-.23.12-.23.13-.24.14-.23.16-.22.17-.23.18-.23.19-.22.2-.22.22-.23.22-.21.24-.22.25-.22.26-.21.27-.21.28-.21.29-.21.3-.21.3-.2.32-.2.33-.2.33-.2.35-.2.35-.19.36-.19.37-.19.38-.19.32-.21.32-.22.33-.2.34-.21.34-.2.34-.19.35-.19.35-.18.35-.18.36-.17.36-.17.36-.16.37-.16.37-.15.37-.14.38-.14.38-.13.38-.12.39-.12.39-.11.39-.11.39-.09.4-.09.4-.09.4-.07.4-.07.41-.06.4,0,.41-.05.42,0,.41,0,.42,0,.44,0h1.33l.45,0,.44,0,.45,0,.44,0,.45,0,.44.06.44.06.44.07.43.08.44.08.43.09.43.1.43.1.42.12.42.11.42.13.41.13.41.14.4.14.4.15.39.16.39.16.39.17.38.18.37.18.37.19.36.19.35.2.34.2.34.21.32.21.32.21.3.22.29.22.28.22.27.23.26.23.25.23.23.23.22.23.21.24.2.23.18.24.17.24.16.24.14.24.13.24.11.24.1.24.09.24.07.24,0,.24,0,.24,0,.24V66l0-.24,0-.24,0-.24L47.56,65l-.09-.24-.1-.24-.11-.24-.13-.24L47,63.84l-.16-.24-.17-.24-.18-.24h0V64.3l0,.07,0,.07,0,.07,0,.06-.05.07,0,.06-.06.06-.07.06-.07.06-.08.06-.08,0-.09.05-.09,0-.1,0-.09,0-.1,0-.1,0-.11,0-.1,0-.11,0-.11,0-.12,0-.11,0-.12,0-.12,0-.12,0-.13,0V63.09l.13,0,.12,0,.12,0,.12,0,.11,0,.12,0,.11,0,.11,0,.1,0,.11,0,.1,0,.1,0,.09,0,.1-.05.09,0,.09,0,0,0-.07-.07-.23-.24L45.37,62l-.26-.22-.27-.23-.28-.22-.29-.22-.3-.22-.32-.21-.06-.05v1.67l0,.07,0,.07,0,.07,0,.07,0,.07,0,0,0,0,0,0,0,.05,0,0,0,0,0,0,0,0-.05,0,0,0,0,0-.05,0-.06,0-.05,0-.06,0-.05,0V60.78l.05,0,.06,0,.05,0,.06,0,.05,0,0,0,0,0,.05,0,0,0,0,0,0,0L43,60.21l-.34-.2-.35-.2-.36-.2-.37-.18-.37-.19-.38-.17-.34-.15V61l0,.07,0,.07v0l0,0v0l0,0v0l0,0,0,0,0,0V58.9l0,0v0L40,58.74l-.39-.16-.4-.15-.4-.14-.41-.14L38,58l-.42-.13-.42-.12-.42-.11-.43-.1-.09,0v2.62l0,.06,0,.06,0,.06,0,.06,0,.06,0,.06,0,0V58.11l0-.06,0-.06,0-.06,0-.06,0-.06,0-.06,0-.06v-.15l-.33-.08-.43-.09L35,57.29l-.43-.08-.44-.07-.44-.06L33.29,57l-.45,0-.44,0h0v2.45l0,.1V56.93l-.43,0-.44,0-.45,0H29.29l-.42,0-.41,0-.31,0v.28l0,.08v.08l0,.08,0,.08,0,.08,0,.08,0,.08,0,.08,0,.08,0,.08.05.07,0,.08.05.08,0,.07.06.08.05.08.06.07.06.07.06.08.07.07.06.07.07.07.07.08.07.07.07.07.08.06.07.07.08.07h0v2.46h0l-.08-.07-.07-.07-.08-.07-.07-.07-.07-.07-.07-.07-.07-.07L29,61.24l-.07-.07-.06-.08L28.82,61l-.06-.08-.05-.07-.06-.08,0-.07-.05-.08,0-.08-.05-.08,0-.07,0-.08,0-.08,0-.08,0-.08,0-.08,0-.08,0-.08v-.08l0-.08V56.94H28l-.41,0-.4,0-.41.06-.4.07-.4.07-.4.08-.4.09-.39.1-.39.11-.39.11-.39.11-.38.13-.38.13-.38.14-.37.14-.37.15-.37.16-.36.16-.36.16-.36.18-.35.18-.35.18-.35.19-.34.19-.34.2-.34.2-.33.21-.32.22-.32.21-.38.19-.37.19-.36.19-.35.19-.35.2-.33.19-.33.2-.32.21-.3.2-.3.21-.29.2-.28.21-.27.22-.26.21-.25.22-.24.21-.22.22-.22.22-.2.23-.19.22-.18.23-.17.22-.16.23-.14.23-.13.23-.12.24,0,.09v0l0,.07,0,.07,0,.06,0,.07.06.06.07,0,.07.06.08,0,.09.05.09,0,.1,0,.1,0,.1,0,.11,0,.12,0,.07,0,.07,0h.08l.07,0,.08,0h2.18v2.1h0l.12,0,.11,0h1.33l.1,0H16l.09,0,.1,0,.1,0,.1,0,.09,0,.1,0v2.44l.09,0,.11,0,.12,0h.84l.12,0,.12,0,.12,0h.16l.05,0h.1l0,0h.05V73l.09.09.11.09.13.09.14.07.17.07.12,0,.11,0,.12,0,.12,0,.11,0h.61l.11,0,.12,0,.12,0,.12,0,.11,0,.11,0,.08,0,.07,0,.07,0,.07,0,.07,0,.06,0,.07,0,.06,0,.07,0,.06,0,.06,0,.06,0,.05,0L22,73,22,73l.06,0v.68l0,.08,0,.08,0,.08,0,.08,0,.08,0,.07.05.08.05.07.05.07.06.07.07.06.07.07.07.06.09.06.08.05.1,0,.1,0,.1,0,.11,0,.12,0,.12,0,.13,0h.76l.12,0,.11,0,.11,0,.11,0,.1,0,.1,0,.1,0,.09,0,.09,0,.09,0,.08-.06.08,0,.07-.06.07-.06.07-.06.06-.06,0-.07.06-.06L26,74l.05-.06,0-.07,0-.07,0-.07,0-.07,0-.08,0-.07v-.07l0,0v.08l0,0v0l0,0,0,.07,0,.06,0,.07.05.07.06.07.06.06.06.07.07.07.07.07.08.07.07.06.09.07.08.06.09.06.09.06.1,0,.1.06.1,0,.11,0,.1,0,.11,0,.12,0,.11,0,.12,0,.12,0h.13l.12,0h.53l.14,0,.12,0,.12,0,.1,0,.11,0,.1-.05.09,0,.08,0,.05,0-.06,0-.13,0-.14,0-.14,0V72.11l.14,0,.14,0,.13,0,.14.05.13,0,.14,0,.13,0,.13,0,.14,0,.13,0,.13,0,.13,0,.13,0,.13,0,.13,0,.12,0,.13,0,.12,0,.13,0,.12,0,.12,0,.13,0,.12,0,.12,0,.11,0L33,73h.12l.11,0H34.8l.07,0h.07v1.28l.27-.18.32-.23.32-.22.33-.23.33-.23.34-.24.34-.23.35-.23.22-.15,0,0-.18-.13L37.36,72l-.21-.15-.22-.16-.23-.16-.24-.17-.25-.18L36,71l-.27-.19-.27-.19-.28-.2-.29-.2-.29-.2-.3-.21-.3-.21-.31-.22-.31-.22L33,68.93l-.31-.22-.31-.22-.31-.22-.3-.23-.31-.22-.3-.23L31,67.43l-.2-.16-.2-.16-.2-.16-.19-.17L30,66.62l-.18-.16-.18-.16-.18-.16L29.27,66l-.17-.16-.16-.15-.16-.15-.16-.15-.15-.15-.15-.15-.14-.14L28,64.79l-.14-.13-.14-.13-.13-.13-.13-.12-.13-.12-.13-.11-.13-.11-.12-.1-.12-.1-.12-.09-.12-.08-.12-.08-.11-.07-.12-.06-.3-.15-.29-.13L25.4,63l-.27-.09-.26-.08-.25-.06-.24-.05-.23,0-.22,0h-.6l-.18,0-.17,0-.17,0-.15,0-.14,0-.13.05-.13,0-.11.05L22,63l-.09.05-.09.06-.08.05-.06,0-.06,0-.05.05,0,0,0,0,0,0v0h0l0,0-.05,0-.06,0-.07,0-.08,0-.09,0-.09,0-.09.05-.1.06-.09.06-.1.07-.09.07-.08.07-.08.09-.07.09-.05.09-.05.1,0,.1,0,.11V62.11l0-.11,0-.1.05-.1.05-.09.07-.09.08-.08.08-.08.09-.07.1-.07.09-.06.1,0,.09-.05.09,0,.09,0,.08,0,.07,0,.06,0,.05,0h.09l0,0,0,0,0,0,.05,0,.06,0,.06,0,.08-.05.09-.06.09-.05.11-.06.11,0,.13,0,.13-.05.14,0,.15,0,.17,0,.17,0,.18,0h.6l.22,0,.23,0,.24.05.25.06.26.08.27.09.28.11.29.13.3.15.12.07.11.07.12.07.12.09.12.08.12.1.12.1.13.11.13.11.13.12.13.12.13.13.14.13.14.13.15.14.14.14.15.15.15.15.16.15.16.15.16.16.17.15.17.16.18.16.18.16.18.16.19.17.19.16.2.16.2.16L31,65l.22.16.3.23.31.22.3.23.31.22.31.23.31.22.31.22.31.21.31.22.3.21.3.21.29.2.29.21.28.19.27.19.27.19.26.18.25.18.24.17.23.17.22.15.21.15.19.15.18.13.17.13.15.12.13.11.12.1.1.09.08.08.07.08,0,.06v1.19l0,0,.38-.23.39-.23.39-.22.4-.22.4-.22.4-.21.41-.2.4-.2.41-.2.07,0V68.71l0,0,0,0,0,0,0,0v0l0,0V69.7l.18-.09.4-.19.4-.19.39-.18.38-.19.39-.18.37-.19.36-.18.36-.18L46,68l-.1,0-.2,0-.21,0-.2,0h-.84l-.22,0L44,68l-.21,0-.22,0-.21,0-.21,0-.21,0-.21-.06-.21-.05-.2-.06-.21-.06-.2-.06-.19-.07-.19-.07-.19-.07-.19-.08L41,67.2l-.17-.08-.17-.07L40.45,67l-.16-.08-.15-.08L40,66.73l-.14-.07-.07,0,0-.05-.05,0,0,0,0-.06v-1h-.06l-.07,0h-.19l-.09,0-.08,0-.07,0-.07,0-.06,0,0,0,0-.05,0-.06,0-.05v-.7H37.39l-.09,0-.08,0-.08,0-.07,0-.07,0-.07,0,0,0,0,0,0,0,0-.05V63h0l-.08,0-.09,0h-.08l-.09,0-.08,0h-.08l-.09,0h-.08l-.08,0h-.25l-.08,0H34.46l0,0h0l0,0,0,0-.06,0,0-.05,0,0,0-.05,0,0v-.77l-.05,0-.06,0-.06,0-.06,0-.07,0-.06,0-.06,0-.07,0-.06,0-.06,0-.06,0-.07,0-.06,0-.06,0-.06,0-.07,0-.06,0-.06,0-.06,0-.06,0-.06,0-.07,0-.06,0-.06,0h-.23V60.41h.23l.06,0,.06,0,.07,0,.06,0,.06,0,.06,0,.06,0,.06,0,.07,0,.06,0,.06,0,.06,0,.07,0,.06,0,.06,0,.06,0,.07,0,.06,0,.06,0,.07,0,.06,0,.06,0,.06,0,.06,0,.06,0,.07,0,.06,0,.06,0,.06,0,.06,0,.05,0,.06,0v1.4h1.19l.08,0H36l.08,0h.08l.09,0h.08l.08,0h.09l.08,0,.09,0,.08,0h.08l.09,0,.08,0,.09,0,.08,0,.08,0,.09,0,.08,0,.08,0,.09,0V61.9h1.93l.08,0h.22V63h1.77V65l.09,0,.19.07.2.06.21.06.2.06.21.06.21,0,.21,0,.21,0,.21,0,.22,0,.21,0,.21,0,.22,0h.84l.2,0,.21,0,.2,0,.19,0,.12,0,.11,0,.11,0,.1,0,.11,0,.09,0,.09-.05.09,0,.08,0,.07,0L47.1,65l.06-.06.05-.07,0-.06,0-.07,0-.08,0-.08v2.47l0,.08ZM25.08,77.19h.24l.46,0h.9l.45,0,.41,0-.08-.05-.1,0L27.27,77,27.18,77l-.08-.07L27,76.83l-.07-.07-.08-.06-.07-.07-.07-.07-.06-.07-.06-.07-.06-.06-.05-.07,0-.07,0-.07,0-.06,0,0v0l0,0v-.07l0,0V76l0,.07,0,.07,0,.08,0,.07,0,.07,0,.06-.05.07,0,.07-.06.06,0,.07-.06.06-.07.06-.07.06-.07.06-.08,0-.08.06-.09,0-.09,0-.09,0-.07,0Zm5.55-.61h.05l.34-.13.34-.14.33-.14L32,76l.33-.17.32-.17.32-.18.1-.06h-.2l-.11,0-.12,0-.12,0-.13,0-.12,0-.12,0-.13,0-.12,0-.13,0-.12,0-.13,0-.13,0-.13,0-.13,0L31,75l-.13,0-.14,0-.05,0v1.57l0,.07,0,0ZM30.22,62h.19l.09,0,.08,0,.08,0,.07,0,.06,0,.06-.05.06,0,.06-.06.07-.06.06,0,.06-.06.06-.07.06-.06,0-.05v.87l0,.07,0,.08v.07l0,.07V60l0-.07v-.07l0-.08,0-.07v-.88l-.06.06-.06.07-.06.06-.06.06-.06.06-.07.05-.06.06-.06,0-.06,0-.06,0-.07,0-.08,0-.08,0-.09,0H30.1V62h.12Zm-11.95,5.6.12.13.17.19.18.19.16.16,0,0-.1.08-.1.07v2.47l.1-.07.1-.08.1-.08.1-.08.1-.08.09-.08.09-.08.08-.08.09-.08.08-.08.08-.07.07-.08.07-.08.07-.08.06-.07.06-.08,0,0,0,0,0-.06v-.19l.14.12.24.2.25.19,0,0h0l0,.1-.06.09v2.47l.06-.09,0-.1.05-.1,0-.1.05-.1,0-.1,0-.1,0-.1,0-.1,0-.1,0-.09,0-.1,0-.1v-1.1l.09.06.27.19.27.19.28.19.29.19.29.19.3.19.3.18,0,0v2.08l0-.09,0-.09,0-.08V71.6l.19.11.31.18.09,0L24,72l.09.05.08,0,.08,0,.09.05.08,0,.09,0,.08,0,.08,0,.09,0,.08,0,.09,0,.08,0,.09,0,.08,0,.09.05.08,0,.09,0,.08,0,.09,0,.09.05.08,0,.09,0L26,73l.09,0,.08,0,.09,0,.08,0,.09,0,.09,0,.08,0V70.84l-.08,0-.09,0-.09,0-.08,0-.09,0-.08,0-.09,0-.08,0-.09,0-.08,0-.09-.05-.09,0-.08,0-.09,0-.08,0-.09,0-.08,0-.09,0L25,70l-.09,0-.08,0-.09,0-.08,0-.08,0-.09,0-.08-.05-.09,0-.08,0-.08-.05-.09,0-.08,0-.09,0-.31-.18-.31-.18-.3-.19-.3-.19-.29-.19-.29-.19-.28-.19-.27-.19-.27-.19L21,67.54l-.26-.19-.25-.19-.24-.2L20,66.77l-.23-.19-.22-.19-.21-.19-.2-.19-.2-.19-.19-.19-.18-.19-.17-.19-.17-.18-.15-.19-.15-.18-.14-.18-.13-.18-.12-.18L17.42,64l-.11-.18-.09-.17-.08-.17-.07-.16L17,63.14,17,63l0-.15,0-.15,0-.15V65l0,.15,0,.15,0,.15.05.15.06.16.07.16.08.17.09.17.11.18.07.11h0l-.05,0-.05,0-.05,0,0,0v2.47l0,0,.05,0,.05,0,.05,0,.05,0,0,0,.05,0,0,0,.05,0,.05,0,0,0,.05,0,0,0,0,0,0,0,0,0,.07,0,.06,0,.05,0,0,0,0,0,0-.06v-.91Z"/><path class="cls-11" d="M39.4,71.28c-4.2,2.42-6.71,5.29-10.95,5.81A23.78,23.78,0,0,1,14.38,74c-4.1-2.37-6.32-5.48-6-8.47.33-2.82,3.38-5.45,7.83-7.61a25.17,25.17,0,0,1,13.17-4.52,28.08,28.08,0,0,1,14.68,3.45c4.1,2.36,6.35,5.43,5.37,8.12-.9,2.44-5.87,3.9-10.06,6.32Zm4.76-8.19.35,0c1.22.13,3,.66,2.79,1.53-.09.4-.62.67-1.24.82C44,66,41.3,65,39.86,64.19c-.19-.11-.27-.25-.22-.4a.58.58,0,0,1,.45-.32,14.78,14.78,0,0,1,1.53-.29,18.08,18.08,0,0,1-2.31-.3.64.64,0,0,1-.49-.31.32.32,0,0,1,.17-.4,8.79,8.79,0,0,1,.86-.49,17.36,17.36,0,0,1-2.27.22,1.09,1.09,0,0,1-.65-.18.29.29,0,0,1-.1-.41,4.37,4.37,0,0,1,.79-1,17.85,17.85,0,0,1-2.62.49,1.19,1.19,0,0,1-.69-.13c-.18-.11-.25-.25-.19-.4a4,4,0,0,1,.47-.89,11.79,11.79,0,0,1-2,.94.86.86,0,0,1-.23.06,36.24,36.24,0,0,1,3.79,1.9c3.39,2,5.88,4.13,6.23,5.68a.9.9,0,0,1-.13.72c2.53-1.21,4.72-2.29,5.26-3.77.9-2.45-1.16-5.25-4.89-7.4A25.45,25.45,0,0,0,29.29,54.4a22.88,22.88,0,0,0-12,4.11c-4,2-6.83,4.37-7.13,6.93-.32,2.73,1.7,5.56,5.43,7.72A21.68,21.68,0,0,0,28.41,76c2.57-.31,4.44-1.57,6.53-3a4.48,4.48,0,0,1-1.25.07,17,17,0,0,1-4-.91c.77.64,1.25,1.39.93,2.09a1.54,1.54,0,0,1-1.23.82,3.06,3.06,0,0,1-3-1.4l-.11-.19a1.71,1.71,0,0,1-.75,1,2.55,2.55,0,0,1-1.72.44,1.68,1.68,0,0,1-1.69-2h0a3.46,3.46,0,0,1-1,.49,3,3,0,0,1-1.88,0,1.06,1.06,0,0,1-.65-1.66l-.41.1a3,3,0,0,1-1.87-.1c-1.18-.56-.51-1.64.23-2.23l.12-.09a5.35,5.35,0,0,1-1.61.22,2.38,2.38,0,0,1-1.66-.51c-.57-.59.09-1.23.9-1.67a6.38,6.38,0,0,1-2.55-.1c-.61-.17-1.1-.45-1.16-.86-.12-.87,1.71-1.34,3-1.44a12.62,12.62,0,0,1,4.37.5.54.54,0,0,1,.42.34c0,.15-.06.28-.26.38a7.59,7.59,0,0,1-.75.34,16.08,16.08,0,0,1,2.08-.08.87.87,0,0,1,.62.21.27.27,0,0,1,0,.41,6.31,6.31,0,0,1-1.34,1.25c.46-.15,1-.28,1.46-.39a1.21,1.21,0,0,1,.71.06c.22.09.33.23.31.38a4,4,0,0,1-.5,1.56,12.13,12.13,0,0,1,1.57-.58,1.18,1.18,0,0,1,.72,0c.23.07.37.19.39.34a3.38,3.38,0,0,1-.07,1.33,8.27,8.27,0,0,1,.73-.56,1.1,1.1,0,0,1,.67-.15.89.89,0,0,1,.59.24A4.83,4.83,0,0,1,26.06,72a3.14,3.14,0,0,1,.3-.91.53.53,0,0,1,.21-.21c-.91-.43-1.83-.9-2.71-1.42-3.39-2-5.87-4.14-6.72-6s.15-3,2.14-3.79c1.42-1.15,3.61-1.71,6.57-1.24a23.76,23.76,0,0,1,3.77.93l0,0a3.42,3.42,0,0,1-1.43-2.44A2,2,0,0,1,30.23,55a2.32,2.32,0,0,1,1.62.55A1.49,1.49,0,0,1,32.37,57a3.34,3.34,0,0,1,2.75-.74,1.32,1.32,0,0,1,1.09.88,1.19,1.19,0,0,1-.17,1l.15-.09c.91-.5,2.68-1,3.79-.42a.78.78,0,0,1,.43,1,1.19,1.19,0,0,1-.13.25,3.85,3.85,0,0,1,2.95.15.73.73,0,0,1,.2,1.08,2.14,2.14,0,0,1-.71.65h0c1.22-.18,3.22-.14,3.67.7.2.39-.07.76-.52,1a4.47,4.47,0,0,1-1.72.57ZM31.45,60a3.09,3.09,0,0,1-.11-1.17,5.38,5.38,0,0,1-.49.47.93.93,0,0,1-.63.2H30.1c.45.15.9.32,1.35.5Zm7.14,10.55c-.37-.6-4.19-3-7.41-5.45-2.29-1.7-3.7-3.6-4.91-4.23C23,59.2,21.5,61,21.5,61s-3,.87-.09,2.75c1.08.7,4.37,1.52,7.32,2.83,4.17,1.86,8.4,4.07,9.43,4.29l.22-.13Z"/><path class="cls-12" d="M30.29,59.26h0l0,0,0,0,0,0,.06-.05.06-.06.06-.06.07-.08.08-.08.08-.1.09-.09.08-.11.09-.11.08-.11.09-.12.08-.13.08-.12.07-.13.06-.14.06-.13.05-.14,0-.13,0-.14,0-.14v-.49l0,.14,0,.13,0,.14-.05.13-.06.14-.06.13-.07.13-.08.13-.08.12-.09.12-.08.12-.09.11-.08.1-.09.1-.08.09-.08.09-.07.07-.06.07-.06.06-.06,0,0,0,0,0h0l-.09-.08-.08-.07L30,58.54,30,58.47l-.07-.07-.07-.08-.07-.07-.07-.07-.06-.08L29.57,58,29.51,58l-.05-.07-.05-.07,0-.07-.05-.07,0-.07,0-.07,0-.07,0-.07,0-.07,0-.06,0-.07,0-.06,0-.07L29,57v.49l0,.07,0,.06,0,.07,0,.06,0,.07,0,.07,0,.06,0,.07,0,.07,0,.07.05.07,0,.07.05.07.05.07.06.08.05.07.06.07.07.07.07.08.07.07L30,59,30,59l.08.07.08.08.09.07Zm1.87-.44v1l0,.08,0,.09,0,.09,0,.09h0l.05,0,.06,0,.08,0,.1,0,.11,0,.12,0,.13-.06.14-.07.14-.07.16-.07.15-.08.16-.09.16-.08.17-.1.16-.1.15-.1.16-.1.15-.11.14-.11.13-.12.13-.12.11-.12.1-.12.09-.13.07-.12,0-.13,0-.13,0-.13v-.5l0,.14,0,.13,0,.12-.07.13-.09.13-.1.12-.11.12-.13.12-.13.11-.14.11-.15.11-.16.11-.15.1-.16.1-.17.09-.16.09-.16.09-.15.08-.16.07-.14.07-.14.06-.13.06-.12,0-.11.05-.1,0-.08,0-.06,0-.05,0h0l0-.09,0-.08,0-.09,0-.09v-.49Zm2.77,1.26h.29l.11,0,.13,0,.15,0,.16,0,.17,0,.18,0,.19,0,.19,0,.21,0,.2,0,.22-.06.21,0,.21-.06.21-.07.21-.06.21-.08.2-.07.19-.09.18-.08.17-.09.17-.1.15-.1.13-.11.12-.11.1-.12.09-.12.06-.13,0-.08v.49l0,.08-.06.13-.09.12-.1.12-.12.11-.13.11-.15.1-.17.1-.17.09-.18.09-.19.08-.2.08-.21.07-.21.07-.21.06-.21.06-.21.06-.22,0-.2.05-.21,0-.19,0-.19,0-.18,0-.17,0-.16,0-.15,0h-.13l-.11,0h-.29v-.49Zm2.69,1.06v.5h.53l.15,0h.17l.17,0h.19l.19,0,.21,0,.21,0,.22,0,.22,0,.22,0,.22,0,.23,0,.22-.05.22-.06.21-.06.21-.07.2-.07.2-.08L42,60.8l.17-.09.15-.1.15-.1.12-.11.11-.12.1-.12,0-.08,0-.08,0-.08v-.49l0,.08,0,.07,0,.09-.1.12-.11.11-.12.11-.15.11-.15.09L42,60.3l-.18.09-.2.07-.2.08-.21.06-.21.07-.22,0-.22.06-.23,0-.22,0-.22,0-.22,0-.22,0-.21,0L39,61l-.19,0-.19,0-.17,0h-.85Zm2,1h.18l.1,0,.11,0,.13,0,.15,0,.16,0,.17,0,.18,0,.2,0,.21,0,.21,0,.22,0,.23,0h1.19l.24,0h.23l.24,0,.23,0,.22,0,.22,0,.2-.06.2-.06.19-.07.18-.09.16-.09.1-.06.08-.07.07-.06.06-.07,0-.06,0-.06V62l0,.06,0,.07-.06.06-.07.06-.08.07-.1.06-.16.1-.18.08-.19.07-.2.07-.2.05-.22,0-.22,0-.23,0-.24,0-.23,0H41.65l-.22,0-.21,0-.21,0-.2,0-.18,0-.17,0-.16,0-.15,0-.13,0-.11,0h-.1l-.07,0h-.11v-.49Zm.83,1.41v.5h0l0,0,0,0,.06,0,.07,0,.09,0,.11.05.11.06.13.06.14.06.15.07.16.07.17.07.18.07.19.07.19.07.2.06.21.07.21.06.22.06.22.06.23,0,.23.05.22,0,.23,0,.23,0h.69l.23,0,.22,0,.22,0,.13,0,.12,0,.11-.05.1,0,.08,0,.07,0,.06,0,0-.06,0,0,0,0v-.5l0,.06,0,.05,0,0-.06,0-.07,0-.08,0-.1,0-.11,0-.12,0-.13,0-.22,0-.22,0-.23,0h-.69l-.23,0-.23,0-.22,0-.23,0-.23,0-.22,0-.22-.06-.21-.06-.21-.07-.2-.07-.19-.07-.19-.07-.18-.07-.17-.07L41.4,64,41.25,64l-.14-.06L41,63.83l-.11-.06-.11-.05-.09,0-.07,0-.06,0,0,0h0ZM17.58,65.67v.49h0l0,0-.06,0-.08,0-.09,0-.11,0-.12,0-.14,0-.14.06-.16.06-.17.07-.17.06-.19.06-.19.07-.21.06-.2.06-.22.06-.22,0-.22.06-.23,0-.23,0-.23,0-.23,0-.23,0H13l-.23,0-.22,0-.22,0-.21,0-.14,0-.11,0-.11,0-.09,0-.08,0-.06,0-.06-.05,0-.06,0-.05,0-.06v-.49l0,0,0,.06,0,0,.06.05.06,0,.08,0,.09,0,.11,0,.11,0,.14,0,.21,0,.22,0,.22,0h.69l.23,0,.23,0,.23,0,.23,0,.23,0,.23-.05.22,0,.22,0,.22-.06.2-.06.21-.07.19-.06.19-.06.17-.07.17-.06.16-.06L16.9,66l.14-.06.12,0,.11,0,.09,0,.08,0,.06,0,0,0,0,0Zm1.8,1h0l0,0,0,0,0,0-.05,0-.05.06-.06.07-.08.08-.08.08-.09.09-.1.09-.11.1-.12.1-.12.1-.13.1-.14.11-.15.1-.15.11-.16.1-.17.1-.17.1-.18.09L17,68.5l-.19.09-.2.07-.2.07-.21,0-.21,0-.22,0-.22,0H14.8l-.13,0-.11,0-.11,0-.09,0-.09,0-.07,0-.07,0-.05,0,0,0,0,0,0-.06V69l0,0,0,.06,0,0,.05,0,.07,0,.07,0,.09,0,.09,0,.11,0,.11,0h.13l.14,0h.38l.23,0,.22,0,.22,0,.21,0,.21-.06.2-.07.2-.07L17,69l.19-.09.18-.09.17-.1.17-.1.16-.1.15-.1.15-.11.14-.1.13-.11.12-.1.12-.1.11-.1.1-.09.09-.09.08-.08.08-.07.06-.07.05-.06.05,0,0-.05,0,0h0V66.7Zm1.07,1.45v.5h0v.22l0,.08,0,.08,0,.1,0,.1,0,.11,0,.11,0,.12-.05.12-.06.13-.06.12-.06.13-.08.13-.08.13-.09.13-.1.13-.1.12-.12.12-.12.12-.14.11-.14.11-.16.1-.16.09-.18.08-.19.07-.2.07-.21,0-.14,0-.14,0h-.57l-.09,0-.09,0-.08,0-.07,0-.07,0-.05,0-.05,0,0-.06,0-.06,0-.06v-.49l0,.06,0,.06,0,.06.05,0,.05.05.07,0,.07,0,.08,0,.09,0,.09,0,.1,0h.47l.14,0,.14,0,.21-.05.2-.07.19-.07.18-.09.16-.09.16-.1.14-.1.14-.11.12-.12.12-.12.1-.13.1-.12.09-.13.08-.13.08-.13.06-.13.06-.13.06-.12.05-.12,0-.12,0-.12,0-.1,0-.1,0-.1,0-.09,0-.07v-.23Zm2.2,1.71v.51l0,.12,0,.12,0,.13,0,.13,0,.14,0,.13-.05.13-.07.14-.07.13-.07.13-.09.13-.1.12-.11.13-.12.11-.13.11-.15.1-.15.1-.17.09-.19.07-.19.07-.14,0-.13,0-.12,0-.12,0H20l-.1,0-.09,0-.09,0-.07,0-.08,0-.06,0-.06,0-.06,0,0-.06,0-.06,0-.07,0-.07,0-.07v.49l0,.07,0,.07,0,.07,0,.06,0,.06.06,0,.06,0,.06,0,.08,0,.07,0,.09,0,.09,0h.55l.12,0,.13,0,.14,0,.19-.07.19-.08.17-.09.15-.09.15-.11.13-.11.12-.11.11-.12.1-.13.09-.12.07-.14.07-.13.07-.13.05-.14,0-.13,0-.13,0-.14,0-.12,0-.13,0-.12v-1Zm3,2.91v.63l0,.13,0,.14-.05.13-.06.12-.09.13-.1.11-.12.12-.13.1-.1.07-.1,0-.11,0-.1,0-.1,0-.1,0h-.49l-.09,0-.09,0-.08,0-.09,0-.08,0-.07,0-.07,0-.07-.06-.06-.07-.06-.07-.05-.07,0-.08L23,74l0-.08,0-.1,0-.09,0-.1v-.5l0,.1,0,.1,0,.09,0,.09,0,.08,0,.08.05.08.06.07.06.06.07.06.07.06.07.05.08,0,.09,0,.08,0,.09,0h.09l.1,0h.29l.1,0,.1,0,.1,0,.1,0,.11,0,.1-.06.1-.06.13-.11.12-.11.1-.12.09-.12.06-.13.05-.13,0-.13,0-.13v-.14Zm4.4.61V74l0,.13-.05.13,0,.08-.05.08-.06.06-.06.07-.07,0-.07,0-.08,0-.08,0-.09,0-.09,0h-.5l-.1,0-.1,0-.11,0-.1,0-.11,0-.1,0L28,74.5l-.1-.06-.1-.06-.09-.07-.1-.08-.09-.08-.08-.09L27.37,74l-.08-.1-.07-.1-.07-.11,0,0,0-.06,0-.06,0-.06,0-.06,0-.06,0-.06,0-.07v-.06l0-.07v-.49l0,.06v.07l0,.06,0,.07,0,.06,0,.06,0,.06,0,0,0,.06,0,.06.07.1.07.11.08.09.08.1.08.08.09.09.1.07.09.07.1.07L28,74l.11.06.1.05.11,0,.1,0,.11,0,.1,0h.1l.11,0h.39l.09,0,.09,0,.08,0,.08,0,.07,0,.07-.06.06-.06.06-.07.05-.07,0-.09.05-.13,0-.13Z"/><path class="cls-13" d="M30.29,58.77s2.36-2.08,1-3.28A1.39,1.39,0,0,0,29,56.58a3,3,0,0,0,1.3,2.19ZM27.16,70.85s3.4,1.54,2.77,2.92c-.42.93-2.1.56-2.78-.6a2.4,2.4,0,0,1,0-2.32Zm-2.53-.28s1.95,2.22.36,3.32a1.27,1.27,0,0,1-2.08-1.23,3.64,3.64,0,0,1,1.72-2.09Zm-2-1a6.57,6.57,0,0,0-2.95,1.56c-1,1.08-.35,2,1.11,1.59,2.19-.67,1.84-3.15,1.84-3.15Zm-2.18-1.4a3.4,3.4,0,0,1-2.52,3c-1.54.34-2-.66-.75-1.66a7.91,7.91,0,0,1,3.27-1.34ZM19.38,66.7a11.2,11.2,0,0,0-3.9.51c-1.81.66-2,1.68-.39,1.71a6.17,6.17,0,0,0,4.29-2.22Zm-1.8-1s-3.25,1.63-5.49,1c-1.49-.41-.55-1.3,1.56-1.46a11.38,11.38,0,0,1,3.93.45Zm22.88-2.11s3.09,1.74,5.39,1.2c1.52-.37.68-1.28-1.42-1.51a11.47,11.47,0,0,0-4,.31Zm-.83-1.41s4.07.82,5.75-.24c1.12-.7-.32-1.32-2.39-1a8.56,8.56,0,0,0-3.36,1.26Zm-2-1a5,5,0,0,1,2.28-1.9c1.72-.73,3.46-.47,2.89.43-.87,1.34-5.17,1.47-5.17,1.47Zm-2.69-1.06s4.25-.44,4.81-1.84c.37-.93-1.41-1.06-3-.21a4,4,0,0,0-1.86,2Zm-2.64-.42a2.45,2.45,0,0,1,.37-2.3c.87-1.12,2.61-1.39,2.87-.45C35.92,58.33,32.29,59.66,32.29,59.66Z"/><path class="cls-10" d="M42.44,54l0,.07h0l-.29-.19-.27-.19-.25-.19-.24-.2-.22-.2-.2-.2-.19-.21-.16-.21-.14-.22L40.38,52l-.09-.22-.09-.26-.06-.25,0-.26,0-.26v2.47l0,.26,0,.26.06.25.09.26.09.22.12.22.14.22.16.21.19.21.2.2.22.2.24.19.25.2.27.19.29.18.3.19.31.19.33.18.33.18.35.18.36.19.36.18.38.18.38.19.38.18.4.19.39.19.4.19.4.19.41.2.4.2.41.21.4.21.4.21.4.22.4.23.39.22.37.23.37.24.37.23.35.23.35.24.34.23.34.23.33.23.33.23.32.23.33.22.31.22.32.22.32.21.31.2.32.21.31.19.32.19.32.18.32.17.33.17.33.15.33.15.34.14.35.12.35.12.35.11.37.09.37.08.39.07.39.06.44,0,.44,0,.44,0h1.81l.45,0,.46,0,.46,0,.46-.06.45-.06.46-.07.46-.08.46-.09.45-.1.46-.11.45-.12.45-.12.44-.13.45-.14.44-.15.44-.16.43-.16.43-.17.42-.18.42-.19.41-.19.41-.2.4-.2.4-.22.38-.22.38-.22.37-.23.36-.23.34-.24.34-.24.32-.24.31-.25.3-.25.28-.25.28-.26.26-.26.25-.26.23-.26.23-.27.21-.27.2-.27L80.2,59l.17-.27.16-.28.15-.27.13-.28.12-.28.1-.28.09-.28.08-.28.06-.29,0-.28,0-.28,0-.28V53.2l0,.28,0,.28,0,.29-.06.28-.08.28-.09.28-.1.28-.12.28-.13.28-.15.27-.16.28-.17.27-.18.28-.2.27-.21.26-.23.27-.23.26-.25.27-.26.26-.28.25-.28.25-.3.25-.31.25-.32.24-.34.24-.34.24-.36.23-.37.23-.38.23L75,61l-.4.22-.4.2-.41.2-.41.19-.42.19-.42.18-.43.17-.43.16-.44.16-.44.15-.45.14-.44.13-.45.12-.45.12-.46.11-.45.1-.46.09-.45.08,0,0,.07-.07.06-.06.06-.07.05-.08,0-.07,0-.08,0-.07,0-.08,0-.08,0-.08,0-.08v-.66h0l.05,0,.06,0,.06,0,.05,0,.06,0,.07,0,.06,0,.06,0,.07,0,.06,0,.07,0,.07,0,.07,0,.08,0,.07,0,.11,0,.12,0,.11,0,.12,0,.12,0,.12,0h.72l.11,0,.12,0,.12,0,.11,0,.17-.07.15-.08.13-.08.1-.09.09-.1.07-.1.06-.11,0-.11,0-.11v-.76h.06l.06,0h.1l.12,0,.12,0H72l.12,0h.61l.11,0h.12l.12,0,.11,0,.11,0,.11,0,.1,0,.11,0,.09-.06.09-.06.07-.06.07-.06,0-.07.05-.07,0-.07,0-.07,0-.07,0-.07V59h1l.12,0h.12l.11,0,.12,0,.11,0,.1,0,.11,0,.09,0,.1,0,.08-.05.08-.06.08-.06.06-.06.1-.11.06-.11,0-.12,0-.11V56.88h1l.07,0h.08l.07,0,.08,0,.07,0h.08l.11,0,.11,0,.1,0,.1,0,.1,0,.09,0,.09-.05.08,0,.07-.06.07-.06.06-.06,0-.06,0-.07,0-.06,0-.08V53.45l0,.11.09.24.08.23.06.24,0,.24,0,.24,0,.26V52.54l0-.26,0-.24,0-.24-.06-.24-.08-.23-.09-.24-.11-.23L79,50.62l-.13-.23-.14-.23-.16-.23-.16-.22-.18-.23-.2-.22-.2-.23-.22-.22-.22-.22-.24-.21-.25-.22L76.68,48l-.27-.22-.28-.21-.29-.2-.29-.21-.31-.2-.32-.21-.33-.2-.33-.19-.35-.2-.35-.19-.36-.19-.37-.19-.37-.19-.33-.21-.32-.22-.33-.21-.34-.2-.34-.2-.34-.19-.34-.19-.35-.18-.36-.18-.35-.18-.37-.16-.36-.16L68,42.91l-.37-.15-.37-.14-.38-.14-.38-.13-.38-.12-.39-.12L65.31,42l-.39-.11-.4-.1-.39-.09-.4-.08-.4-.07-.41-.07-.4-.06-.41-.05-.41,0-.41,0-.42,0-.41,0-.45,0H58.68l-.45,0-.44,0-.45,0-.44,0-.44,0-.45.06-.44.06-.43.07-.44.08-.44.08-.43.09-.43.1L53,42l-.43.11-.42.12-.41.13-.42.13-.4.14-.41.14-.4.15-.39.16-.39.16-.39.17-.37.17-.38.19-.36.18-.36.2-.36.2-.34.2-.34.21-.32.21-.32.21-.3.22-.29.22-.28.22-.27.23-.26.23-.25.22-.23.24-.22.23-.21.23-.2.24-.18.24-.17.24-.16.24-.14.24-.13.24-.11.24-.1.24-.08.24-.07.24-.06.24,0,.24,0,.24v2.47l0-.24,0-.24.06-.24.07-.24.08-.24.1-.24.11-.25.13-.24.14-.24.16-.24.17-.23.18-.24,0,0v1.2l0,.07,0,.07,0,.07,0,.06.05.07,0,.06.07.06.06.06.08.06.07.05.09.06.08.05.09,0,.1,0,.09,0,.1,0,.1,0,.11,0,.11,0,.1,0,.12,0,.11,0,.12,0,.11,0,.12,0,.12,0,.13,0V49.93l-.13,0-.12,0-.12,0-.11,0-.12,0-.11,0-.12,0-.1,0-.11,0-.11,0-.1,0-.1,0-.09-.05-.1,0L44,49.41l-.08,0,0,0,.07-.08.23-.23.25-.23.26-.22.27-.23.28-.22.29-.22.3-.22.32-.21.07,0v1.74l0,.07,0,.07,0,.07,0,.07,0,0,0,.05,0,0,0,0,0,0,0,0,0,0,0,0,0,0,.05,0,0,0,.05,0,0,0,0,0,.06,0,.06,0V47.62l-.06,0-.06,0,0,0,0,0-.05,0,0,0-.05,0,0,0,0,0,0,0,0,0,.25-.15.34-.21.36-.19.36-.2.36-.19.38-.18.37-.17.34-.15v2.06l0,.07,0,.07v0l0,0v0l0,0,0,0,0,0v0l0,0V45.74l0,0v0l.27-.12.39-.15.4-.15.41-.15.4-.13.42-.14.41-.12.42-.12L53,44.5l.42-.1.09,0V47l0,.06,0,.06,0,.06,0,.06,0,.06,0,.05,0,.06V44.94l0,0,0-.06,0-.06,0-.06,0-.06,0-.06,0-.06v-.15l.33-.08.43-.09.44-.09.44-.07.43-.07.44-.06.45-.06.44,0,.44,0h0v0l.43,0,.44,0,.45,0h1.78l.41,0,.42,0,.3,0v.36l0,.08,0,.08,0,.08,0,.08,0,.08,0,.08,0,.08,0,.08,0,.07-.05.08,0,.08,0,.08,0,.07-.05.08-.06.07-.06.08-.06.07-.06.08-.06.07-.07.07-.07.07-.07.07-.07.07-.07.07-.08.07-.07.07-.08.07h0v2.47h0l.08-.07.07-.07.08-.07.07-.07.07-.07.07-.07.07-.07.07-.07L60.8,48l.06-.07.06-.07.06-.08.06-.07.05-.08,0-.08,0-.07,0-.08.05-.08,0-.08,0-.07,0-.08,0-.08,0-.08,0-.08,0-.08,0-.08,0-.08V43.78h.11l.41,0,.41.06.4.06.41.06.4.08.4.08.39.09.4.1.39.1.38.12.39.11.38.13.38.13.38.14.37.14.37.15.37.15.36.17.37.16.35.18.36.17.35.19.34.19.34.19.34.2.34.2.33.21.32.21.33.22.37.19.37.19.36.19.35.19.35.2.33.19.33.2.32.2.31.21.29.2.29.21.28.21.27.22.26.21.25.21.24.22.22.22.22.22.2.22.2.23.18.22.16.23.16.23.14.23.13.23.12.24,0,.09v0l0,.07,0,.07,0,.06,0,.06-.06.06-.07.06-.07.06-.08,0-.09.05-.09,0-.1,0-.1,0-.1,0-.11,0-.11,0-.08,0-.07,0h-.08l-.07,0h-.08l-.07,0H75.5v2.1h0l-.11,0-.12,0H73.92l-.1,0-.1,0h-.1l-.1,0-.1,0-.1,0-.09,0-.1,0v2.44l-.08,0-.12,0-.12,0h-.72l-.12,0h-.12l-.12,0-.12,0h-.1l-.06,0h-.1l0,0h0l0,0v1.23l0,0-.09.1L71,60l-.13.09-.15.07-.17.07-.11,0-.12,0-.12,0-.11,0-.12,0h-.6l-.12,0-.12,0-.12,0-.11,0-.12,0-.11,0-.07,0-.08,0-.07,0-.07,0-.07,0-.06,0-.07,0-.06,0-.06,0L68,60l-.06,0-.05,0-.06,0-.06,0-.05,0-.06,0v.68l0,.08,0,.08,0,.08,0,.08,0,.07,0,.08,0,.07-.05.08-.06.07-.06.07-.07.06-.07.07-.07.06-.08,0-.09.06-.09,0-.1,0-.11.05-.11,0-.12,0-.12,0-.13,0-.14,0h-.62l-.11,0-.12,0-.11,0-.1,0-.11,0-.1,0-.1,0-.09-.05-.09,0-.09,0-.08-.06-.08,0-.07-.06L64,61.15,64,61.09,63.89,61l0-.07-.05-.06,0-.07-.05-.07,0-.06,0-.07,0-.07,0-.08,0-.07,0-.07,0-.07v0l0,0v.07l0,0v.05l0,.06-.05.07,0,.07,0,.07-.05.06-.06.07-.07.07L63,61l-.07.07-.07.06-.08.07-.09.06-.08.07-.09.06-.09.06-.1,0-.1.06-.1,0-.1,0-.11.05-.11,0-.12,0-.11,0-.12,0-.12,0h-.64l-.14,0-.13,0-.13,0-.11,0-.11,0-.11,0-.09,0-.1,0-.08,0,0,0,.06,0,.14,0,.13,0,.14-.05V59l-.14,0-.13,0-.14,0-.14,0-.13.05-.14,0-.13,0-.13,0-.13,0-.14,0-.13,0-.13,0-.13,0-.13,0-.12,0-.13,0-.13,0-.12,0-.13,0-.12,0-.12,0-.12,0-.12,0-.12,0-.12,0h-.12l-.12,0H56.5l-.12,0H55l-.07,0H54.8v1.28l-.26-.19-.33-.22-.32-.23-.33-.22L53.23,60l-.34-.23-.34-.23-.35-.23L52,59.13l0,0,.18-.14.2-.14.2-.15.22-.16.23-.16.24-.17.25-.18.26-.18.27-.19.27-.19.28-.2.29-.2.3-.2.29-.21.31-.21.3-.22.31-.22.31-.22.31-.22.31-.22.31-.23.31-.22.3-.23.31-.22.21-.16.2-.16.21-.16.19-.17.2-.16.18-.16L60,53.3l.18-.16L60.3,53l.17-.16.17-.16.16-.15.16-.16.16-.15.15-.14.15-.15.15-.14.14-.14.14-.13.14-.14.13-.12.14-.12.13-.12.12-.11.13-.11.12-.1.12-.1.12-.09.12-.08.12-.08.11-.07.12-.06.3-.15.29-.13.28-.11.27-.09.26-.08.25-.06.24,0,.23,0,.22,0h.6l.18,0,.18,0,.16,0,.15,0,.14,0,.14,0,.12.06.11,0,.11.05.09.06.09.05L68,50l.07.05,0,0,0,0,0,0,0,0,0,0v0h0l0,0h.05l.06,0,.08,0,.08,0,.08,0,.09,0,.1,0,.09.06.1.06.09.06.09.08.08.07.08.09.07.08.06.1,0,.1,0,.1V48.84l0-.1,0-.1-.06-.09-.07-.09-.08-.09-.08-.07-.09-.07-.09-.07L69,48.1,68.86,48l-.1,0-.09,0-.08,0-.08,0-.08,0-.06,0-.05,0,0,0h0v0l0,0,0,0,0,0,0,0,0,0L68,47.54l-.08,0-.09-.06-.09,0-.11-.06-.11,0-.12-.05-.14,0-.14-.05-.15,0-.16,0-.18,0-.18,0h-.6l-.22,0-.23,0-.24,0-.25.06-.26.08-.27.09-.28.11-.29.13-.3.15-.12.06-.11.07-.12.08L63,48l-.12.09-.12.1-.12.1-.13.11-.12.11-.13.12-.14.12L62,48.9l-.14.13-.14.13-.14.14-.15.14-.15.15-.15.15-.16.15L60.8,50l-.16.15-.17.16-.17.16-.17.16-.18.16-.19.16-.18.16-.2.17-.19.16-.21.16-.2.16-.21.16-.31.23-.3.22-.31.23-.31.22-.31.22-.31.22-.31.22-.31.22-.3.22-.31.21-.29.21-.3.2-.29.2-.28.2-.27.19-.27.19-.26.18-.25.18-.24.17-.23.16-.22.16-.2.15-.2.15-.18.13-.16.13-.15.12-.14.11-.12.1-.1.09-.08.08-.07.07,0,.07V58.6l0,0-.37-.23-.39-.23-.4-.23-.4-.22-.4-.21-.4-.21-.41-.2-.4-.21-.41-.19-.07,0V55.54l0,0,0,0,0,0,0,0v0l0,0v1.24l-.18-.09-.4-.19-.39-.19-.4-.19-.38-.18-.38-.19-.38-.18-.36-.18L44.08,55l-.31-.17.11,0,.2,0,.2,0h1l.21,0,.21,0,.22,0,.21,0,.21,0,.21,0,.21,0,.21,0,.21-.05.21-.06.2-.06.2-.07.19-.06.2-.07.19-.07.18-.08.18-.07L49,54l.17-.08.16-.07.16-.08.15-.08.15-.08.14-.07.06,0,.06,0,0,0,0,0,0-.05v-1h.06l.07,0h.19l.09,0,.08,0,.08,0,.06,0,.06,0,.05-.05,0,0,0,0,0-.05v-.71h1.41l.09,0,.08,0,.08,0,.08,0,.07,0,.06,0,0-.05,0,0,0,0,0-.05v-1h0l.09,0,.08,0h.08l.09,0h.08l.08,0h.09l.08,0h.08l.09,0H54l.08,0h1.16l0,0,0,0h0l0,0,.06,0,0,0,0-.05,0,0,0,0V49l0,0,.06,0,.06,0,.07,0,.06,0,.06,0,.06,0,.07,0,.06,0,.06,0,.07,0,.06,0,.06,0,.06,0,.07,0,.06,0,.06,0,.06,0,.06,0,.07,0,.06,0,.06,0,.06,0,.06,0h.23V47.24h-.23l-.06,0-.06,0-.06,0-.06,0-.07,0-.06,0-.06,0-.06,0-.06,0-.07,0-.06,0-.06,0-.06,0-.07,0-.06,0-.06,0-.07,0-.06,0-.06,0-.06,0-.07,0-.06,0-.06,0-.06,0-.06,0-.06,0-.06,0-.06,0-.06,0-.06,0-.06,0-.06,0v1.39H54l-.08,0h-.25l-.08,0h-.08l-.09,0h-.08l-.08,0-.09,0h-.08l-.08,0-.09,0-.08,0-.09,0h-.08l-.08,0-.09,0-.08,0-.08,0-.09,0-.08,0-.08,0v1.55H49.89v1.3h0l-.07,0H48.12v1.81l-.09,0-.19.07-.2.06-.2.06-.21.06-.21,0-.21.06-.21,0-.21,0-.21,0-.21,0-.22,0-.21,0-.21,0h-.84l-.21,0-.2,0-.2,0-.2,0-.12,0-.11,0-.11,0-.1,0-.1,0-.1,0L43,52.05l-.09,0-.08,0-.07-.05-.06-.06-.06-.06-.05-.07,0-.07,0-.07,0-.07V54ZM64.67,64h-.25l-.46,0H62.61l-.41,0,.08,0,.1-.06.09,0,.09-.06.08-.07.09-.06.08-.07.07-.06.07-.07L63,63.4l.07-.07.06-.07.05-.07,0-.06,0-.07.05-.07,0-.06v0l0,0v-.08l0,0v0l0,.07,0,.07,0,.07,0,.07,0,.07,0,.07,0,.07.05.07,0,.06.05.07,0,.06.06.07.07.06.07.06.07,0,.08.06.08.06.09,0,.09.05.09,0,.08,0Zm-5.56-.61h0l-.35-.13-.34-.14L58.05,63l-.33-.15-.33-.17-.32-.17-.32-.18-.09-.06h.19l.12,0,.12,0,.12,0,.12,0,.12,0,.12,0,.13,0,.12,0L58,62l.13,0,.12,0,.13,0,.13,0,.13,0,.13,0,.14,0,.13,0,0,0v1.57l0,.06,0,.05Zm.41-14.59h-.19l-.09,0-.08,0-.08,0-.07,0-.06,0-.06,0-.06-.05-.06-.06-.06-.06-.06-.06-.07-.06-.06-.06-.05-.06,0,0v.72l0,.08V49l0,.07v.07l0,.08,0,.07V46.86l0-.07,0-.07v-.08l0-.07V46.5l0-.08v-.73l.06.06.05.06.06.07.07.06.06.05.06.06.06.06.06,0,.06.05.06,0,.07,0,.08,0,.08,0,.09,0h.32v2.46h-.13Zm11.95,5.6-.12.13-.17.19-.18.19-.16.16,0,0,.1.08.11.07v2.47L71,57.67l-.1-.07-.1-.08-.1-.08-.09-.08-.1-.08-.09-.08-.08-.08L70.23,57,70.15,57l-.07-.08L70,56.81l-.07-.08-.07-.08-.06-.08-.06-.07,0,0,0-.05v-.25l-.15.12-.24.19-.25.2,0,0v0l0,.1,0,.09v2.47l0-.1,0-.09,0-.1,0-.1,0-.1,0-.1,0-.1,0-.1,0-.1,0-.1,0-.1,0-.09,0-.1,0-.1V57l-.09.06-.26.19-.28.19-.28.19-.28.19-.3.19-.29.19-.31.18,0,0v2.08l0-.09,0-.09,0-.09V58.44l-.19.11-.31.18-.09.05-.08,0-.08,0-.09.05-.08,0-.08.05-.09,0-.08,0-.09,0-.08,0-.09,0-.08,0-.09.05-.08,0-.09,0-.08,0-.09.05-.08,0-.09,0-.08,0-.09,0-.08,0-.09.05-.08,0-.09,0-.09,0L63.6,60l-.09,0-.08,0-.09,0-.08,0-.09,0V57.68l.09,0,.08,0,.09,0,.08,0,.09,0,.08,0,.09,0,.09,0,.08,0,.09,0,.08-.05.09,0,.08,0,.09,0,.08,0,.09,0,.08,0,.09-.05.08,0,.09,0,.08,0,.09-.05.08,0,.09,0,.08,0,.09,0,.08,0,.08,0,.09,0,.08,0,.08,0,.09-.05.31-.18.31-.19.31-.18.29-.19.3-.19.28-.19L68,55l.28-.19.26-.19.27-.19.25-.19.25-.19.24-.2.23-.19.23-.19.22-.19.21-.19.2-.19.2-.19.19-.19.18-.19.17-.19.17-.18.15-.19.15-.18.14-.18.13-.18.12-.18.11-.18.11-.18.09-.17.09-.17.07-.16.06-.16.05-.15,0-.15,0-.15,0-.15v2.47l0,.15,0,.15,0,.15-.05.15-.06.16-.07.16-.09.17-.09.17-.11.18-.07.11h0l0,0,0,0,.05,0,0,0V56l0,0-.05,0,0,0,0,0,0,0,0,0-.05,0,0,0,0,0,0,0,0,0,0,0,0,0,0,0,0,0,0,0-.07,0-.06,0,0,0,0,0,0-.05,0-.06v-.91Z"/><ellipse class="cls-14" cx="53.45" cy="81.94" rx="21.19" ry="12.91"/><ellipse class="cls-14" cx="29.15" cy="66.91" rx="21.19" ry="12.91"/><path class="cls-5" d="M99.86,73.05a38.45,38.45,0,0,1-6.61,5C84.76,83.19,74,85.83,64.17,86.55a80.37,80.37,0,0,1-28.57-3,54.33,54.33,0,0,1-14.89-6.93c-5.38-3.72-9-7.8-10.73-13.92V52.59c2.48,8.64,9.41,14,17.57,17.79A65.81,65.81,0,0,0,40,74.61c14.8,3.44,32.58,2.55,46.67-3.37A47,47,0,0,0,97.45,65a27.15,27.15,0,0,0,6.93-7.9,21.66,21.66,0,0,0,1.15-2.5l.43-1.29.31-1.3V62.17l-.31,1.3A22.79,22.79,0,0,1,105,66,24.07,24.07,0,0,1,99.86,73.05Z"/><path class="cls-6" d="M106.17,53.26c-1.65,14.18-21.93,25.47-46.54,25.91C32.2,79.66,9.38,66.62,10,50.78c.55-14.62,21-26.61,46.28-27.18C84.69,23,108.08,36.87,106.17,53.26Z"/><path class="cls-7" d="M59.24,17.55A289.57,289.57,0,0,0,84.11,33.77c8.83,5.09,18.28,9.84,28.1,14.36,1.6.74,1.43,1.74-.32,2.41A205.76,205.76,0,0,0,82.5,64.15a150.52,150.52,0,0,0-23.57,17,3.37,3.37,0,0,1-4.17.18A291.52,291.52,0,0,0,29.87,65.08C21,60,11.59,55.24,1.78,50.72.18,50,.35,49,2.1,48.31a206.85,206.85,0,0,0,29.39-13.6,148.76,148.76,0,0,0,23.56-17A3.39,3.39,0,0,1,59.24,17.55Z"/><path class="cls-8" d="M69.53,65.54v1.24l-.06.35-.06.36-.08.35-.1.35-.11.35-.12.35-.14.35-.16.34-.16.35-.19.34-.2.34-.21.34-.23.33-.24.34-.25.33-.27.32-.29.33-.3.32-.32.31-.33.32-.34.31-.36.3-.37.3-.39.3-.41.29-.41.29-.44.29-.44.28-.47.27-.47.27-.48.25-.49.25-.5.24-.51.24-.52.22-.52.22-.53.21-.53.19-.55.19-.55.19-.55.17-.56.17-.57.15-.57.15-.58.14-.58.13-.58.12-.59.12-.59.1-.6.1-.6.09-.6.08-.61.07-.6.07-.61,0-.61,0-.62,0-.61,0-.61,0H42.73l-.62,0-.61,0-.61,0-.61,0-.61,0-.61-.07-.6-.07-.61-.08-.6-.09-.59-.1-.59-.1-.59-.12-.59-.12-.58-.13-.58-.14-.57-.15L32.6,79,32,78.82l-.56-.17-.55-.19-.54-.19-.54-.19-.53-.21-.52-.22-.51-.22-.51-.24-.5-.24-.49-.25-.49-.25-.47-.27-.46-.27-.45-.28-.43-.29-.42-.29-.4-.29-.39-.3-.37-.3-.36-.3-.35-.31-.33-.32-.31-.31-.3-.32L21,72.27,20.7,72l-.26-.33-.24-.34L20,71l-.21-.34-.2-.34-.18-.34-.17-.35-.15-.34-.14-.35-.13-.35-.11-.35-.09-.35-.08-.35-.07-.36-.05-.35V65.54l.05.35.07.36.08.35.09.35.11.35.13.35.14.35.15.34.17.35.18.34.2.34.21.34.23.33.24.34.26.33L21,71l.29.33.3.32.31.32.33.31.35.31.36.3.37.31.39.29.4.3.42.28.43.29.45.28.46.27.47.27.49.26.49.25.5.24.51.23.51.22.52.22.53.21.54.2.54.19.55.18.56.17.56.17.56.15.57.15.58.14.58.13.59.13.59.11.59.11.59.09.6.09.61.08.6.07.61.07.61.05.61,0,.61,0,.61,0,.62,0h2.46l.61,0,.61,0,.62,0,.61,0,.61-.05.6-.07.61-.07.6-.08.6-.09.6-.09.59-.11.59-.11.58-.13.58-.13.58-.14.57-.15.57-.15.56-.17.55-.17.55-.18.55-.19.53-.2.53-.21.52-.22.52-.22.51-.23.5-.24.49-.25.48-.26.47-.27.47-.27.44-.28.44-.29.41-.28.41-.3.39-.29.37-.31.36-.3.34-.31L66,72l.32-.32.3-.32L67,71l.27-.32.25-.33.24-.34.23-.33.21-.34.2-.34.19-.34.16-.35.16-.34.14-.35.12-.35.11-.35.1-.35.08-.35.06-.36.06-.35Zm-3-.13v1.24l0-.31,0-.31V64.16l0-.31,0-.31,0-.32-.06-.31-.07-.31-.09-.31L66.15,62,66,61.67l-.13-.3-.13-.31-.15-.3-.16-.3-.18-.3-.19-.3-.2-.3-.21-.29L64.46,59l-.23-.29L64,58.41l-.26-.29-.28-.28-.29-.27-.3-.27L62.52,57l-.33-.27-.34-.26-.36-.26L61.12,56l-.38-.25-.39-.24-.41-.24L59.52,55l-.42-.22-.44-.23-.44-.21-.44-.2-.46-.2-.46-.19-.47-.18-.47-.18-.48-.17L55,53.07l-.49-.15-.5-.15-.5-.13L53,52.5l-.51-.12L52,52.27l-.52-.11-.52-.1-.52-.1-.52-.08-.53-.08-.53-.07-.54-.07-.53,0-.54,0-.54,0-.54,0-.54,0-.54,0H42.87l-.54,0-.54,0-.54,0-.54,0-.53,0-.54,0-.53.07-.53.07-.53.08-.53.08-.52.1-.52.1-.52.11-.51.11-.51.12-.5.14-.5.13-.49.15-.49.15-.49.16L32,53.4l-.47.18-.47.18-.46.19-.45.2-.45.2-.44.21-.43.23-.43.22-.41.24-.41.24-.4.24-.38.25-.37.26-.35.26-.34.26L25.4,57l-.32.27-.3.27-.3.27-.27.28-.27.29-.25.28-.24.29-.23.29-.21.29-.2.3-.19.3-.17.3-.16.3-.15.3-.14.31-.12.3-.11.31-.1.31-.08.31-.07.31-.06.31-.05.32,0,.31,0,.31V66l0,.31,0,.31V65.41l0-.31h0l0-.32.05-.31.06-.31.07-.31.08-.31.1-.31.11-.31.12-.3.14-.31.15-.3.16-.3.17-.3.19-.3.2-.3.21-.29.23-.29.24-.29.25-.29.27-.28.27-.28.3-.27.3-.28.32-.27.33-.26.34-.26.35-.26.37-.26.38-.25.4-.24.41-.24.41-.24.43-.23.43-.22.44-.21.45-.2.45-.2.46-.19.47-.19.47-.17.48-.17.49-.16.49-.15.49-.15.5-.14.5-.13.51-.12L36,53.5l.52-.1.52-.11.52-.09.53-.08.53-.08.53-.07.53-.07.54,0,.53-.05.54,0,.54,0,.54,0,.54,0H45l.54,0,.54,0,.54,0,.54,0,.54.05.53,0,.54.07.53.07.53.08.52.08.52.09.52.11.52.1.51.12.51.12.5.13L54,54l.5.15.49.15.48.16.48.17.47.17.47.19.46.19.46.2.44.2.44.21.44.22.42.23.42.24.41.24.39.24.38.25.37.26.36.26.34.26.33.26.32.27.3.28.29.27.28.28.26.28.26.29.23.29.23.29.21.29.2.3.19.3.18.3.16.3.15.3.13.31.13.3.11.31.09.31.09.31.07.31.06.31,0,.31,0,.32h0Z"/><path class="cls-9" d="M62.08,54c5,2.89,7.51,6.68,7.51,10.47s-2.5,7.57-7.51,10.46S50.52,79.28,44,79.28s-13.12-1.45-18.13-4.34-7.51-6.68-7.51-10.46S20.83,56.9,25.83,54,37.4,49.68,44,49.68,57.08,51.12,62.08,54Zm4.48,10.47c0-3.34-2.21-6.68-6.62-9.23a32.64,32.64,0,0,0-16-3.82,32.61,32.61,0,0,0-16,3.82c-4.42,2.55-6.62,5.89-6.62,9.23s2.2,6.67,6.62,9.22a32.61,32.61,0,0,0,16,3.82,32.64,32.64,0,0,0,16-3.82C64.35,71.15,66.56,67.81,66.56,64.48Z"/><path class="cls-8" d="M97.31,61.43v1l0,.29,0,.28-.07.28-.07.29-.09.28-.1.28-.12.28-.12.28-.14.28-.14.27-.16.28-.17.27-.19.27-.19.27-.21.26-.22.27-.23.26-.24.26-.25.25-.27.25-.28.25-.29.25-.3.24-.31.24-.33.24-.33.23-.35.23-.36.22-.37.22-.39.22-.39.21-.39.2-.4.19-.41.19-.42.18-.42.18-.43.16-.43.16-.44.16-.44.14-.44.14-.46.14-.45.12-.46.12-.47.11-.47.11-.47.1-.47.09-.48.09-.48.07-.48.08-.49.06-.49.06-.49,0-.49,0-.49,0-.49,0-.5,0h-3l-.49,0-.49,0-.5,0-.49,0-.49,0-.48-.06-.49-.06-.48-.08L70.83,73l-.48-.09-.47-.09-.48-.1-.46-.11-.47-.11L68,72.39l-.46-.12-.45-.14L66.66,72l-.45-.14-.43-.16-.44-.16-.42-.16-.42-.18L64.08,71l-.41-.19-.4-.19-.4-.2-.39-.21L62.1,70l-.37-.22-.36-.22L61,69.33l-.34-.23-.32-.24-.31-.24-.3-.24-.29-.25-.28-.25-.27-.25-.25-.25-.24-.26-.23-.26L58,66.59l-.21-.26-.2-.27-.18-.27-.17-.27-.16-.28L56.9,65l-.13-.28-.13-.28-.11-.28-.1-.28-.09-.28-.07-.29L56.2,63l-.05-.28,0-.29v-1l0,.29.05.28.07.29.07.28.09.28.1.28.11.28.13.28.13.28.15.28.16.27.17.27.18.27.2.27.21.27.22.26.23.26.24.26.25.25.27.26.28.25.29.24.3.25.31.24.32.23.34.23.35.23.36.23.37.22.38.21.39.21.4.2.4.2.41.18.42.18.42.18.42.17.44.16.43.15.45.15.44.14.45.13.46.12.46.12.47.12.46.1.48.1.47.09.48.09.48.08.48.07.49.06.48.06.49,0,.49,0,.5,0,.49,0,.49,0,.5,0h2l.49,0,.5,0,.49,0,.49,0,.49,0,.49,0,.49-.06.49-.06.48-.07.48-.08.48-.09.47-.09.47-.1.47-.1.47-.12.46-.12.45-.12.46-.13.44-.14.44-.15.44-.15.43-.16.43-.17.42-.18.42-.18.41-.18.4-.2.39-.2.39-.21.39-.21.37-.22.36-.23.35-.23.33-.23.33-.23.31-.24.3-.25.29-.24.28-.25.27-.26.25-.25.24-.26.23-.26.22-.26.21-.27.19-.27.19-.27.17-.27.16-.27.14-.28.14-.28.12-.28.12-.28.1-.28.09-.28.07-.28.07-.29,0-.28,0-.29Zm-2.44-.1v1l0-.25,0-.26v-1.5l0-.25,0-.25,0-.25,0-.25-.06-.26-.06-.25-.08-.24-.09-.25-.1-.25-.11-.25-.12-.24L94,57.34l-.14-.24-.15-.24-.16-.24-.17-.24-.19-.23L93,55.91l-.2-.23-.22-.22-.22-.23L92.17,55l-.25-.22-.25-.22-.27-.21-.28-.21-.28-.21-.3-.21-.31-.2-.31-.2-.33-.19L89.25,53l-.34-.18-.35-.18-.36-.17-.36-.17-.36-.16-.37-.15-.38-.15-.38-.14L86,51.51l-.39-.12-.39-.13-.4-.12-.4-.11-.41-.1-.41-.1-.41-.09-.42-.09-.41-.08-.43-.08-.42-.07L81,50.36l-.42-.06-.43,0-.43,0-.44,0-.43,0-.44,0-.43,0-.44,0H75.84l-.44,0-.44,0-.43,0-.44,0-.43,0-.43,0-.43,0-.43.06-.42.06-.43.07-.42.08-.42.08-.41.09-.41.09-.41.1L69,51l-.4.11-.4.12-.4.13-.39.12-.38.14-.38.14-.38.15-.37.15-.37.16-.36.17-.35.17-.35.18-.34.18-.34.19-.33.19-.32.2-.3.2-.3.21-.29.21-.27.21-.27.21-.25.22-.25.22-.23.22-.23.23-.21.22-.2.23-.2.24-.18.23-.17.24-.16.24-.15.24-.14.24-.13.24-.12.24-.11.25-.1.25-.09.25-.08.24-.07.25,0,.26-.05.25,0,.25,0,.25,0,.25v1.5l0,.26,0,.25v-1l0-.25h0l0-.25,0-.26.05-.25,0-.25.07-.25.08-.25.09-.24.1-.25.11-.25.12-.24.13-.25.14-.24.15-.24.16-.23.17-.24.18-.24.2-.23.2-.23.21-.23.23-.22.23-.22.25-.22.25-.22.27-.22.27-.21.29-.2.3-.21.3-.2.32-.2.33-.19.34-.19.34-.19.35-.17.35-.18.36-.16.37-.16.37-.15.38-.15.38-.14.38-.14.39-.13.4-.12.4-.12L69,52l.41-.1.41-.1.41-.1.41-.08.42-.08.42-.08.43-.07.42-.06.43-.06.43,0,.43,0,.43,0,.44,0,.43,0,.44,0H78l.43,0,.44,0,.43,0,.44,0,.43,0,.43,0,.42.06.43.06.42.07.43.08.41.08.42.08.41.1.41.1.41.1.4.11.4.12.39.12.39.13.39.14.38.14.38.15.37.15.36.16.36.16.36.18.35.17.34.19.34.19.33.19.31.2.31.2.3.21.28.2.28.21.27.22.25.22.25.22.23.22.22.22.22.23.2.23.19.23.19.24.17.24.16.23.15.24.14.24.13.25.12.24.11.25.1.25.09.24.08.25.06.25.06.25,0,.25,0,.26,0,.25h0Z"/><path class="cls-9" d="M91.32,52.14c4,2.33,6,5.38,6,8.43s-2,6.11-6,8.44A29.86,29.86,0,0,1,76.71,72.5,29.86,29.86,0,0,1,62.1,69c-4-2.33-6.05-5.38-6.05-8.44s2-6.1,6.05-8.43a29.86,29.86,0,0,1,14.61-3.49,29.86,29.86,0,0,1,14.61,3.49Zm3.6,8.43c0-2.69-1.78-5.38-5.33-7.43a26.38,26.38,0,0,0-12.88-3.08,26.38,26.38,0,0,0-12.88,3.08c-3.56,2-5.33,4.74-5.33,7.43S60.27,66,63.83,68a26.38,26.38,0,0,0,12.88,3.08A26.38,26.38,0,0,0,89.59,68C93.14,66,94.92,63.27,94.92,60.57Z"/><path class="cls-10" d="M71.54,48.43l0,.07h0l-.28-.19L71,48.13l-.26-.2-.24-.19-.22-.2-.2-.2-.18-.21-.16-.21-.14-.22-.12-.22-.1-.22L69.3,46l-.07-.25,0-.26,0-.26V47.7l0,.26,0,.26.07.25.08.25.1.23.12.22.14.22.16.21.18.21.2.2.22.2.24.19.26.2.27.19.28.18.3.19.32.18.32.19.34.18.35.18.35.19.37.18.37.18.38.19.39.18.39.19.4.19.4.19.4.19.4.2.41.2.4.21.41.21.4.21.4.22.39.23.39.22.38.23.37.24.36.23.36.23.35.24.34.23.34.23.33.23.33.23.32.23.32.22L84,58l.32.22.31.21.32.2.31.2.32.2.32.19.32.18.32.17.33.17.32.15.34.15.34.14.34.12.35.12.36.11.37.09.37.08.38.07.39.05.44,0,.44,0,.45,0h1.8l.46,0,.46,0,.45,0,.46,0,.46-.06.46-.07.46-.09.45-.09.46-.09.45-.11.45-.12.45-.12.45-.14.44-.14.45-.14.43-.16.43-.16.43-.17L102,59l.42-.19.41-.19.41-.2.4-.21.39-.21.39-.22.38-.22.37-.23.35-.23.35-.24.33-.24.32-.24.31-.25.3-.25.29-.25.27-.26.26-.26.25-.26.24-.26.22-.27.21-.27.2-.27.19-.27.17-.27.16-.28.14-.28.14-.27.11-.28.11-.28.09-.28.08-.28.06-.29,0-.28,0-.28,0-.28V47.66l0,.28,0,.28,0,.29-.06.28-.08.28-.09.28-.11.28-.11.28-.14.28-.14.27-.16.28-.17.27-.19.27-.2.28-.21.26-.22.27-.24.26-.25.27-.26.25-.27.26-.29.25-.3.25-.31.25-.32.24-.33.24-.35.24-.35.23-.37.23-.38.23-.39.21-.39.22-.4.2-.41.2-.41.19-.42.19-.43.18-.43.17-.43.16-.43.16-.45.15-.44.14-.45.13-.45.12-.45.12-.45.11-.46.1-.45.09-.46.08,0,0,.07-.07.06-.06,0-.08,0-.07,0-.07,0-.08,0-.08,0-.07,0-.08,0-.08v-.08l0-.08V56.7h0l.06,0,0,0,.06,0,.06,0,.06,0,.06,0,.06,0,.07,0,.06,0,.07,0,.07,0,.07,0,.07,0,.07,0,.08,0,.11,0,.11,0,.12,0,.11,0,.12,0h.12l.12,0h.6l.12,0,.12,0,.11,0,.11,0,.17-.07.15-.08.13-.08.11-.09.09-.1.07-.1,0-.11,0-.11,0-.11v-.76h.06l0,0h.11l.12,0,.11,0,.13,0,.12,0h.6l.12,0H102l.11,0,.12,0,.11,0,.1,0,.11,0,.1-.05.1-.06.08-.06.08-.06.06-.06.06-.07,0-.07,0-.07,0-.07,0-.07V53.41h1l.12,0h.12l.12,0,.11,0,.11,0,.11,0,.1,0,.1,0,.09,0,.09,0,.08-.06.07-.06.07-.06.09-.11.07-.11,0-.12V51.34h.91l.08,0h.15l.08,0,.07,0,.08,0,.07,0,.12,0,.1,0,.11,0,.1,0,.1,0,.09,0,.09-.05.08-.06.07-.05.07-.06.06-.06,0-.06,0-.07,0-.07,0-.07,0-.07V47.91l0,.11.09.23.08.24.06.24,0,.24,0,.24,0,.26V47l0-.26,0-.24,0-.24-.06-.24-.08-.23-.09-.24-.1-.23-.12-.24-.13-.23-.14-.23-.16-.23-.17-.22-.18-.23-.19-.22-.2-.23-.22-.22-.23-.22-.23-.21-.25-.22-.26-.21-.27-.22-.28-.21-.29-.2-.3-.21-.31-.2-.31-.21-.33-.2-.34-.19-.34-.2-.35-.19-.36-.19-.37-.19-.38-.19-.32-.22-.33-.21-.33-.21-.33-.2-.34-.2-.34-.19-.35-.19-.35-.19L98.51,38l-.36-.18-.36-.16-.36-.16-.37-.16-.37-.15-.37-.14-.38-.14-.38-.13-.38-.13-.39-.11-.39-.11L94,36.35l-.39-.1-.4-.09-.4-.08-.4-.07-.4-.07-.41-.06-.41-.06-.41,0-.41,0-.41,0-.42,0H87.77l-.44,0-.45,0-.44,0-.44,0-.45.05-.44.06-.44.06-.44.07-.43.08-.44.08-.43.09-.43.1-.43.1-.42.11-.42.12-.42.13L80.4,37l-.41.13-.4.15-.4.15-.4.16-.39.16L78,37.9l-.38.17-.37.19-.37.18-.36.2-.35.2-.35.2-.33.21-.33.21-.31.21-.3.22-.3.22-.28.22-.27.23-.25.22-.25.23-.23.24-.23.23-.2.23-.2.24-.18.24-.17.24-.16.23-.14.24-.13.25-.11.24-.1.24-.09.24-.07.24,0,.24,0,.24,0,.24V47.3l0-.24,0-.24,0-.24.07-.24.09-.24.1-.25.11-.24.13-.24.14-.24.16-.24.17-.23.18-.24V45.6l0,.07,0,.07,0,.06,0,.07,0,.06.06.07.06.06.07.06.07.06.08,0,.08.06.09.05.09,0,.09,0,.1,0,.1.05.1,0,.1,0,.11,0,.11,0,.11,0,.12,0,.11,0,.12,0,.12,0,.12,0,.12,0V44.39l-.12,0-.12,0-.12,0-.12,0-.11,0-.12,0-.11,0-.11,0-.11,0-.1,0-.1,0-.1-.05-.1,0-.09,0-.09-.05-.09,0,0,0,.07-.08.23-.23.25-.23.25-.23L74,42.8l.28-.22.3-.22.3-.22.31-.21.07,0v1.67l0,.07,0,.07,0,.07,0,.07,0,.07,0,0,0,.05,0,0,0,0,0,0,0,0,0,0,0,0,0,0,0,0,0,0,.05,0,.06,0,.05,0,.06,0,.05,0V42.08l-.05,0L76,42,76,42l-.06,0-.05,0,0,0,0,0,0,0,0,0,0,0,0,0,.25-.15.35-.21.35-.2.36-.19.37-.19.37-.18.38-.17.34-.15v2.06l0,.07,0,.07v.06l0,0,0,0v0l0,0,0,0,0,0V40.2l0,0v0l.26-.12.4-.15.4-.15.4-.15.41-.14.41-.13.42-.12.42-.12.42-.11.43-.1.09,0v2.62l0,.06v.06l0,.06,0,.06,0,0,0,.06,0,.06V39.4l0-.06,0-.05,0-.06,0-.06,0-.06v-.06l0-.06v-.16l.34-.07.43-.09.44-.09.43-.07.44-.07.44-.06.44-.06.45,0,.44,0h0v2.45l0,.1V38.23l.42,0,.45,0h2.22l.42,0,.41,0,.3,0v.28l0,.08,0,.08,0,.08,0,.08,0,.08,0,.08,0,.08,0,.08,0,.08,0,.07,0,.08,0,.08,0,.08,0,.07-.06.08,0,.07-.06.08-.06.07L89.9,40l-.07.07-.06.07-.07.07-.07.07-.07.07-.08.07-.07.07-.08.07-.07.07h0v2.47h0l.07-.07.08-.07.07-.07.08-.07.07-.07.07-.07.07-.07.06-.07.07-.08.06-.07.06-.07.06-.08,0-.07.06-.08,0-.08,0-.07,0-.08,0-.08,0-.08,0-.07,0-.08,0-.08,0-.08,0-.08,0-.08,0-.08,0-.08,0-.08V38.24h.11l.41,0,.41.06.41.06.4.06.4.08.4.08.4.09.39.1.39.1.39.11.39.12.38.13.38.13.38.13.37.15.37.15.37.15.36.16.36.17.36.17.35.18.35.19.35.19.34.19.34.2.33.2.33.21.33.21.32.22.38.19.37.18.36.2L103,43l.34.19.34.2.33.2.31.2.31.21.3.2.29.21.28.21.27.21.26.22.25.21.23.22.23.22L107,46l.2.22.19.23.18.22.17.23.16.23.14.23.13.23.12.23,0,.1v0l0,.08,0,.06,0,.07,0,.06-.06.06-.07.06-.07.06-.08,0-.09.05-.09,0-.1,0-.1,0-.11,0-.1,0-.12,0-.07,0H107l-.07,0-.08,0h-.07l-.08,0h-2.11v2.1h0l-.12,0h-.12l-.12,0h-1.1l-.1,0h-.1l-.1,0-.1,0-.09,0-.1,0-.1,0-.1,0-.09,0v2.44l-.09,0-.11,0-.12,0h-.72l-.12,0h-.13l-.11,0-.12,0h-.11l0,0h-.1l0,0h-.05l0,0v1.25l-.09.1-.11.09-.13.08-.15.08-.17.07-.11,0-.11,0-.12,0-.12,0h-.72l-.12,0-.12,0-.11,0-.12,0-.11,0-.11,0-.08,0-.07,0-.07,0-.07,0-.07,0-.07,0-.06,0-.07,0-.06,0-.06,0-.06,0-.06,0-.06,0,0,0-.06,0,0,0V55l0,.08,0,.08,0,.08,0,.07,0,.08,0,.07,0,.08,0,.07-.06.07-.07.06-.07.07-.08.06-.08,0L96,56l-.1,0-.1,0-.1,0-.11,0-.12,0-.13,0-.13,0-.13,0h-.62l-.12,0-.11,0-.11,0-.11,0-.1,0-.1,0-.1,0-.09-.05-.09,0-.09,0-.08-.06-.08-.05-.07-.06-.07-.06-.07-.06L93,55.48l-.06-.06-.05-.06,0-.07,0-.07,0-.07,0-.06,0-.07,0-.08,0-.07,0-.07,0-.07v.09l0,0v0l0,0,0,.06,0,.07-.05.07,0,.06-.06.07-.06.07-.06.07-.07.07-.07.07-.08.06-.08.07-.08.06-.08.07-.09.06-.1.06-.09.05-.1.06-.1,0-.11,0-.11,0-.11,0-.11,0-.12,0-.11,0-.13,0-.12,0h-.52l-.13,0-.14,0-.12,0-.12,0-.11,0-.1,0-.1,0-.09,0-.08,0,0,0,.06,0,.13,0,.14,0,.14-.05V53.4l-.14.05-.14,0-.13,0-.14,0-.13.05-.14,0-.13,0-.14,0-.13,0-.13,0-.13,0-.13,0-.13,0-.13,0-.13,0-.12,0-.13,0-.13,0-.12,0-.12,0-.13,0-.12,0-.12,0-.12,0-.12,0h-.11l-.12,0h-.12l-.11,0H83.9v1.28l-.27-.19-.32-.22L83,54.89l-.33-.23-.33-.23L82,54.2,81.65,54l-.35-.24-.22-.14,0,0,.18-.14.19-.14.21-.15.22-.16.23-.16.24-.17.25-.18.26-.18.26-.19.28-.19.28-.2.29-.2.29-.21.3-.2.3-.22.31-.21.31-.22.3-.22.31-.22.31-.22.31-.23.31-.22.31-.23.3-.22.21-.16.21-.16.2-.16.2-.17.19-.16.19-.16.18-.16.18-.16.18-.16.17-.16.16-.16L89.9,47l.16-.16.15-.15.16-.14.15-.15.14-.14.15-.14L91,46l.13-.13.14-.12.13-.13.13-.11.13-.11.13-.11.12-.1L92,45,92.1,45l.12-.08.12-.08.11-.07.12-.06.3-.15.29-.13.28-.11.27-.09L94,44.1l.25-.06.24,0,.23,0,.22,0h.6l.18,0,.17,0L96,44l.16,0,.14.05.13,0,.13.06.11,0,.1,0,.1.06.09,0,.07.06.07.05.06,0,0,0,0,0,0,0,0,0,0,0h.07l.06,0,.06,0,.07,0,.08,0,.09,0,.09,0L98,45l.1.06.09.06.1.06.09.08.08.07.08.08.06.09.06.1,0,.1,0,.1,0,.11V43.41l0-.11,0-.1,0-.1-.06-.1-.06-.08-.08-.09-.08-.07-.09-.07-.1-.07-.09-.06L98,42.5l-.09,0-.09,0-.09,0-.08,0-.07,0-.06,0h-.06l0,0h0l0,0,0,0,0,0,0,0,0,0-.06,0-.07,0L97,41.94l-.09,0-.1,0-.1-.06-.11-.05-.13,0-.13,0-.14-.05-.16,0-.16,0-.17,0-.18,0h-.6l-.22,0-.23,0-.24,0-.25.06-.26.08-.27.09-.28.11-.29.13-.3.15-.12.06-.11.07-.12.08-.12.08-.12.09-.12.1-.12.1-.13.11-.13.11-.13.12-.13.12-.14.13-.13.13-.14.13-.15.14-.14.14-.15.15-.16.15-.15.15-.16.15-.17.15-.16.16L89.4,45l-.18.16-.18.16-.18.16-.19.16-.19.16-.2.17-.2.16-.21.16-.21.16-.3.23-.31.22-.31.23-.31.22-.31.22-.31.22-.3.22-.31.22-.31.22-.3.21-.3.21L84,49l-.29.2-.28.2-.28.19-.26.19-.26.18-.25.18-.24.17-.23.16-.22.16-.21.15-.19.14-.18.14-.17.13-.15.12-.13.11-.12.1-.1.09-.09.08-.06.07-.05.07v1.19l0,0-.38-.23-.39-.23-.39-.23-.4-.22-.4-.21-.41-.21-.4-.21L77,51.3l-.4-.19-.08,0V50l0,0,0,0,0,0,0,0,0,0V51l-.18-.09-.4-.19-.4-.19L75,50.34l-.39-.18L74.27,50l-.37-.18-.37-.18-.35-.19-.31-.16.1,0,.2,0,.21,0,.2,0h.84l.22,0,.21,0,.21,0,.22,0,.21,0,.21,0,.21,0,.21,0,.21-.05.2-.06.2-.06.2-.07.2-.06.19-.07.19-.07.19-.08.18-.07.17-.08.17-.08.17-.07.15-.08.16-.08.14-.08L79,48l.07,0,0,0,.05,0,0,0,0-.05v-1l.06,0h.26l.09,0,.08,0,.07,0,.07,0,.06,0,0-.05,0,0,0,0,0-.05v-.71h1.49l.09,0,.08,0,.07,0,.07,0,.06-.05.06,0,0,0,0,0,0-.05v-1h0l.08,0h.09l.08,0,.08,0h.09l.08,0h.08l.09,0h.08l.08,0h.25l.08,0h1.12l0,0h0l0,0,0,0h0l.07,0,0,0,0-.05,0,0,0-.05v-.77l.05,0,.06,0,.06,0,.06,0,.07,0,.06,0,.06,0,.06,0,.07,0,.06,0,.06,0,.06,0,.07,0,.06,0,.06,0,.06,0,.07,0,.06,0,.06,0L86,44l.06,0,.06,0,.06,0,.06,0h.24V41.7h-.24l-.06,0-.06,0-.06,0-.06,0-.06,0-.06,0-.06,0-.07,0-.06,0-.06,0-.06,0-.07,0-.06,0-.06,0-.06,0-.07,0-.06,0-.06,0-.06,0-.07,0-.06,0-.06,0-.06,0-.06,0-.07,0-.06,0-.06,0-.06,0-.06,0-.06,0-.06,0,0,0V42.1H83.14l-.08,0h-.17l-.08,0h-.17l-.08,0h-.08l-.09,0-.08,0h-.08l-.09,0-.08,0-.09,0-.08,0-.08,0h-.09l-.08,0-.09,0-.08,0-.08,0-.08,0-.09,0v1.55H79v1.29h-.13l-.07,0H77.21v1.81l-.08,0-.2.07-.2.06-.2.06-.2.06-.21,0-.21.05-.21,0-.21,0-.21,0-.22,0-.21,0-.21,0-.22,0h-.63l-.21,0h-.2l-.21,0-.2,0-.19,0-.12,0-.11,0-.11,0-.11,0-.1,0-.09,0-.09-.05-.09,0-.08-.05-.07-.06-.07-.05-.06-.06-.05-.07,0-.07,0-.07,0-.07,0-.08v2.47l0,.08ZM93.76,58.49H91.71l-.41,0,.08,0,.09-.06.1,0,.09-.07.08-.06.08-.06.08-.07L92,58l.07-.06.07-.07.06-.07.06-.07.06-.07,0-.06.05-.07,0-.07,0-.06,0,0v0l0,0v-.1l0,.08,0,.07,0,.07,0,.07,0,.07,0,.07,0,.07,0,.07,0,.06.05.07L93,58l.06.06.07.07.07.06.07,0,.08.06.08.06.09,0,.09,0,.09,0,.07,0Zm-5.56-.61,0,0-.34-.12-.34-.14-.34-.15-.32-.15-.33-.17L86.17,57l-.32-.18-.1-.06h.08l.11,0h.12l.12,0,.12,0,.12,0,.13,0,.12,0,.12,0,.13,0,.13,0,.12,0,.13,0,.13,0,.13,0,.13,0,.13,0,.13,0,.13,0h.06v1.57l0,.06v.05Zm.42-14.59h-.28l-.08,0-.08,0-.07,0-.07,0-.05,0L87.92,43,87.86,43l-.06-.06-.06-.06-.06-.06-.06-.06-.06-.06,0,0v.87l0,.07,0,.07,0,.07,0,.08V41.32l0-.07,0-.08,0-.07,0-.07v-.88l.06.06.06.06.06.06.06.06.06.06.06.06.06.06.07,0,.05.05.07,0,.07,0,.08,0,.08,0,.09,0h.31v2.46h-.12Zm11.94,5.6-.11.13-.17.19-.18.19-.16.16,0,0,.11.07.1.08v2.47l-.1-.08-.11-.07-.1-.08-.09-.08-.1-.08-.09-.08-.09-.08-.09-.08-.08-.08-.08-.08-.08-.08-.07-.08L99,51.19,99,51.11,98.9,51,98.83,51l0-.05,0-.06v-.24l-.14.12-.25.19-.24.19,0,0v0l0,.1,0,.09v2.47l0-.1,0-.09,0-.1,0-.1,0-.1,0-.1,0-.1,0-.1,0-.1,0-.1,0-.1,0-.1,0-.09v-.1l0-.09v-.91l-.09.06-.27.19-.27.19-.28.19-.29.19-.29.19-.3.18-.3.19h0v2.08l0-.08v-.09l0-.09V52.89L95.3,53l-.32.18-.08.05-.08,0-.09,0-.08.05-.08,0-.09,0-.08.05-.09,0-.08,0-.09,0-.08.05-.09,0-.08,0-.08,0-.09,0-.08,0-.09,0-.09,0-.08,0-.09,0-.08,0-.09,0-.08.05-.09,0-.08,0-.09,0-.08,0-.09.05-.09,0-.08,0-.09,0-.08,0V52.14l.08,0,.09,0,.08,0,.09,0,.09,0,.08,0,.09,0,.08,0,.09,0,.08-.05.09,0,.08,0,.09,0,.08-.05.09,0,.09,0,.08,0,.09-.05.08,0,.08,0,.09,0,.08-.05.09,0,.08,0,.09-.05.08,0,.09,0,.08-.05.08,0,.09,0,.08,0,.08-.05.32-.18.31-.19.3-.18.3-.19.29-.19.29-.19.28-.19.27-.19.27-.19.26-.19.26-.19.24-.2.25-.19.23-.19.23-.19.21-.19.22-.19.2-.19.2-.19.19-.19.18-.19.17-.19.16-.18.16-.19.15-.18.14-.18.13-.19.12-.17.11-.18.1-.18.1-.17.08-.17.07-.16.06-.16,0-.15,0-.15,0-.15,0-.15v2.47l0,.15,0,.14,0,.16,0,.15-.06.16-.07.16-.08.17-.1.17-.1.18-.07.11h0l0,0,0,0,0,0,0,0v2.47l0,0,0,0,0,0,0,0,0,0,0,0,0,0,0,0,0,0,0,0,0,0,0,0,0,0,0,0,0,0,0,0-.07,0-.06,0,0,0,0,0,0-.06,0-.05v-.91Z"/><path class="cls-11" d="M79.44,52.58c4.2,2.42,6.71,5.29,10.94,5.81a23.73,23.73,0,0,0,14.08-3.11c4.1-2.36,6.32-5.47,6-8.47-.33-2.82-3.38-5.44-7.83-7.6a25.1,25.1,0,0,0-13.18-4.53,28,28,0,0,0-14.67,3.45c-4.1,2.37-6.36,5.44-5.37,8.13.9,2.44,5.87,3.89,10.06,6.32Zm-4.77-8.19-.34,0c-1.23.14-3,.67-2.79,1.54.09.4.62.67,1.24.81,2.08.5,4.76-.46,6.2-1.28.19-.11.27-.25.22-.4a.58.58,0,0,0-.45-.32,14.49,14.49,0,0,0-1.54-.29,20,20,0,0,0,2.32-.3.62.62,0,0,0,.48-.31c.07-.14,0-.29-.16-.4s-.56-.34-.86-.49a17.28,17.28,0,0,0,2.26.21A1,1,0,0,0,81.9,43a.29.29,0,0,0,.11-.41,4.16,4.16,0,0,0-.79-1,16.55,16.55,0,0,0,2.62.48,1.07,1.07,0,0,0,.68-.12c.19-.11.26-.25.2-.4a4,4,0,0,0-.47-.89,12.08,12.08,0,0,0,2,.94l.24.05a38.31,38.31,0,0,0-3.79,1.9c-3.39,2-5.89,4.13-6.23,5.68a.92.92,0,0,0,.12.72c-2.52-1.2-4.71-2.29-5.25-3.77-.9-2.44,1.16-5.24,4.89-7.39a25.55,25.55,0,0,1,13.36-3.15,23,23,0,0,1,12,4.12c4,2,6.83,4.36,7.13,6.93.32,2.73-1.7,5.56-5.44,7.72a21.63,21.63,0,0,1-12.81,2.82c-2.57-.31-4.44-1.58-6.53-3a4.87,4.87,0,0,0,1.25.07,16.54,16.54,0,0,0,4-.92c-.77.65-1.25,1.39-.93,2.1a1.51,1.51,0,0,0,1.23.81,3.05,3.05,0,0,0,3-1.39l.1-.19a1.76,1.76,0,0,0,.76,1.05,2.55,2.55,0,0,0,1.72.44,1.69,1.69,0,0,0,1.69-2h0a3.46,3.46,0,0,0,1,.49,3.06,3.06,0,0,0,1.87,0,1.07,1.07,0,0,0,.66-1.67l.41.11a3,3,0,0,0,1.87-.11c1.18-.55.5-1.64-.23-2.22l-.12-.09a5.69,5.69,0,0,0,1.61.22,2.44,2.44,0,0,0,1.66-.51c.56-.59-.09-1.23-.91-1.67a6.61,6.61,0,0,0,2.56-.1c.61-.17,1.1-.46,1.16-.86.12-.88-1.71-1.34-3-1.44a12.83,12.83,0,0,0-4.37.49c-.24.07-.39.19-.42.34s.06.29.26.39.47.23.74.34a15.86,15.86,0,0,0-2.07-.09.92.92,0,0,0-.62.22.27.27,0,0,0,0,.41,6.64,6.64,0,0,0,1.35,1.25c-.47-.15-1-.28-1.46-.39a1.25,1.25,0,0,0-.72.06c-.21.09-.32.22-.3.38a4,4,0,0,0,.49,1.56,10,10,0,0,0-1.57-.58,1.23,1.23,0,0,0-.71,0c-.23.08-.37.2-.39.35a3.58,3.58,0,0,0,.06,1.33,6.88,6.88,0,0,0-.72-.56,1.1,1.1,0,0,0-.67-.15.85.85,0,0,0-.59.24,4.83,4.83,0,0,0-.82,1.28,3.35,3.35,0,0,0-.3-.91.43.43,0,0,0-.21-.21c.91-.43,1.83-.91,2.71-1.42,3.39-1.95,5.87-4.14,6.72-6s-.16-3-2.14-3.8C98.14,39.81,96,39.26,93,39.72a26.16,26.16,0,0,0-3.77.93l0,0a3.45,3.45,0,0,0,1.42-2.44,2,2,0,0,0-2.07-1.88,2.37,2.37,0,0,0-1.63.55,1.51,1.51,0,0,0-.51,1.45,3.27,3.27,0,0,0-2.75-.74,1.31,1.31,0,0,0-1.09.88,1.2,1.2,0,0,0,.16.95l-.14-.08c-.91-.5-2.68-1-3.79-.43A.79.79,0,0,0,78.43,40a1.49,1.49,0,0,0,.13.25,3.85,3.85,0,0,0-3,.15.72.72,0,0,0-.2,1.08,2.25,2.25,0,0,0,.71.65h0c-1.21-.17-3.21-.13-3.66.71-.21.38.07.75.52,1a4.48,4.48,0,0,0,1.71.57Zm12.71-3.07a2.91,2.91,0,0,0,.12-1.17,5.38,5.38,0,0,0,.49.47.93.93,0,0,0,.63.2h.12c-.45.15-.9.32-1.36.5ZM80.24,51.87c.38-.6,4.2-3,7.42-5.45,2.29-1.7,3.69-3.6,4.91-4.23,3.25-1.69,4.77.05,4.77.05s3,.88.09,2.76c-1.09.7-4.37,1.51-7.32,2.83-4.17,1.86-8.4,4.07-9.43,4.28L80.46,52Z"/><ellipse class="cls-14" cx="62.19" cy="60.03" rx="24.47" ry="14.91"/><ellipse class="cls-14" cx="31.06" cy="51.09" rx="20.76" ry="12.24"/><ellipse class="cls-14" cx="89.17" cy="48.82" rx="21.19" ry="10.34"/><polygon class="cls-3" points="110.35 33.19 110.35 33.78 110.29 34.03 110.22 34.3 110.14 34.58 110.05 34.87 109.96 35.17 109.88 35.49 109.79 35.82 109.72 36.17 109.72 35.58 109.79 35.23 109.88 34.9 109.96 34.58 110.05 34.28 110.14 33.99 110.22 33.71 110.29 33.44 110.35 33.19"/><polygon class="cls-3" points="112.08 44.66 112.08 45.25 112.03 45.41 111.95 45.56 111.86 45.7 111.75 45.83 111.62 45.96 111.48 46.08 111.32 46.2 111.15 46.32 110.97 46.44 110.77 46.57 110.55 46.69 110.33 46.83 110.1 46.97 109.86 47.12 109.61 47.29 109.34 47.47 109.08 47.66 108.81 47.87 108.53 48.09 108.24 48.34 107.93 48.65 107.65 48.98 107.42 49.31 107.23 49.65 107.08 50 106.96 50.35 106.86 50.7 106.86 50.11 106.96 49.76 107.08 49.41 107.23 49.06 107.42 48.72 107.65 48.38 107.93 48.06 108.24 47.75 108.53 47.5 108.81 47.27 109.08 47.07 109.34 46.87 109.61 46.7 109.86 46.53 110.1 46.38 110.33 46.24 110.55 46.1 110.77 45.97 110.97 45.85 111.15 45.73 111.32 45.61 111.48 45.49 111.62 45.37 111.75 45.24 111.86 45.1 111.95 44.97 112.03 44.82 112.08 44.66"/><path class="cls-4" d="M34.76,27.55c17.52-13.81,51.13-14,68.73-.25a19.18,19.18,0,0,0,5.11,3.28c4.6,2.17-1.5,4.13,2.32,10.69,2.74,4.69.37,3.73-2.68,6.48-3.64,3.28,1.1,8.58-3.87,8.31-4.56-.24-5.21-.73-6.84,3.68C95.22,66,90.1,58.25,86.78,62.45c-2.67,3.38-2.55,6.58-7.08,2.69-5.63-4.84-5.09-.31-8.41,3-3.83,3.78-4.62-9.11-9.8-3.75-.7.74-3.37,4.47-4.52,3.73-2.24-1.43-1.13-9.26-7.92-5.66-5.43,2.88-4.21.16-7.14-3.45-2.74-3.38-6-.88-9-6-1.69-2.88-1.86-2.81-4.33-5-4.71-4.2,2.54-5.35,1-9.66-1.08-3-.7-4.3,1.48-7L33.2,29C33.72,28.45,34.21,28,34.76,27.55Z"/><polygon class="cls-3" points="9.82 30.31 9.82 30.9 9.88 31.16 9.95 31.43 10.03 31.7 10.12 32 10.2 32.3 10.29 32.62 10.37 32.95 10.45 33.29 10.45 32.7 10.37 32.35 10.29 32.02 10.2 31.71 10.12 31.4 10.03 31.11 9.95 30.84 9.88 30.57 9.82 30.31"/><path class="cls-4" d="M85.41,24.68c-17.52-13.82-51.14-14-68.73-.26a18.75,18.75,0,0,1-5.12,3.28C7,29.88,13.07,31.84,9.24,38.39c-2.73,4.7-.36,3.74,2.68,6.48,3.65,3.29-1.09,8.59,3.88,8.32,4.55-.24,5.2-.73,6.84,3.68,2.31,6.23,7.43-1.49,10.75,2.7,2.67,3.38,2.54,6.59,7.07,2.7,5.64-4.85,5.09-.31,8.41,3,3.84,3.78,4.63-9.11,9.8-3.74.71.73,3.38,4.46,4.53,3.73,2.24-1.44,1.12-9.26,7.92-5.66,5.43,2.88,4.21.16,7.14-3.46,2.74-3.38,6-.87,9-6,1.7-2.88,1.87-2.81,4.34-5,4.71-4.2-2.54-5.35-1-9.66,1.08-3,.7-4.3-1.48-7L87,26.09C86.44,25.58,86,25.16,85.41,24.68Z"/><path class="cls-1" d="M13.41,34.83a25.68,25.68,0,0,0,0,7l.39,1.31a20.14,20.14,0,0,0,1.09,2.58c3.16,6.18,9.55,10.67,15.66,13.55,17.49,8.24,42.84,8.24,60.32,0,6.11-2.88,12.5-7.37,15.66-13.55a21.73,21.73,0,0,0,1.1-2.58l.38-1.31a25.68,25.68,0,0,0,0-7l-.26-1.72c-7.16-39.49-86.92-39.49-94.08,0Z"/><path class="cls-15" d="M15.61,28.38a24.75,24.75,0,0,0,0,6.65L16,36.28a22.25,22.25,0,0,0,1,2.47C20,44.64,26.13,48.92,32,51.67c16.67,7.85,40.85,7.85,57.52,0,5.82-2.75,11.92-7,14.93-12.92a20.5,20.5,0,0,0,1-2.47l.37-1.25a24.25,24.25,0,0,0,0-6.65c-.06-.46-.36-2.37-.49-2.76C91.19-3.87,30.23-3.87,16.1,25.62c-.08.37-.17.74-.24,1.12Z"/><path class="cls-16" d="M29.59,15.87a2.22,2.22,0,0,0,0,1.68l.25.25a4.11,4.11,0,0,0,.71.45c2.09,1,6.31,1.14,10.31,1.29,5.79.22,12.8.2,19.86.2s14.07,0,19.85-.19c4-.16,8.22-.3,10.3-1.3a3.85,3.85,0,0,0,.72-.45,3,3,0,0,0,.25-.25,2.22,2.22,0,0,0,0-1.68,4.1,4.1,0,0,0-.34-.78c-4.87-4.81-17.77-9-30.78-9s-25.92,4.18-30.79,9a2.59,2.59,0,0,0-.17.33C29.7,15.57,29.64,15.72,29.59,15.87Z"/></svg>