<svg id="Layer_1" data-name="Layer 1" xmlns="http://www.w3.org/2000/svg" viewBox="0 0 120 120"><defs><style>.cls-1{fill:#981b1e;}.cls-1,.cls-2,.cls-3,.cls-4{fill-rule:evenodd;}.cls-2{fill:#c75f5f;}.cls-3{fill:#f9b349;}.cls-4{fill:#ffcc04;}</style></defs><title>stickers no outline</title><path class="cls-1" d="M23.73,36.82A14.76,14.76,0,1,0,6.82,61,79,79,0,0,0,31.44,72.14,110.05,110.05,0,0,0,60,75.82a110.17,110.17,0,0,0,28.57-3.68A79.16,79.16,0,0,0,113.2,61a14.76,14.76,0,1,0-16.91-24.2,49.77,49.77,0,0,1-15.36,6.72A80.74,80.74,0,0,1,60,46.18a80.76,80.76,0,0,1-20.93-2.64A49.59,49.59,0,0,1,23.73,36.82Z"/><path class="cls-2" d="M22.65,38.35a2.08,2.08,0,0,0-2.38,3.41,45.87,45.87,0,0,0,7.79,4.32,67.93,67.93,0,0,0,9.45,3.29,82.16,82.16,0,0,0,10.91,2.12A92.82,92.82,0,0,0,60,52.21a93.06,93.06,0,0,0,11.59-.72,81.7,81.7,0,0,0,10.9-2.12A67,67,0,0,0,92,46.08a45.49,45.49,0,0,0,7.79-4.32,2.08,2.08,0,1,0-2.38-3.41,41.41,41.41,0,0,1-7.09,3.91,61.48,61.48,0,0,1-8.85,3.08,74.94,74.94,0,0,1-10.34,2A88.33,88.33,0,0,1,60,48a88.21,88.21,0,0,1-11.07-.68,75.08,75.08,0,0,1-10.35-2,62.34,62.34,0,0,1-8.85-3.08A41.79,41.79,0,0,1,22.65,38.35Z"/><path class="cls-3" d="M28.42,52A12.86,12.86,0,0,0,13.7,73.08a69.31,69.31,0,0,0,21.44,9.68A96,96,0,0,0,60,86a96,96,0,0,0,24.87-3.2,69.25,69.25,0,0,0,21.43-9.68A12.86,12.86,0,1,0,91.59,52a32.72,32.72,0,0,1-4.93,2.82,51.55,51.55,0,0,1-8.44,3A70.28,70.28,0,0,1,60,60.15a70.36,70.36,0,0,1-18.22-2.29,51.59,51.59,0,0,1-8.52-3.08A33.18,33.18,0,0,1,28.42,52Z"/><path class="cls-4" d="M101.23,38.74a1.24,1.24,0,1,0-.73-2.36c-2,.61-3.62,3.29-5.27,6l-.11.19A38.05,38.05,0,0,1,92.85,46a3.9,3.9,0,0,1-1.66,1.46h0a1.87,1.87,0,0,1-1.26-.59,18.56,18.56,0,0,1-2.18-2.28l-.1-.12c-1.76-2.05-3.51-4.09-5.72-3.75h0c-2.07.3-3.76,2.78-5.45,5.28l-.09.13a30.44,30.44,0,0,1-2.24,3,3.07,3.07,0,0,1-1.54,1.13h0a2.31,2.31,0,0,1-1.38-.82A22.27,22.27,0,0,1,69,46.83l0-.06c-1.75-2.27-3.5-4.55-5.68-4.49h0c-2.13.08-3.83,2.4-5.55,4.73l-.06.09a27.72,27.72,0,0,1-2.23,2.76,2.63,2.63,0,0,1-1.44.92,2.75,2.75,0,0,1-1.49-1,26.77,26.77,0,0,1-2.23-2.89l0,0c-1.72-2.43-3.45-4.87-5.57-5h0c-2.19-.19-3.93,2-5.69,4.16l-.07.09a21.21,21.21,0,0,1-2.2,2.46c-.53.47-1,.76-1.36.71h0a3.71,3.71,0,0,1-1.56-1.28,34.66,34.66,0,0,1-2.25-3.22l-.06-.08C29.71,42,28,39.4,26,38.93h0c-2.25-.53-4,1.42-5.83,3.37l-.06.06a16,16,0,0,1-2.16,2.09,1.6,1.6,0,0,1-1.27.43,1.24,1.24,0,1,0-.73,2.36,3.78,3.78,0,0,0,3.44-.79A17.83,17.83,0,0,0,21.92,44L22,44c1.3-1.41,2.6-2.83,3.45-2.63h0c1,.24,2.46,2.43,3.87,4.61l.06.09a34.16,34.16,0,0,0,2.44,3.47,5.62,5.62,0,0,0,3,2.12l.11,0a4.18,4.18,0,0,0,3.34-1.3,22.77,22.77,0,0,0,2.5-2.77l.07-.09c1.34-1.67,2.67-3.32,3.56-3.24h0c1,.08,2.37,2,3.76,4l0,0a30.33,30.33,0,0,0,2.46,3.17,4.76,4.76,0,0,0,3.21,1.79h0a4.64,4.64,0,0,0,3.25-1.65,28,28,0,0,0,2.47-3l.06-.09c1.37-1.85,2.73-3.69,3.66-3.72h0c.92,0,2.28,1.75,3.64,3.52l.05.06a25.4,25.4,0,0,0,2.47,2.92,4.41,4.41,0,0,0,3.24,1.5h.06a5.12,5.12,0,0,0,3.18-2,32.91,32.91,0,0,0,2.45-3.3l.08-.12c1.39-2,2.76-4.08,3.76-4.22h0c.86-.14,2.16,1.38,3.47,2.91l.1.11a20.23,20.23,0,0,0,2.51,2.61,4,4,0,0,0,3.3,1.08l.1,0a6,6,0,0,0,3-2.34,39.86,39.86,0,0,0,2.43-3.65l.11-.19C98.75,41.36,100.15,39.08,101.23,38.74Z"/></svg>