<?xml version="1.0" encoding="UTF-8" standalone="no"?>
<!-- Created with Inkscape (http://www.inkscape.org/) -->

<svg
   xmlns:dc="http://purl.org/dc/elements/1.1/"
   xmlns:cc="http://creativecommons.org/ns#"
   xmlns:rdf="http://www.w3.org/1999/02/22-rdf-syntax-ns#"
   xmlns:svg="http://www.w3.org/2000/svg"
   xmlns="http://www.w3.org/2000/svg"
   xmlns:sodipodi="http://sodipodi.sourceforge.net/DTD/sodipodi-0.dtd"
   xmlns:inkscape="http://www.inkscape.org/namespaces/inkscape"
   id="svg4345"
   version="1.1"
   inkscape:version="0.48.5 r10040"
   width="257.54193"
   height="251.20453"
   viewBox="0 0 257.54193 251.20453"
   sodipodi:docname="kraftynook_tsumtsum_starwars_princessleia.svg">
  <metadata
     id="metadata4351">
    <rdf:RDF>
      <cc:Work
         rdf:about="">
        <dc:format>image/svg+xml</dc:format>
        <dc:type
           rdf:resource="http://purl.org/dc/dcmitype/StillImage" />
        <dc:title />
      </cc:Work>
    </rdf:RDF>
  </metadata>
  <defs
     id="defs4349" />
  <sodipodi:namedview
     pagecolor="#ffffff"
     bordercolor="#666666"
     borderopacity="1"
     objecttolerance="10"
     gridtolerance="10"
     guidetolerance="10"
     inkscape:pageopacity="0"
     inkscape:pageshadow="2"
     inkscape:window-width="516"
     inkscape:window-height="452"
     id="namedview4347"
     showgrid="false"
     inkscape:zoom="1.3818887"
     inkscape:cx="164.22967"
     inkscape:cy="151.46098"
     inkscape:window-x="0"
     inkscape:window-y="0"
     inkscape:window-maximized="0"
     inkscape:current-layer="layer1" />
  <g
     inkscape:groupmode="layer"
     id="layer1"
     inkscape:label="Princess Leia"
     transform="translate(-5.3900712,-32.748047)">
    <g
       id="g4370">
      <path
         id="path4358"
         d="m 128.94727,32.748047 c -37.616751,0 -61.584341,16.809191 -74.400395,39.898437 -3.229617,-1.929424 -6.735827,-2.998046 -10.404297,-2.998046 -15.986375,-2e-6 -28.583489,10.678948 -28.945312,44.865232 -0.361823,34.18631 12.958937,44.86719 28.945312,44.86719 3.527441,0 6.907255,-0.9808 10.033203,-2.77148 4.155265,5.95041 9.349991,11.18175 15.382813,15.62695 a 10.311974,11.487901 22.152323 0 0 -0.41211,0.89453 10.311974,11.487901 22.152323 0 0 5.21875,14.52734 10.311974,11.487901 22.152323 0 0 13.240235,-5.42968 c 12.266545,4.97425 26.355581,7.61132 41.341801,7.61132 14.56502,0 28.27754,-2.49893 40.29882,-7.20507 a 11.487901,10.311974 67.847677 0 0 13.41993,5.74804 11.487901,10.311974 67.847677 0 0 5.21875,-14.52929 11.487901,10.311974 67.847677 0 0 -0.44922,-0.97461 c 6.33294,-4.52334 11.78483,-9.88497 16.11718,-16.02735 2.99988,1.63131 6.22261,2.5293 9.58204,2.5293 15.98637,0 29.30908,-10.68089 28.94726,-44.86719 -0.36182,-34.186284 -12.96089,-44.865234 -28.94726,-44.865232 -3.49415,0 -6.84413,0.960317 -9.94532,2.71875 C 190.33513,49.422562 166.41144,32.748047 128.94727,32.748047 z"
         style="color:#000000;fill:#4b3128;fill-opacity:1;fill-rule:nonzero;stroke:none;stroke-width:0.5;marker:none;visibility:visible;display:inline;overflow:visible;enable-background:accumulate"
         inkscape:connector-curvature="0" />
      <path
         id="path4355"
         d="m 128.94727,32.748047 c -60.781205,0 -85.964846,43.864766 -85.964848,87.244143 -10e-7,43.37938 38.487734,69.84765 85.964848,69.84765 47.47711,0 85.96484,-26.46827 85.96484,-69.84765 0,-43.379376 -25.18364,-87.244143 -85.96484,-87.244143 z M 97.675781,101.43555 c 5.535069,-0.0616 8.820309,2.9375 8.820309,2.9375 a 1.50015,1.50015 0 1 1 -2.04882,2.1914 c 0,0 -2.24814,-2.1789 -6.738286,-2.1289 -4.417619,0.0491 -7.328125,2.68359 -7.328125,2.68359 a 1.50015,1.50015 0 1 1 -2.021484,-2.2168 c 0,0 3.70884,-3.40439 9.316406,-3.46679 z m 62.494139,0 c 5.60756,0.0624 9.31641,3.46679 9.31641,3.46679 a 1.50015,1.50015 0 1 1 -2.02149,2.2168 c 0,0 -2.91051,-2.63445 -7.32812,-2.68359 -4.49014,-0.05 -6.73828,2.1289 -6.73828,2.1289 a 1.50015,1.50015 0 1 1 -2.04883,-2.1914 c 0,0 3.28524,-2.99912 8.82031,-2.9375 z M 95.113281,124.0332 a 1.0001,1.0001 0 0 1 1.003907,0.67774 l 1.917968,5.39062 a 6.7799706,7.9952488 0 0 1 0.05859,-0.002 6.7799706,7.9952488 0 0 1 6.781254,7.99414 6.7799706,7.9952488 0 0 1 -6.781254,7.99609 6.7799706,7.9952488 0 0 1 -6.779297,-7.99609 6.7799706,7.9952488 0 0 1 0.603516,-3.2793 l -3.933594,-3.52343 a 1.0001,1.0001 0 0 1 0.701172,-1.75391 1.0001,1.0001 0 0 1 0.632812,0.26367 l 3.560547,3.18945 a 6.7799706,7.9952488 0 0 1 0.603516,-0.74609 l -3.308594,-5.18945 a 1.0001,1.0001 0 0 1 0.853516,-1.54883 1.0001,1.0001 0 0 1 0.833984,0.47266 l 3.173828,4.98242 a 6.7799706,7.9952488 0 0 1 1.011719,-0.47852 l -1.814453,-5.10156 a 1.0001,1.0001 0 0 1 0.880859,-1.34766 z m 66.730469,0 a 1.0001,1.0001 0 0 1 0.10156,0 1.0001,1.0001 0 0 1 0.88086,1.34766 l -1.81445,5.10156 a 6.7799706,7.9952488 0 0 1 1.01172,0.47852 l 3.17383,-4.98242 a 1.0001,1.0001 0 0 1 0.83398,-0.47266 1.0001,1.0001 0 0 1 0.85352,1.54883 l -3.3086,5.18945 a 6.7799706,7.9952488 0 0 1 0.60352,0.74609 l 3.56054,-3.18945 a 1.0001,1.0001 0 0 1 0.63282,-0.26367 1.0001,1.0001 0 0 1 0.70117,1.75391 l -3.9336,3.52343 a 6.7799706,7.9952488 0 0 1 0.60352,3.2793 6.7799706,7.9952488 0 0 1 -6.7793,7.99609 6.7799706,7.9952488 0 0 1 -6.78125,-7.99609 6.7799706,7.9952488 0 0 1 6.78125,-7.99414 6.7799706,7.9952488 0 0 1 0.0586,0.002 l 1.91797,-5.39062 a 1.0001,1.0001 0 0 1 0.90234,-0.67774 z"
         style="color:#000000;fill:#ffe2d0;fill-opacity:1;fill-rule:nonzero;stroke:none;stroke-width:0.5;marker:none;visibility:visible;display:inline;overflow:visible;enable-background:accumulate"
         inkscape:connector-curvature="0" />
      <path
         id="path4404"
         d="m 128.94727,32.748047 c -60.781205,0 -85.964846,43.864766 -85.964848,87.244143 0,0.15127 0.0049,0.3003 0.0059,0.45117 30.026038,-11.53283 58.639508,-27.866807 85.447268,-50.341798 25.62551,20.688075 55.00424,37.206388 86.45507,51.421878 0.0107,-0.50868 0.0215,-1.01782 0.0215,-1.53125 0,-43.379376 -25.18364,-87.244143 -85.96484,-87.244143 z"
         style="color:#000000;fill:#563c2e;fill-opacity:1;fill-rule:nonzero;stroke:none;stroke-width:0.5;marker:none;visibility:visible;display:inline;overflow:visible;enable-background:accumulate"
         inkscape:connector-curvature="0" />
      <path
         id="path4285"
         d="m 95.113281,124.0332 a 1.0001,1.0001 0 0 0 -0.880859,1.34766 l 1.814453,5.10156 a 6.7799706,7.9952488 0 0 0 -1.011719,0.47852 l -3.173828,-4.98242 a 1.0001,1.0001 0 0 0 -0.833984,-0.47266 1.0001,1.0001 0 0 0 -0.853516,1.54883 l 3.308594,5.18945 a 6.7799706,7.9952488 0 0 0 -0.603516,0.74609 l -3.560547,-3.18945 a 1.0001,1.0001 0 0 0 -0.632812,-0.26367 1.0001,1.0001 0 0 0 -0.701172,1.75391 l 3.933594,3.52343 a 6.7799706,7.9952488 0 0 0 -0.603516,3.2793 6.7799706,7.9952488 0 0 0 6.779297,7.99609 6.7799706,7.9952488 0 0 0 6.78125,-7.99609 6.7799706,7.9952488 0 0 0 -6.78125,-7.99414 6.7799706,7.9952488 0 0 0 -0.05859,0.002 l -1.917968,-5.39062 a 1.0001,1.0001 0 0 0 -1.003907,-0.67774 z m 66.730469,0 a 1.0001,1.0001 0 0 0 -0.90234,0.67774 l -1.91797,5.39062 a 6.7799706,7.9952488 0 0 0 -0.0586,-0.002 6.7799706,7.9952488 0 0 0 -6.78125,7.99414 6.7799706,7.9952488 0 0 0 6.78125,7.99609 6.7799706,7.9952488 0 0 0 6.7793,-7.99609 6.7799706,7.9952488 0 0 0 -0.60352,-3.2793 l 3.9336,-3.52343 a 1.0001,1.0001 0 0 0 -0.70117,-1.75391 1.0001,1.0001 0 0 0 -0.63282,0.26367 l -3.56054,3.18945 a 6.7799706,7.9952488 0 0 0 -0.60352,-0.74609 l 3.3086,-5.18945 a 1.0001,1.0001 0 0 0 -0.85352,-1.54883 1.0001,1.0001 0 0 0 -0.83398,0.47266 l -3.17383,4.98242 a 6.7799706,7.9952488 0 0 0 -1.01172,-0.47852 l 1.81445,-5.10156 a 1.0001,1.0001 0 0 0 -0.88086,-1.34766 1.0001,1.0001 0 0 0 -0.10156,0 z"
         style="color:#000000;fill:#1a1a1a;fill-opacity:1;fill-rule:nonzero;stroke:none;stroke-width:0.49999994;marker:none;visibility:visible;display:inline;overflow:visible;enable-background:accumulate"
         inkscape:connector-curvature="0" />
      <path
         id="path4259"
         d="m 104.27723,136.97754 a 8.4124002,5.0655308 0 0 1 -8.4124,5.06553 8.4124002,5.0655308 0 0 1 -8.4124,-5.06553 8.4124002,5.0655308 0 0 1 8.4124,-5.06553 8.4124002,5.0655308 0 0 1 8.4124,5.06553 z"
         style="color:#000000;fill:#f8abaf;fill-opacity:1;fill-rule:nonzero;stroke:none;stroke-width:0.5;marker:none;visibility:visible;display:inline;overflow:visible;enable-background:accumulate"
         transform="matrix(0.98977815,0.14261562,-0.14261562,0.98977815,0,0)"
         inkscape:connector-curvature="0" />
      <path
         inkscape:connector-curvature="0"
         style="color:#000000;fill:#f8abaf;fill-opacity:1;fill-rule:nonzero;stroke:none;stroke-width:0.5;marker:none;visibility:visible;display:inline;overflow:visible;enable-background:accumulate"
         d="m 173.02337,150.44894 a 5.0655308,8.4124002 81.800771 0 0 9.04883,3.81401 5.0655308,8.4124002 81.800771 0 0 7.60399,-6.21349 5.0655308,8.4124002 81.800771 0 0 -9.04884,-3.81401 5.0655308,8.4124002 81.800771 0 0 -7.60398,6.21349 z"
         id="path4262" />
      <path
         id="path4264"
         d="m 136.76933,153.41017 a 8.3219442,8.3219442 0 0 1 -8.32194,8.32195 8.3219442,8.3219442 0 0 1 -8.32195,-8.32195 8.3219442,8.3219442 0 0 1 8.32195,-8.32194 8.3219442,8.3219442 0 0 1 8.32194,8.32194 z"
         style="color:#000000;fill:#ffd8c0;fill-opacity:1;fill-rule:nonzero;stroke:none;stroke-width:0.5;marker:none;visibility:visible;display:inline;overflow:visible;enable-background:accumulate"
         inkscape:connector-curvature="0" />
      <path
         id="path4274"
         d="m 69.568359,172.2168 a 10.311974,11.487901 22.152323 0 0 -0.421875,0.91406 10.311974,11.487901 22.152323 0 0 5.21875,14.52734 10.311974,11.487901 22.152323 0 0 13.244141,-5.43554 C 81.016938,179.54984 74.963653,176.19259 69.568359,172.2168 z m 117.865231,0.65625 c -5.45342,3.89551 -11.56095,7.16492 -18.18945,9.75976 a 11.487901,10.311974 67.847677 0 0 13.42188,5.75 11.487901,10.311974 67.847677 0 0 5.21875,-14.52929 11.487901,10.311974 67.847677 0 0 -0.45118,-0.98047 z"
         style="color:#000000;fill:#ffd8c0;fill-opacity:1;fill-rule:nonzero;stroke:none;stroke-width:0.5;marker:none;visibility:visible;display:inline;overflow:visible;enable-background:accumulate"
         inkscape:connector-curvature="0" />
      <g
         inkscape:label="Layer 1"
         id="layer1-8"
         transform="translate(-166.59176,-913.34053)">
        <g
           style="font-size:90px;font-style:normal;font-variant:normal;font-weight:normal;font-stretch:normal;text-indent:0;text-align:center;text-decoration:none;line-height:125%;letter-spacing:0px;word-spacing:0px;text-transform:none;direction:ltr;block-progression:tb;writing-mode:lr-tb;text-anchor:middle;baseline-shift:baseline;color:#000000;fill:#00ff00;fill-opacity:1;fill-rule:nonzero;stroke:none;stroke-width:1px;marker:none;visibility:visible;display:inline;overflow:visible;enable-background:accumulate;font-family:Arial Black;-inkscape-font-specification:'Arial Black, Normal'"
           id="text7227">
          <path
             style="fill:#ffffff"
             inkscape:connector-curvature="0"
             d="m 210.16667,1179.4058 c -0.83138,0 -1.46424,0.096 -1.89854,0.2886 -0.42811,0.1862 -0.76314,0.4344 -1.00512,0.7447 -0.23576,0.304 -0.39708,0.6978 -0.48395,1.1816 -0.0869,0.484 -0.13033,0.9278 -0.13033,1.3311 l 0,0.4467 -1.41461,0 0,2.7734 1.41461,0 0,7.1102 3.79709,0 0,-7.1102 1.80548,0 0,-2.7734 -1.80548,0 c 0,-0.4405 0.0157,-0.7292 0.0467,-0.8657 0.0621,-0.2481 0.16751,-0.4281 0.31641,-0.5398 0.14892,-0.1176 0.39379,-0.1766 0.73503,-0.1766 0.27919,0 0.64526,0.037 1.09817,0.1123 l 0.41901,-2.2895 c -1.2657,-0.1551 -2.2307,-0.2329 -2.89457,-0.2329 z m -38.18484,0.2329 0,13.6434 3.87154,0 0,-2.5686 1.4237,-1.396 2.00114,3.9646 4.27154,0 -3.75036,-6.4215 3.54561,-3.4621 -4.66241,0 -2.82922,3.2759 0,-7.0357 -3.87154,0 z m 46.263,0 -3.79711,1.9449 0,1.8149 -1.39598,0 0,2.7639 1.39598,0 0,3.4807 c 0,1.1044 0.10551,1.9048 0.31643,2.401 0.21715,0.4902 0.54929,0.8563 0.99602,1.0983 0.44671,0.2419 1.1416,0.3632 2.08468,0.3632 0.81278,0 1.6876,-0.103 2.62447,-0.3075 l -0.2792,-2.6149 c -0.50256,0.1614 -0.89344,0.2421 -1.17264,0.2421 -0.31022,0 -0.52737,-0.1057 -0.65147,-0.3166 -0.0807,-0.1364 -0.12122,-0.4157 -0.12122,-0.8375 l 0,-3.5088 2.08468,0 0,-2.7639 -2.08468,0 0,-3.7598 z m 53.69009,0 0,13.6434 3.87156,0 0,-2.5686 1.42371,-1.396 2.00113,3.9646 4.27153,0 -3.75037,-6.4215 3.54562,-3.4621 -4.66241,0 -2.82921,3.2759 0,-7.0357 -3.87156,0 z m 19.11581,0 0,13.6434 3.54561,0 0,-1.4613 c 0.49014,0.6142 0.94308,1.0332 1.35877,1.2566 0.55218,0.2854 1.16023,0.4282 1.82409,0.4282 0.77555,0 1.47997,-0.2019 2.11281,-0.6052 0.63906,-0.4095 1.13831,-1.0237 1.49817,-1.8427 0.35984,-0.8252 0.53978,-1.7773 0.53978,-2.857 0,-1.6193 -0.39378,-2.8602 -1.18174,-3.7226 -0.78796,-0.8687 -1.78397,-1.303 -2.98763,-1.303 -0.58322,0 -1.11679,0.099 -1.60073,0.2979 -0.47775,0.1985 -0.90585,0.4963 -1.28432,0.8934 l 0,-4.7277 -3.82481,0 z m 12.8059,0 0,13.6434 3.79711,0 0,-13.6434 -3.79711,0 z m 73.19637,0 -3.79711,1.9449 0,1.8149 -1.39598,0 0,2.7639 1.39598,0 0,3.4807 c 0,1.1044 0.10551,1.9048 0.31643,2.401 0.21716,0.4902 0.5493,0.8563 0.99601,1.0983 0.44672,0.2419 1.14161,0.3632 2.08469,0.3632 0.81278,0 1.6876,-0.103 2.62447,-0.3075 l -0.2792,-2.6149 c -0.50256,0.1614 -0.89344,0.2421 -1.17264,0.2421 -0.31022,0 -0.52737,-0.1057 -0.65147,-0.3166 -0.0807,-0.1364 -0.12122,-0.4157 -0.12122,-0.8375 l 0,-3.5088 2.08468,0 0,-2.7639 -2.08468,0 0,-3.7598 z m -186.35577,3.5364 c -0.53358,0 -0.9832,0.1333 -1.34925,0.4 -0.35986,0.2607 -0.71062,0.7416 -1.05186,1.4428 l 0,-1.6194 -3.54562,0 0,9.8836 3.80621,0 0,-3.3131 c 0,-1.5821 0.19564,-2.6617 0.58652,-3.2387 0.27299,-0.4095 0.65767,-0.6142 1.15402,-0.6142 0.26058,0 0.61424,0.092 1.06096,0.2791 l 1.17263,-2.6989 c -0.66388,-0.3474 -1.27522,-0.5212 -1.83361,-0.5212 z m 7.76173,0 c -0.70731,0 -1.36498,0.053 -1.97301,0.1581 -0.60803,0.1056 -1.08577,0.2543 -1.43322,0.4467 -0.48394,0.2668 -0.85621,0.5832 -1.1168,0.9492 -0.25437,0.3599 -0.44961,0.8563 -0.58611,1.4891 l 3.62007,0.3819 c 0.1489,-0.4282 0.34455,-0.7199 0.58653,-0.8749 0.31022,-0.1986 0.77555,-0.2978 1.39598,-0.2978 0.48395,0 0.82188,0.092 1.01422,0.2792 0.19233,0.1861 0.28872,0.5116 0.28872,0.9769 -0.47154,0.1862 -0.91826,0.3385 -1.34016,0.4563 -0.4219,0.1122 -1.34347,0.3102 -2.76428,0.5957 -1.18504,0.2357 -1.99782,0.5955 -2.43832,1.0795 -0.44052,0.484 -0.66058,1.1011 -0.66058,1.8518 2e-5,0.8004 0.30403,1.4737 0.91206,2.0198 0.61424,0.5459 1.51057,0.819 2.6894,0.819 0.88723,0 1.6661,-0.1366 2.33617,-0.4095 0.49016,-0.2048 0.98319,-0.5461 1.47955,-1.0238 0.0434,0.2855 0.0869,0.4963 0.13033,0.6329 0.0435,0.1307 0.13649,0.3226 0.27921,0.5769 l 3.55512,0 c -0.19855,-0.4095 -0.32883,-0.7445 -0.39088,-1.005 -0.0559,-0.2669 -0.0836,-0.633 -0.0836,-1.0982 l 0,-4.365 c 0,-0.4654 -0.0931,-0.9522 -0.27919,-1.461 -0.18615,-0.515 -0.44052,-0.9121 -0.76316,-1.1912 -0.45912,-0.4033 -1.03323,-0.6672 -1.72193,-0.7913 -0.68869,-0.1307 -1.60073,-0.1953 -2.73613,-0.1953 z m 42.45679,0 c -0.77555,0 -1.43322,0.1428 -1.973,0.4281 -0.53979,0.2793 -1.07337,0.7475 -1.60074,1.4052 l 0,-1.6099 -3.527,0 0,9.8836 3.78759,0 0,-4.7463 c 0,-0.8996 0.14269,-1.5235 0.4281,-1.8709 0.2854,-0.3474 0.65767,-0.5211 1.1168,-0.5211 0.41569,0 0.73832,0.1308 0.96789,0.3909 0.22956,0.2543 0.34454,0.692 0.34454,1.3124 l 0,5.435 3.80621,0 0,-6.2822 c 0,-1.3028 -0.29781,-2.2646 -0.89344,-2.885 -0.58943,-0.6266 -1.4084,-0.9398 -2.45695,-0.9398 z m 10.81429,0 c -1.73103,0 -3.1051,0.4902 -4.12262,1.4706 -1.01753,0.974 -1.52628,2.2149 -1.52628,3.7226 0,1.6193 0.60182,2.9284 1.80548,3.9274 0.98029,0.8066 2.26461,1.2099 3.85294,1.2099 1.78066,0 3.17336,-0.484 4.17846,-1.452 1.01132,-0.974 1.51719,-2.2211 1.51719,-3.7412 0,-1.3525 -0.4066,-2.4912 -1.21937,-3.4157 -1.01132,-1.1478 -2.50658,-1.7216 -4.4858,-1.7216 z m 12.69424,0 c -1.73104,0 -3.1051,0.4902 -4.12263,1.4706 -1.01752,0.974 -1.52628,2.2149 -1.52628,3.7226 0,1.6193 0.60182,2.9284 1.80548,3.9274 0.9803,0.8066 2.26461,1.2099 3.85294,1.2099 1.78067,0 3.17335,-0.484 4.17847,-1.452 1.01131,-0.974 1.51718,-2.2211 1.51718,-3.7412 0,-1.3525 -0.40659,-2.4912 -1.21937,-3.4157 -1.01133,-1.1478 -2.50659,-1.7216 -4.48579,-1.7216 z m 50.81414,0 c -1.73103,0 -3.1051,0.4902 -4.12262,1.4706 -1.01753,0.974 -1.52629,2.2149 -1.52629,3.7226 0,1.6193 0.60183,2.9284 1.80549,3.9274 0.98029,0.8066 2.26461,1.2099 3.85293,1.2099 1.78067,0 3.17335,-0.484 4.17847,-1.452 1.01132,-0.974 1.51719,-2.2211 1.51719,-3.7412 0,-1.3525 -0.4066,-2.4912 -1.21937,-3.4157 -1.01132,-1.1478 -2.50658,-1.7216 -4.4858,-1.7216 z m 11.0844,0 c -1.20366,0 -2.17776,0.4033 -2.92228,1.2099 -0.74453,0.8066 -1.11679,1.9792 -1.11679,3.5179 0,1.3464 0.2883,2.4289 0.86531,3.2479 0.81278,1.154 1.87993,1.7309 3.20146,1.7309 0.67629,0 1.30624,-0.155 1.88946,-0.4653 0.37226,-0.1985 0.74453,-0.5178 1.11679,-0.9583 l 0,1.4981 c 0,0.7259 -0.13649,1.2347 -0.40948,1.5263 -0.26679,0.2916 -0.67339,0.4376 -1.21938,0.4376 -0.4219,0 -0.77225,-0.096 -1.05144,-0.2886 -0.19234,-0.1308 -0.33505,-0.3661 -0.42811,-0.7075 l -3.67631,-0.4184 c -0.0119,0.2109 -0.0186,0.3784 -0.0186,0.5024 0,0.999 0.36936,1.7961 1.10769,2.3917 0.74452,0.5957 2.1095,0.8934 4.09492,0.8934 0.86861,0 1.63796,-0.078 2.30804,-0.2325 0.67628,-0.155 1.23136,-0.4066 1.66568,-0.754 0.4405,-0.3475 0.79127,-0.8033 1.05185,-1.3679 0.26679,-0.5584 0.39998,-1.1478 0.39998,-1.7683 l -0.009,-0.4375 0,-9.3344 -3.54602,0 0,1.461 c -0.43431,-0.6018 -0.90254,-1.0328 -1.40509,-1.2935 -0.49636,-0.2606 -1.12921,-0.3909 -1.89856,-0.3909 z m 13.67121,0 c -1.11679,0 -2.00692,0.1175 -2.67079,0.3538 -0.66388,0.2295 -1.18504,0.5798 -1.56351,1.0514 -0.37847,0.4714 -0.56791,1.0332 -0.56791,1.6846 0,0.5957 0.17372,1.1259 0.52116,1.5913 0.35366,0.4653 0.78508,0.7974 1.29383,0.996 0.51497,0.1923 1.42992,0.4033 2.74525,0.6328 0.88103,0.1552 1.42412,0.2854 1.62887,0.3909 0.28541,0.149 0.42811,0.3599 0.42811,0.6328 0,0.2421 -0.10882,0.4435 -0.32594,0.6048 -0.2792,0.2171 -0.67297,0.3259 -1.18174,0.3259 -0.46533,0 -0.83759,-0.096 -1.11679,-0.2886 -0.27921,-0.1924 -0.49636,-0.5117 -0.65147,-0.9585 l -3.75988,0.3537 c 0.21716,0.9493 0.70731,1.6814 1.47045,2.1964 0.76935,0.5149 2.05656,0.7723 3.86204,0.7723 1.27811,0 2.28654,-0.1581 3.02486,-0.4745 0.74453,-0.3226 1.28721,-0.754 1.62845,-1.2939 0.34744,-0.5398 0.52118,-1.0948 0.52118,-1.6656 0,-0.5646 -0.16421,-1.0829 -0.49306,-1.5545 -0.32262,-0.4714 -0.79126,-0.8342 -1.4055,-1.0886 -0.61424,-0.2544 -1.55111,-0.4529 -2.8106,-0.5956 -0.83138,-0.099 -1.37117,-0.211 -1.61935,-0.335 -0.24817,-0.1242 -0.37226,-0.3073 -0.37226,-0.5494 0,-0.2171 0.0964,-0.4 0.28871,-0.5488 0.19854,-0.1552 0.51165,-0.2329 0.93976,-0.2329 0.4219,0 0.78176,0.099 1.07957,0.2977 0.21715,0.149 0.37226,0.3818 0.46533,0.6983 l 3.59236,-0.3536 c -0.24818,-0.6453 -0.56129,-1.1573 -0.93976,-1.5358 -0.37228,-0.3785 -0.84091,-0.6577 -1.40551,-0.8376 -0.5584,-0.18 -1.42701,-0.2698 -2.60586,-0.2698 z m 13.84826,0 c -0.67008,0 -1.28102,0.1457 -1.8332,0.4372 -0.40949,0.2173 -0.85951,0.633 -1.34967,1.2472 l 0,-1.461 -3.54561,0 0,13.6435 3.82481,0 0,-4.7186 c 0.37847,0.3909 0.80657,0.6858 1.28432,0.8843 0.48394,0.1986 1.01751,0.2979 1.60073,0.2979 1.20366,0 2.19968,-0.4315 2.98763,-1.2939 0.78797,-0.8687 1.18174,-2.1249 1.18174,-3.769 0,-1.489 -0.36275,-2.7394 -1.08867,-3.7508 -0.71972,-1.0113 -1.74055,-1.5168 -3.06208,-1.5168 z m 11.13072,0 c -1.73103,0 -3.10511,0.4902 -4.12264,1.4706 -1.01751,0.974 -1.52628,2.2149 -1.52628,3.7226 0,1.6193 0.60183,2.9284 1.80549,3.9274 0.98029,0.8066 2.2646,1.2099 3.85294,1.2099 1.78067,0 3.17335,-0.484 4.17846,-1.452 1.01133,-0.974 1.51719,-2.2211 1.51719,-3.7412 0,-1.3525 -0.4066,-2.4912 -1.21938,-3.4157 -1.01132,-1.1478 -2.50658,-1.7216 -4.48578,-1.7216 z m 27.66879,0 c -1.15402,0 -2.1004,0.1519 -2.83873,0.4559 -0.46533,0.1924 -0.91825,0.4872 -1.35877,0.8843 -0.44052,0.3909 -0.78795,0.8343 -1.04234,1.3306 -0.34745,0.6764 -0.52117,1.5235 -0.52117,2.541 0,0.974 0.1427,1.7558 0.42811,2.3453 0.28539,0.5893 0.67959,1.1043 1.18215,1.5449 0.50254,0.4343 1.10106,0.7507 1.79596,0.9492 0.7011,0.1924 1.57592,0.2884 2.62447,0.2884 1.08577,0 1.97921,-0.1519 2.6803,-0.4559 0.70731,-0.3041 1.28763,-0.7292 1.74055,-1.2752 0.45292,-0.5523 0.77845,-1.2037 0.97699,-1.9544 l -3.60146,-0.4095 c -0.16752,0.5274 -0.4219,0.9183 -0.76314,1.1726 -0.33503,0.2544 -0.75074,0.3818 -1.24709,0.3818 -0.59562,0 -1.08576,-0.2109 -1.47045,-0.6328 -0.38467,-0.4219 -0.57701,-1.0395 -0.57701,-1.8522 0,-0.9121 0.19234,-1.5913 0.57701,-2.038 0.39088,-0.4529 0.89964,-0.6795 1.52629,-0.6795 0.49636,0 0.89013,0.1082 1.18174,0.3259 0.29781,0.2109 0.50256,0.5273 0.61424,0.9492 l 3.56464,-0.4748 c -0.34125,-1.1107 -0.93687,-1.9544 -1.78688,-2.5314 -0.8438,-0.577 -2.07227,-0.8654 -3.68541,-0.8654 z m 12.57304,0 c -1.73104,0 -3.10511,0.4902 -4.12264,1.4706 -1.01752,0.974 -1.52628,2.2149 -1.52628,3.7226 0,1.6193 0.60182,2.9284 1.80548,3.9274 0.98031,0.8066 2.26461,1.2099 3.85294,1.2099 1.78067,0 3.17336,-0.484 4.17847,-1.452 1.01132,-0.974 1.51718,-2.2211 1.51718,-3.7412 0,-1.3525 -0.40659,-2.4912 -1.21937,-3.4157 -1.01132,-1.1478 -2.50658,-1.7216 -4.48578,-1.7216 z m 14.49061,0 c -0.73213,0 -1.35878,0.1268 -1.87994,0.3814 -0.51497,0.2544 -1.02704,0.6826 -1.5358,1.2843 l 0,-1.4423 -3.53652,0 0,9.8836 3.7971,0 0,-5.0442 c 0,-0.7507 0.13981,-1.2904 0.41901,-1.6192 0.2792,-0.329 0.63575,-0.4935 1.07006,-0.4935 0.26679,0 0.49965,0.078 0.6982,0.2328 0.19854,0.149 0.33793,0.3474 0.41859,0.5957 0.0497,0.155 0.0745,0.4495 0.0745,0.8838 l 0,5.4446 3.7971,0 0,-5.1 c 0,-0.7135 0.1365,-1.2317 0.40948,-1.5544 0.273,-0.3226 0.63286,-0.4839 1.07957,-0.4839 0.37847,0 0.6949,0.1708 0.94929,0.512 0.17371,0.2172 0.26058,0.5489 0.26058,0.9957 l 0,5.6306 3.79709,0 0,-6.2077 c 0,-1.3401 -0.2978,-2.3234 -0.89343,-2.95 -0.59562,-0.6328 -1.42371,-0.9493 -2.48465,-0.9493 -0.71972,0 -1.32486,0.1175 -1.81501,0.3538 -0.49014,0.2295 -1.03282,0.6667 -1.62845,1.3119 -0.2916,-0.5521 -0.66718,-0.9678 -1.1263,-1.2471 -0.45913,-0.2791 -1.08246,-0.4186 -1.87043,-0.4186 z m -198.64051,0.2234 4.15075,9.8836 c -0.19234,0.5275 -0.42811,0.8935 -0.7073,1.0982 -0.27299,0.2048 -0.63285,0.3069 -1.07957,0.3069 -0.67008,0 -1.27811,-0.087 -1.8241,-0.2606 l 0.29781,2.6431 c 1.14162,0.149 1.98542,0.2234 2.53141,0.2234 1.34636,0 2.34816,-0.2977 3.00583,-0.8934 0.46533,-0.4219 0.92156,-1.2347 1.36828,-2.4384 l 3.91788,-10.5628 -3.73175,0 -1.88945,6.5796 -2.03795,-6.5796 -4.00184,0 z m 30.72095,2.3826 c 0.52116,0 0.95878,0.2109 1.31243,0.6328 0.35366,0.4157 0.53028,1.0514 0.53028,1.9076 0,0.9183 -0.17662,1.5855 -0.53028,2.0012 -0.34745,0.4157 -0.79416,0.6233 -1.34015,0.6233 -0.53978,0 -0.98981,-0.2109 -1.34967,-0.6328 -0.35364,-0.422 -0.53026,-1.0734 -0.53026,-1.9544 0,-0.8687 0.17992,-1.5139 0.53978,-1.9358 0.35986,-0.4281 0.81567,-0.6419 1.36787,-0.6419 z m 12.69422,0 c 0.52118,0 0.9588,0.2109 1.31245,0.6328 0.35364,0.4157 0.53026,1.0514 0.53026,1.9076 0,0.9183 -0.17662,1.5855 -0.53026,2.0012 -0.34745,0.4157 -0.79417,0.6233 -1.34016,0.6233 -0.53977,0 -0.9898,-0.2109 -1.34966,-0.6328 -0.35366,-0.422 -0.53028,-1.0734 -0.53028,-1.9544 0,-0.8687 0.17994,-1.5139 0.53979,-1.9358 0.35986,-0.4281 0.81567,-0.6419 1.36786,-0.6419 z m 50.81416,0 c 0.52116,0 0.95878,0.2109 1.31243,0.6328 0.35366,0.4157 0.53028,1.0514 0.53028,1.9076 0,0.9183 -0.17662,1.5855 -0.53028,2.0012 -0.34745,0.4157 -0.79416,0.6233 -1.34015,0.6233 -0.53978,0 -0.98981,-0.2109 -1.34967,-0.6328 -0.35364,-0.422 -0.53026,-1.0734 -0.53026,-1.9544 0,-0.8687 0.17992,-1.5139 0.53978,-1.9358 0.35985,-0.4281 0.81567,-0.6419 1.36787,-0.6419 z m 49.73457,0 c 0.52118,0 0.95879,0.2109 1.31245,0.6328 0.35364,0.4157 0.53026,1.0514 0.53026,1.9076 0,0.9183 -0.17662,1.5855 -0.53026,2.0012 -0.34745,0.4157 -0.79418,0.6233 -1.34015,0.6233 -0.5398,0 -0.98981,-0.2109 -1.34968,-0.6328 -0.35365,-0.422 -0.53027,-1.0734 -0.53027,-1.9544 0,-0.8687 0.17994,-1.5139 0.53978,-1.9358 0.35986,-0.4281 0.81569,-0.6419 1.36787,-0.6419 z m 40.24183,0 c 0.52118,0 0.95879,0.2109 1.31244,0.6328 0.35364,0.4157 0.53027,1.0514 0.53027,1.9076 0,0.9183 -0.17663,1.5855 -0.53027,2.0012 -0.34744,0.4157 -0.79417,0.6233 -1.34015,0.6233 -0.53978,0 -0.98981,-0.2109 -1.34967,-0.6328 -0.35365,-0.422 -0.53028,-1.0734 -0.53028,-1.9544 0,-0.8687 0.17994,-1.5139 0.53979,-1.9358 0.35986,-0.4281 0.81568,-0.6419 1.36787,-0.6419 z m -77.61721,0.1393 c 0.48394,0 0.89342,0.1924 1.22847,0.5771 0.33504,0.3784 0.50256,0.9276 0.50256,1.6475 0,0.7197 -0.16132,1.2594 -0.48395,1.6192 -0.31643,0.3537 -0.7102,0.5303 -1.18173,0.5303 -0.49635,0 -0.89675,-0.1704 -1.20076,-0.5117 -0.30402,-0.3474 -0.45582,-0.8781 -0.45582,-1.5916 0,-0.8128 0.1427,-1.3927 0.42811,-1.7401 0.2916,-0.3536 0.67917,-0.5307 1.16312,-0.5307 z m 24.95125,0.037 c 0.44672,0 0.82519,0.1895 1.13541,0.5679 0.31022,0.3723 0.46533,0.9583 0.46533,1.7587 0,0.8687 -0.1489,1.4862 -0.44672,1.8522 -0.29781,0.36 -0.66718,0.5398 -1.1077,0.5398 -0.50254,0 -0.91825,-0.1895 -1.24708,-0.5679 -0.32883,-0.3785 -0.49305,-0.9583 -0.49305,-1.7401 0,-0.85 0.16132,-1.4642 0.48395,-1.8427 0.32262,-0.3784 0.72592,-0.5679 1.20986,-0.5679 z m -56.00724,0.046 c 0.42811,0 0.79085,0.1829 1.08867,0.5489 0.30401,0.3661 0.45623,0.9401 0.45623,1.7219 0,0.8872 -0.15511,1.5201 -0.46533,1.8985 -0.30401,0.3723 -0.68249,0.5585 -1.13541,0.5585 -0.49015,0 -0.89674,-0.1895 -1.21938,-0.568 -0.31643,-0.3847 -0.47443,-1.0018 -0.47443,-1.8518 0,-0.7755 0.16132,-1.3525 0.48395,-1.7309 0.32883,-0.3847 0.75073,-0.5771 1.2657,-0.5771 z m -96.34213,2.5872 0,0.6048 c 0,0.4714 -0.0778,0.8561 -0.23288,1.154 -0.1489,0.2916 -0.40618,0.5397 -0.77224,0.7445 -0.35986,0.2047 -0.75074,0.3073 -1.17264,0.3073 -0.40329,0 -0.7106,-0.094 -0.92156,-0.2791 -0.20474,-0.1924 -0.30691,-0.4377 -0.30691,-0.7355 0,-0.2606 0.10551,-0.493 0.31643,-0.6977 0.20474,-0.1986 0.69158,-0.4004 1.46093,-0.6052 0.56461,-0.1428 1.10769,-0.3069 1.62887,-0.4931 z m 84.42015,0.8935 0,3.797 4.04858,0 0,-3.797 -4.04858,0 z m 96.3049,0 0,3.797 4.04858,0 0,-3.797 -4.04858,0 z"
             id="path7232" />
        </g>
      </g>
    </g>
  </g>
</svg>
