<?xml version="1.0" encoding="UTF-8" standalone="no"?>
<!-- Created with Make The Cut! -->

<svg
   xmlns:mtc="http://www.make-the-cut.com/namespaces/make-the-cut"
   xmlns:dc="http://purl.org/dc/elements/1.1/"
   xmlns:cc="http://creativecommons.org/ns#"
   xmlns:rdf="http://www.w3.org/1999/02/22-rdf-syntax-ns#"
   xmlns:svg="http://www.w3.org/2000/svg"
   xmlns="http://www.w3.org/2000/svg"
   xmlns:sodipodi="http://sodipodi.sourceforge.net/DTD/sodipodi-0.dtd"
   xmlns:inkscape="http://www.inkscape.org/namespaces/inkscape"
   mtc:dpi="90"
   version="1.1"
   width="554.26672"
   height="821.8028"
   viewBox="0 0 554.26717 821.80314"
   id="svg2"
   inkscape:version="0.48.5 r10040"
   sodipodi:docname="bb8_starwars_rab.svg">
  <metadata
     id="metadata16">
    <rdf:RDF>
      <cc:Work
         rdf:about="">
        <dc:format>image/svg+xml</dc:format>
        <dc:type
           rdf:resource="http://purl.org/dc/dcmitype/StillImage" />
      </cc:Work>
    </rdf:RDF>
  </metadata>
  <defs
     id="defs14" />
  <sodipodi:namedview
     pagecolor="#ffffff"
     bordercolor="#666666"
     borderopacity="1"
     objecttolerance="10"
     gridtolerance="10"
     guidetolerance="10"
     inkscape:pageopacity="0"
     inkscape:pageshadow="2"
     inkscape:window-width="640"
     inkscape:window-height="480"
     id="namedview12"
     showgrid="false"
     inkscape:zoom="0.28717352"
     inkscape:cx="277.15418"
     inkscape:cy="410.90124"
     inkscape:window-x="0"
     inkscape:window-y="0"
     inkscape:window-maximized="0"
     inkscape:current-layer="Clipboard Trace: Trace Path 5" />
  <g
     inkscape:groupmode="layer"
     label="Clipboard Trace: Trace Path"
     id="Clipboard Trace: Trace Path"
     transform="translate(0.01041623,0.02830568)">
    <path
       label="Trace Path (1)"
       id="Trace Path (1)"
       d="m 514.219,821.361 c 0,0.228 -0.422,0.414 -0.938,0.414 -0.515,0 -0.937,-0.447 -0.937,-0.993 0,-0.546 0.422,-0.732 0.937,-0.413 0.516,0.318 0.938,0.765 0.938,0.992 z m 26.89,-13.824 c 0.271,0.676 0.238,1.485 -0.074,1.796 -0.311,0.312 -0.533,-0.242 -0.492,-1.23 0.045,-1.092 0.267,-1.314 0.566,-0.566 z m 12.564,-6.485 c 0.918,2.295 0.728,3.405 -0.392,2.285 -0.344,-0.343 -0.598,-1.504 -0.565,-2.578 0.054,-1.796 0.131,-1.772 0.957,0.293 z M 268.594,737.768 C 219.985,744.175 161.463,732.937 111.448,707.59 96.0225,699.773 60.5817,668.964 50.8355,654.9 c -1.6079,-2.32 -4.9498,-6.843 -7.4264,-10.051 -2.4765,-3.208 -4.5028,-6.085 -4.5028,-6.394 0,-0.309 -1.3399,-2.509 -2.9776,-4.889 -4.7984,-6.974 -10.997,-18.73 -17.9158,-33.979 -7.0965,-15.64 -14.48215,-42.698 -17.016964,-62.343 -1.45513,-11.278 -1.296858,-50.19 0.245954,-60.469 0.58043,-3.867 1.24943,-8.719 1.48667,-10.781 0.69564,-6.048 2.50845,-13.747 4.30489,-18.282 0.91914,-2.32 2.58288,-6.539 3.69725,-9.375 1.1143,-2.836 2.3668,-6 2.7834,-7.031 0.4165,-1.031 1.2028,-3.351 1.7471,-5.156 0.5444,-1.805 2.1334,-7.078 3.5311,-11.719 3.9225,-13.023 9.2949,-23.538 17.8482,-34.93 2.9965,-3.992 5.9978,-7.815 6.6695,-8.496 0.6717,-0.682 1.2212,-1.871 1.2212,-2.644 0,-4.873 25.0957,-32.371 41.7188,-45.712 9.7782,-7.847 13.89,-10.844 24.844,-18.108 8.216,-5.448 23.041,-13.375 25.034,-13.385 1.773,-0.009 5.903,-2.097 5.903,-2.983 0,-0.441 -2.303,-0.706 -5.117,-0.588 -4.174,0.175 -5.525,-0.168 -7.326,-1.86 -1.215,-1.141 -2.519,-2.075 -2.897,-2.075 -0.672,0 -11.854,-7.44 -12.785,-8.506 -0.258,-0.295 -1.271,-0.834 -2.251,-1.197 -4.054,-1.5 -10.962,-6.727 -11.447,-8.661 -0.2867,-1.142 -0.319,-8.341 -0.072,-15.997 0.931,-28.833 10.056,-58.349 24.752,-80.065 7.214,-10.66 19.733,-25.422 24.055,-28.365 2.128,-1.449 4.924,-3.633 6.213,-4.853 3.454,-3.268 18.193,-12.305 26.145,-16.03 9.123,-4.273 18.507,-7.285 29.028,-9.319 l 8.577,-1.657 0,-16.2688 c 0,-13.8361 0.211,-16.2687 1.406,-16.2687 1.675,0 1.556,-1.1626 1.733,16.875 l 0.142,14.5315 11.016,0.264 11.016,0.264 0,-51.9843 c 0,-28.5914 0.256,-52.65166 0.569,-53.46726 0.313,-0.81562 0.946,-1.48293 1.406,-1.48293 0.482,0 0.837,22.85529 0.837,53.79979 l 0,53.7997 4.453,0.642 c 19.713,2.842 42.745,12.604 57.489,24.366 1.326,1.058 3.808,2.978 5.515,4.267 6.48,4.894 14.974,13.956 22.308,23.801 18.908,25.381 30.235,59.929 30.235,92.217 0,9.259 -0.896,12.402 -3.548,12.447 -0.885,0.015 -5.194,3.22 -9.577,7.123 -4.383,3.902 -8.707,7.491 -9.609,7.974 -0.902,0.484 -1.641,1.43 -1.641,2.102 0,1.729 -4.131,3.399 -8.405,3.399 -4.105,0 -6.595,0.743 -6.595,1.969 0,0.458 3.692,2.651 8.203,4.875 4.512,2.223 11.443,6.023 15.403,8.443 3.961,2.42 7.616,4.4 8.124,4.4 0.508,0 1.908,0.822 3.112,1.826 1.204,1.004 5.893,4.603 10.42,7.997 9.38,7.031 8.936,6.638 22.596,20.024 26.851,26.312 47.83,60.199 59.296,95.778 9.131,28.336 12.87,58.841 10.997,89.73 -0.587,9.688 -1.512,19.302 -2.055,21.364 -0.544,2.063 -1.41,5.86 -1.924,8.438 -3.468,17.37 -8.061,32.642 -13.957,46.406 -5.317,12.411 -17.868,35.753 -21.893,40.713 -0.448,0.553 -2.804,3.748 -5.236,7.099 -9.604,13.241 -29.642,34.999 -34.829,37.818 -4.436,2.411 -22.907,15.695 -33.604,24.167 -3.714,2.942 -10.675,7.284 -15.468,9.65 -9.191,4.536 -28.951,12.458 -34.497,13.83 -6.037,1.494 -22.859,4.405 -33.75,5.841 z"
       inkscape:connector-curvature="0"
       style="fill:#ffffe0;stroke:none" />
  </g>
  <g
     inkscape:groupmode="layer"
     label="Clipboard Trace: Trace Path 6"
     id="Clipboard Trace: Trace Path 6"
     transform="translate(0.01041623,0.02830568)">
    <path
       label="Trace Path 6"
       id="Trace Path 6"
       d="m 235.467,237.961 c -0.689,3.575 -5.432,5.567 -7.746,3.254 -2.425,-2.425 -1.346,-7.777 1.811,-8.988 3.952,-1.517 6.801,1.236 5.935,5.734 z m 76.337,-18.913 c -2.531,2.531 -6.788,4.602 -9.46,4.602 -6.749,0 -14.063,-7.801 -14.063,-15 0,-7.199 7.314,-15 14.063,-15 6.749,0 14.062,7.801 14.062,15 0,3.653 -1.701,7.497 -4.602,10.398 z m -4.398,156.102 c 2.979,2.978 4.391,2.841 8.012,-0.78 3.426,-3.425 3.051,-6.164 -1.212,-8.853 -6.556,-4.136 -12.354,4.079 -6.8,9.633 z m -93.781,122.719 c -0.53,4.613 0.001,5.156 5.046,5.156 6.521,0 8.478,-2.207 6.758,-7.626 -1.947,-6.135 -11.032,-4.234 -11.804,2.47 z m 171.687,21.881 c 4.819,2.806 6.997,2.457 10.789,-1.733 6.904,-7.629 -4.537,-18.15 -11.82,-10.867 -3.315,3.316 -2.735,10.406 1.031,12.6 z m -235.103,12.337 c 1.28,3.335 7.054,3.706 10.109,0.651 3.022,-3.022 -0.508,-9.088 -5.287,-9.088 -4.145,0 -6.487,4.098 -4.822,8.437 z M 71.759,644.36 c 3.6818,3.682 4.83,3.753 9.1803,0.572 6.6819,-4.886 -0.8075,-15.797 -7.8143,-11.384 -4.4721,2.816 -5.0205,7.157 -1.366,10.812 z M 222.656,246.15 c 7.886,7.886 21.25,1.99 21.25,-9.375 0,-7.152 -5.925,-13.125 -13.02,-13.125 -10.461,0 -15.889,14.841 -8.23,22.5 z m -90,-3.75 c 0,5.417 0.313,5.625 8.438,5.625 8.125,0 8.437,-0.208 8.437,-5.625 0,-5.417 -0.312,-5.625 -8.437,-5.625 -8.125,0 -8.438,0.208 -8.438,5.625 z m 155.405,-14.779 c 8.859,8.859 15.956,9.573 24.416,2.455 16.079,-13.53 7.118,-43.926 -12.95,-43.926 -5.788,0 -8.187,1.23 -12.927,6.628 -5.022,5.72 -5.819,8.06 -5.819,17.095 0,9.66 0.562,11.03 7.28,17.748 z m 119.98,310.17 c -14.643,25.581 -13.106,24.739 -18.983,10.399 -5.802,-14.156 -19.167,-31.766 -30.905,-40.719 -7.299,-6.536 -10.059,-6.996 -19.482,-10.333 -40.605,-15.429 -91.926,6.476 -112.344,47.95 -3.333,6.772 -6.312,12.312 -6.619,12.312 -0.307,0 -2.784,-0.847 -5.506,-1.881 -3.998,-1.52 -7.8,-7.829 -19.809,-32.864 -8.174,-17.04 -14.862,-31.272 -14.862,-31.626 0,-0.354 6.934,-5.149 15.409,-10.655 23.823,-15.942 46.608,-36.446 60.261,-61.861 3.359,-5.597 6.686,-11.706 7.393,-13.576 2.694,-5.045 4.875,-8.942 7.092,-16.792 2.703,-7.57 4.478,-17.788 5.044,-29.026 l 0.873,-17.344 6.886,0 c 9.982,0 50.678,5.431 57.823,7.717 6.088,1.947 6.094,1.961 6.094,14.721 0,23.183 6.999,53.327 17.049,73.43 5.111,10.841 5.316,13.345 12.526,22.73 5.736,10.163 30.62,44.159 37.681,51.48 2.197,2.277 3.994,5.265 3.994,6.641 0,1.375 -4.327,10.059 -9.615,19.297 z M 101.445,668.765 c 2.804,7.723 3.701,12.366 2.385,12.336 -2.339,-0.055 -25.4308,-12.153 -33.5175,-17.56 -2.8359,-1.896 -5.1611,-4.405 -5.1671,-5.576 C 65.127,654.334 54.118,620.891 48.3973,607.087 45.4056,599.869 41.1147,589.322 38.862,583.65 31.7844,565.83 29.1286,560.554 20.879,547.92 c -7.0353,-10.774 -8.0137,-13.553 -7.921,-22.5 0.1953,-18.839 11.5333,-55.694 16.5895,-53.924 0.9295,0.325 10.3763,9.068 20.9931,19.428 10.6167,10.361 24.6167,23.2 31.1111,28.532 l 11.8079,9.694 9.7544,-3.891 c 5.365,-2.14 12.86,-5.007 16.656,-6.371 3.796,-1.364 16.829,-7.199 28.963,-12.967 20.236,-9.618 22.221,-10.211 23.986,-7.16 1.059,1.83 7.084,14.295 13.389,27.701 l 11.464,24.375 -14.303,1.123 c -35.167,2.761 -62.785,19.688 -79.236,48.565 -10.4523,18.347 -11.4649,44.059 -2.688,68.24 z m 10.211,-423.873 c 0.455,8.596 0.006,10.633 -2.344,10.633 -2.306,0 -2.906,-2.354 -2.906,-11.406 0,-15.147 4.443,-14.492 5.25,0.773 z m 39.375,-0.148 0.562,10.781 -16.968,0 -16.969,0 0,-11.323 0,-11.323 16.407,0.542 16.406,0.541 0.562,10.782 z m 36,-1.509 0,10.415 -8.437,0 c -4.641,0 -8.492,-0.211 -8.557,-0.469 -0.066,-0.258 -0.265,-4.687 -0.442,-9.844 l -0.322,-9.375 8.879,-0.571 8.879,-0.572 0,10.416 z m 61.138,7.449 c 1.008,2.626 -2.208,2.966 -28.089,2.966 l -29.227,0 -1.177,-4.688 c -0.647,-2.578 -0.66,-6.745 -0.029,-9.26 0.632,-2.515 0.301,-5.096 -0.734,-5.735 -1.035,-0.64 -1.882,-3.162 -1.882,-5.605 0,-3.977 1.03,-4.55 9.844,-5.477 5.414,-0.569 18.914,-1.284 30,-1.588 l 20.156,-0.554 0,13.487 c 0,7.419 0.512,14.823 1.138,16.454 z m 64.487,-4.742 0,5.654 -29.906,0.558 c -34.798,0.65 -31.902,2.748 -31.943,-23.144 -0.024,-15.354 0.2,-16.26 4.286,-17.286 7.708,-1.934 19.483,-14.574 21.882,-23.488 l 2.215,-8.227 11.766,1.099 c 22.257,2.078 34.412,10.205 38.616,25.819 1.108,4.114 2.472,15.888 3.031,26.164 0.971,17.842 0.845,18.684 -2.778,18.684 -2.746,0 -3.959,-1.425 -4.388,-5.156 -0.494,-4.297 -1.609,-5.254 -6.687,-5.744 -5.658,-0.546 -6.094,-0.183 -6.094,5.067 z m 37.031,5.859 c -2.32,0.014 -5.927,0.484 -8.016,1.046 -5.523,1.484 -6.515,-0.441 -6.515,-12.635 l 0,-10.937 9.375,0 9.375,0 0,11.25 c 0,10.409 -0.315,11.252 -4.219,11.276 z m -26.439,-4.245 c 0.514,3.417 -0.254,4.219 -4.041,4.219 -3.771,0 -4.676,-0.932 -4.676,-4.818 0,-3.869 0.796,-4.7 4.041,-4.219 2.511,0.373 4.282,2.197 4.676,4.818 z m -139.967,-34.453 0,6.797 -9.843,0 c -9.688,0 -9.844,-0.089 -9.844,-5.625 0,-4.485 0.807,-5.625 3.984,-5.625 2.192,0 6.621,-0.527 9.844,-1.172 5.7,-1.14 5.859,-0.987 5.859,5.625 z m 43.419,3.866 c -10.99,0.636 -24.478,1.625 -29.973,2.197 l -9.992,1.041 0.617,-25.154 c 0.594,-24.218 0.828,-25.496 6.286,-34.315 6.238,-10.078 17.486,-18.862 26.206,-20.464 l 5.625,-1.033 -6.04,2.361 c -8.897,3.477 -18.887,13.763 -21.349,21.98 -3.054,10.193 -0.702,19.683 6.989,28.195 22.154,24.523 66.337,11.409 66.337,-19.69 0,-12.654 -9.483,-25.483 -22.772,-30.806 -2.428,-0.973 -3.319,-1.822 -1.978,-1.887 7.521,-0.367 23.098,11.896 28.431,22.381 5.413,10.642 6.341,15 3.195,15 -1.753,0 -3.57,3.409 -5.005,9.393 -1.729,7.208 -4.032,10.914 -9.899,15.937 -4.206,3.6 -9.261,6.545 -11.235,6.545 -1.973,0 -4.009,1.612 -4.524,3.581 -0.823,3.146 -3.369,3.723 -20.919,4.738 z m 21.772,-16.846 c -27.27,11.394 -58.429,-13.841 -47.371,-38.364 8.717,-19.331 32.017,-26.374 51.739,-15.641 23.936,13.028 21.496,43.199 -4.368,54.005 z m -53.741,-66.06 c 30.597,0.515 30.987,0.573 22.5,3.337 -11.674,3.801 -65.519,2.448 -58.156,-1.462 3.275,-1.739 13.092,-2.255 35.656,-1.875 z m 47.613,602.128 c 8.961,2.575 19.305,3.933 17.656,2.319 -0.43,-0.42 -8.128,-2.505 -17.108,-4.633 -36.553,-8.662 -65.192,-24.183 -85.709,-46.451 -27.805,-30.178 -31.991,-59.399 -11.554,-80.667 9.974,-10.381 22.197,-15.945 37.385,-17.02 16.817,-1.19 24.623,1.289 45.731,14.525 9.877,6.193 18.76,11.261 19.74,11.261 0.979,0 2.376,-7.383 3.104,-16.406 1.104,-29.368 10.442,-54.532 39.768,-66.032 33.641,-12.586 60.141,6.485 69.069,49.709 4.874,23.595 2.274,58.36 -5.624,75.2 -9.378,22.012 -16.364,44.248 -31.124,64.756 -2.124,1.486 -2.084,1.672 0.228,1.043 6.664,-1.812 29.941,-51.213 36.773,-78.042 10.088,-39.617 2.545,-84.536 -17.575,-104.655 -14.854,-14.854 -35.747,-17.943 -55.76,-8.242 -14.056,6.812 -23.683,15.792 -29.583,27.593 -5.687,11.376 -6.445,14.637 -8.009,34.451 -0.692,8.766 -1.798,16.526 -2.458,17.244 -0.66,0.719 -7.95,-3.229 -16.2,-8.774 -19.322,-12.986 -30.919,-16.71 -48.472,-15.563 -15.101,0.986 -25.336,5.359 -36.816,15.731 -27.008,24.4 -16.274,67.131 24.971,99.403 19.768,15.468 36.133,23.071 71.567,33.25 z m 16.795,-11.79 c 10.356,1.825 23.892,3.358 30.08,3.407 l 11.25,0.091 9.017,-14.468 c 12.946,-20.771 25.056,-46.304 28.649,-60.406 4.06,-15.931 2.809,-41.754 -2.724,-56.271 -11.667,-30.607 -45.153,-40.07 -63.411,-17.919 -6.477,7.858 -9.228,15.882 -10.971,32.002 -1.078,9.978 1.469,38.211 4.055,44.952 0.532,1.384 -6.477,-4.789 -15.575,-13.718 -20.729,-20.345 -33.878,-27.484 -50.622,-27.484 -13.315,0 -18.798,3.09 -27.621,15.562 -11.798,16.679 -5.451,41.258 16.076,62.257 17.739,17.305 36.918,25.852 71.797,31.995 z m 155.514,-72.137 c -4.02,4.943 -6.276,8.365 -5.012,7.605 3.565,-2.146 18.078,-21.741 23.817,-32.157 2.841,-5.156 3.823,-7.737 2.182,-5.735 -1.641,2.002 -2.984,4.372 -2.984,5.267 -0.085,0.298 -4.448,5.76 -5.671,8.53 -4.11,5.497 -8.221,10.994 -12.332,16.49 z m 9.621,-82.404 c 2.305,1.685 4.309,1.841 6.766,0.526 6.365,-3.406 3.086,-11.841 -4.202,-10.806 -5.516,0.783 -7.064,6.989 -2.564,10.28 z m 18.536,-78.245 c 12.844,15.018 14.731,16.285 20.788,13.962 2.074,-0.83 2.258,-12.702 2.454,-16.146 l -0.355,-11.719 -0.676,10.782 c -0.383,2.842 -2.846,15.357 -5.885,16.406 -6.833,-2.88 -18.783,-19.522 -23.165,-24.814 -24.916,-31.572 -52.504,-70.834 -51.502,-112.999 -1.088,-20.231 1.543,-35.892 5.618,-33.446 1.241,0.744 0.994,-0.2 -0.549,-2.098 -2.634,-3.242 -2.94,-3.007 -5.012,3.859 -3.646,12.079 -3.006,43.116 1.237,59.979 6.997,27.814 26.122,60.076 57.047,96.234 z M 76.329,466.955 c 19.9476,19.69 22.0696,21.265 27.253,20.229 9.02,-1.804 56.794,-25.938 73.061,-36.907 54.275,-36.602 80.294,-98.919 53.456,-128.035 -11.628,-12.614 -22.308,-17.03 -41.193,-17.03 -14.182,0 -17.05,0.617 -26.038,5.595 -6.106,3.381 -15.696,11.74 -24.245,21.131 -7.778,8.545 -14.707,14.887 -15.396,14.093 -0.69,-0.794 -3.495,-7.62 -6.234,-15.169 -2.739,-7.548 -6.083,-15.831 -7.432,-18.405 l -2.452,-4.681 -11.1328,8.435 c -13.7798,10.441 -39.8656,36.856 -47.1719,47.767 l -5.451,8.141 3.1653,12.737 c 6.0548,24.365 15.4879,39.656 40.6448,65.882 15.3106,15.962 16.7176,16.407 31.8616,10.07 29.301,-12.26 52.077,-27.588 63.268,-42.577 17.364,-23.258 21.547,-45.157 11.796,-61.745 -5.555,-9.449 -17.028,-16.586 -26.663,-16.586 -13.016,0 -29.401,13.001 -41.215,32.702 -3.674,6.127 -6.694,10.346 -6.712,9.375 -0.018,-0.97 -1.219,-7.359 -2.668,-14.198 -4.401,-20.762 -11.498,-32.11 -26.5798,-42.5 -3.2997,-2.257 3.5065,-4.68 7.895,-9.079 6.3908,-4.875 6.9598,-4.99 9.2348,-1.879 1.334,1.824 5.246,10.849 8.694,20.055 3.448,9.206 6.762,16.746 7.365,16.756 0.603,0.01 6.822,-6.688 13.819,-14.883 18.754,-21.965 32.673,-30.111 51.414,-30.089 25.549,0.031 45.959,15.951 49.594,38.682 2.665,20.47 -12.228,49.981 -22.747,66.631 -19.861,26.564 -52.051,48.335 -104.835,70.904 l -9.784,4.183 -7.5687,-5.995 c -12.657,-14.465 -28.752,-27.973 -42.693,-43.587 -7.0081,-8.008 -22.983,-31.416 -22.983,-33.677 0,-0.839 -0.8735,-1.526 -1.941,-1.526 -6.0694,0 24.6198,39.521 50.6137,65.18 z m 367.165,-8.67 c 9.761,10.169 18.487,18.49 19.392,18.49 2.398,0 1.991,-4.64 -1.973,-22.5 -8.713,-39.263 -30.366,-80.361 -57.845,-109.79 -4.867,-5.212 -7.753,-8.052 -6.412,-6.311 1.635,2.123 2.614,11.107 2.973,27.289 0.426,19.143 1.377,26.42 4.608,35.239 6.453,17.616 20.079,37.602 39.257,57.583 z M 127.031,713.962 c 7.748,4.43 8.141,3.212 1.564,-4.849 -28.187,-34.55 -37.0115,-64.305 -27.859,-93.939 7.126,-23.072 22.658,-40.435 46.146,-51.59 22.889,-10.87 39.719,-12.117 70.149,-5.198 4.25,0.966 5.195,-0.036 10.129,-10.741 11.124,-24.141 35.938,-44.014 63.859,-51.142 38.238,-9.762 73.935,8.039 92.783,46.267 10.38,21.054 13.853,38.072 13.89,68.067 0.031,25.791 -3.685,46.483 -11.703,65.157 -2.104,4.898 -3.011,8.906 -2.016,8.906 3.359,-0.67 12.326,-10.072 15.083,-12.681 5.589,-5.849 8.108,-8.974 5.596,-6.945 -2.512,2.029 -7.054,6.459 -10.094,9.845 -6.534,7.28 -8.189,6.679 -5.071,-1.842 9.302,-25.421 13.235,-60.552 9.579,-85.557 -2.19,-14.979 -2.14,-15.434 2.34,-21.406 2.518,-3.356 9.032,-13.986 14.475,-23.621 l 9.898,-17.52 9.681,10.57 9.681,10.57 8.188,-1.84 c 4.503,-1.012 8.866,-1.421 9.695,-0.908 0.829,0.512 1.507,-0.302 1.507,-1.808 0,-2.395 -1.121,-2.402 -8.906,-0.057 l -8.906,2.682 -11.325,-11.772 c -28.718,-29.852 -57.355,-68.952 -69.734,-95.21 -18.84,-39.964 -22.529,-90.582 -8.968,-123.039 3.469,-8.3 3.505,-7.556 -0.442,-9.059 -2.612,-0.994 -2.808,-0.773 -0.963,1.086 3.384,3.69 -2.092,5.961 -2.877,9.658 0.121,1.588 -4.47,24.476 -5.074,25.293 -0.204,0.276 -6.192,-0.7 -13.307,-2.168 -7.114,-1.469 -23.693,-3.707 -36.842,-4.973 -16.52,-1.59 -23.906,-3.019 -23.906,-4.624 0,-4.336 -7.589,-19.504 -13.888,-27.756 l -6.274,-8.219 33.987,-1.358 c 18.693,-0.747 34.831,-1.398 35.863,-1.448 1.031,-0.049 3.562,0.486 5.625,1.19 2.234,0.763 1.855,0.215 -0.938,-1.357 -3.61,-2.031 -8.134,-2.305 -19.687,-1.19 -8.25,0.796 -25.444,1.507 -38.208,1.581 l -23.207,0.133 7.906,8.578 c 23.199,25.167 25.19,66.165 5.152,106.031 -20.418,40.621 -49.34,66.919 -103.565,94.169 -20.782,10.443 -57.6297,25.597 -62.241,25.597 -2.5716,0 -3.8754,-1.071 -29.9266,-24.59 -16.5276,-14.92 -38.6842,-38.575 -47.3922,-50.596 -3.3498,-4.624 -5.8941,-6.652 -6.70359,-5.342 -2.19785,3.556 -6.46542,21.185 -6.33103,26.153 0.06975,2.578 1.31467,-0.793 2.7665,-7.492 3.99492,-18.433 3.97752,-18.417 10.36812,-9.727 l 5.697,7.747 -6.8814,13.923 c -6.2469,12.64 -6.9746,15.751 -7.89295,33.745 -0.58315,11.426 -1.74702,19.366 -2.74793,18.748 -0.95496,-0.591 -1.33497,-2.119 -0.84446,-3.398 0.49051,-1.278 0.13908,-3.513 -0.78096,-4.966 -1.18479,-1.872 -1.68119,-0.896 -1.70153,3.345 -0.01768,3.689 1.29032,6.928 3.40785,8.437 C 19.6486,542.068 38.548,581.35 57.8927,641.775 l 9.3041,29.062 11.636,11.007 c 11.5986,10.971 30.1412,24.607 36.4422,26.8 1.825,0.635 -2.166,-2.454 -8.869,-6.865 -14.0173,-9.224 -36.1958,-28.183 -34.7087,-29.67 0.5528,-0.553 3.4918,0.833 6.5311,3.08 3.0393,2.247 5.9368,4.086 6.439,4.086 0.5021,0 5.9517,2.953 12.1101,6.562 6.1585,3.61 12.3205,6.599 13.6945,6.643 3.363,0.107 17.567,18.65 14.352,18.736 -1.364,0.037 -0.371,1.273 2.207,2.746 z M 308.25,326.275 c 2.715,1.985 3.773,1.937 5.984,-0.274 3.428,-3.428 1.508,-8.601 -3.193,-8.601 -5.06,0 -6.905,5.867 -2.791,8.875 z m -205.61,-61.698 0.016,4.364 127.969,-1.19 c 70.383,-0.654 129.867,-1.58 132.187,-2.056 3.977,-0.817 4.212,-1.752 4.087,-16.3 -0.088,-10.365 -0.661,-14.201 -1.743,-11.683 -0.952,2.215 -1.665,2.663 -1.743,1.094 -0.072,-1.461 -0.507,-2.281 -0.966,-1.822 -0.458,0.459 -0.157,3.834 0.67,7.5 1.151,5.102 0.906,6.666 -1.041,6.666 -4.916,-0.355 -3.908,-1.307 -3.727,-17.656 -0.678,-2.532 -0.293,-4.219 0.964,-4.219 1.151,0 2.093,1.315 2.093,2.923 0,1.608 0.844,2.402 1.875,1.764 1.031,-0.637 1.809,-3.429 1.727,-6.204 -0.081,-2.775 -0.573,-3.991 -1.094,-2.702 -0.633,1.569 -5.386,2.343 -14.383,2.342 l -13.437,-0.001 -0.562,-8.905 c -0.73,-11.559 -7.83,-26.97 -14.666,-31.834 -6.094,-4.335 -23.29,-9.883 -30.633,-9.883 -4.198,0 -5.6,-1.683 -10.197,-12.234 -6.003,-13.78 -15.806,-23.498 -28.102,-27.859 -7.343,-2.604 -6.223,-2.74 23.222,-2.824 24.404,-0.07 31.706,0.493 34.577,2.664 3.262,2.467 1.17,2.753 -20.156,2.753 -13.088,0 -23.796,0.744 -23.796,1.652 0,0.909 2.897,3.862 6.438,6.563 6.167,4.704 7.441,4.91 30.366,4.91 23.494,0 24.03,0.094 29.536,5.156 l 5.608,5.156 -4.568,-5.99 -4.567,-5.99 -24.739,-0.103 c -23.683,-0.1 -24.964,-0.305 -30,-4.802 l -5.261,-4.699 24.69,0.48 c 27.274,0.53 27.548,0.31 12.385,-9.924 -20.262,-13.674 -18.929,-13.418 -68.763,-13.195 -30.566,0.137 -44.277,-0.402 -42.375,-1.664 4.811,-3.194 0.912,-2.122 -10.274,2.825 -10.141,4.485 -31.586,17.943 -33.497,21.022 -0.483,0.779 10.644,1.192 24.728,0.919 l 25.606,-0.497 -5.625,4.706 c -5.376,4.498 -6.713,4.707 -30.178,4.716 -23.149,0.008 -24.758,0.25 -28.125,4.228 -3.569,4.214 -3.568,4.215 0.325,0.937 3.295,-2.773 7.848,-3.281 29.421,-3.281 14.162,0 26.015,-0.796 26.628,-1.788 0.607,-0.983 3.821,-3.648 7.142,-5.922 4.967,-3.402 4.587,-2.704 -2.148,3.94 -11.721,11.563 -15.162,20.31 -15.212,38.671 l -0.041,15.214 -8.699,1.193 c -4.784,0.655 -11.907,1.192 -15.827,1.192 -3.92,0 -7.595,0.756 -8.166,1.681 -0.572,0.924 -0.507,5.561 0.143,10.304 l 1.182,8.623 15.683,-1.206 c 15.044,-1.156 15.684,-1.045 15.684,2.714 0,3.269 -1.319,4.014 -7.969,4.495 l -7.968,0.576 -0.563,10.782 -0.562,10.781 -6.375,0 -6.376,0 -0.562,-10.781 -0.562,-10.782 -17.813,0 -17.812,0 -0.838,11.25 -0.838,11.25 -1.037,-11.25 c -0.89,-9.654 -1.569,-11.25 -4.787,-11.25 -2.063,0 -4.337,-1.265 -5.054,-2.812 -0.717,-1.547 -0.978,3.516 -0.579,11.25 0.523,10.156 0.294,12.239 -0.825,7.5 -1.349,-5.718 -1.458,-5.356 -0.843,2.812 0.388,5.157 0.713,11.339 0.722,13.74 z"
       inkscape:connector-curvature="0"
       style="fill:#d0d0d0;stroke:none" />
  </g>
  <g
     inkscape:groupmode="layer"
     label="Clipboard Trace: Trace Path 4"
     id="Clipboard Trace: Trace Path 4"
     transform="translate(0.01041623,0.02830568)">
    <path
       label="Trace Path 4"
       id="Trace Path 4"
       d="m 227.344,738.2 c -11.795,-0.886 -23.377,-2.534 -45,-6.403 -2.321,-0.415 -8.438,-2.036 -13.594,-3.603 -5.156,-1.566 -12.117,-3.671 -15.469,-4.677 -18.371,-5.517 -21.948,-8.104 -34.598,-25.023 -7.857,-10.509 -10.19,-14.535 -15.02,-25.916 -11.6879,-27.541 -9.8628,-55.686 5.067,-78.147 18.398,-27.679 52.483,-43.712 86.622,-40.747 5.903,0.513 12.288,1.755 16.512,3.213 3.789,1.308 7.286,2.378 7.773,2.378 0.486,0 2.245,-3.27 3.907,-7.266 1.663,-3.996 4.91,-10.315 7.215,-14.042 4.883,-7.892 16.188,-20.24 23.141,-25.275 2.668,-1.931 5.078,-3.829 5.357,-4.218 0.855,-1.192 17.88,-8.823 24.337,-10.908 9.984,-3.225 18.092,-4.193 30.837,-3.679 10.216,0.412 12.963,0.886 20.256,3.495 31.825,11.385 53.247,39.987 60.75,81.112 1.701,9.324 2.052,14.699 2.046,31.406 -0.008,25.218 -2.293,39.014 -10.25,61.873 -4.09,11.751 -5.47,14.391 -8.178,15.649 -2.31,1.072 -16.94,11.705 -26.862,19.523 -3.263,2.57 -7.693,5.582 -9.844,6.692 -8.536,4.405 -14.119,6.922 -14.809,6.677 -0.399,-0.142 2.614,-6.314 6.695,-13.717 4.081,-7.402 7.692,-14.314 8.024,-15.361 0.332,-1.046 2.198,-5.325 4.146,-9.509 10.414,-22.368 15.424,-40.086 17.082,-60.413 3.235,-39.656 -9.314,-74.837 -31.33,-87.833 -6.604,-3.898 -10.473,-5.027 -19.613,-5.722 -15.866,-1.206 -34.238,6.468 -46.063,19.242 -8.976,9.695 -16.637,27.733 -16.637,39.171 0,5.01 -1.593,22.529 -2.389,26.269 l -0.441,2.073 -3.356,-1.98 c -1.846,-1.089 -8.062,-5.11 -13.814,-8.936 C 211.81,591.605 200.545,587.4 186.445,587.4 c -25.652,0 -50.446,17.894 -55.659,40.169 -4.085,17.455 5.213,40.952 24.31,61.435 10.123,10.858 30.137,25.669 42.419,31.392 13.017,6.065 34.696,13.41 45.766,15.507 0.774,0.146 2.672,0.622 4.219,1.058 l 2.812,0.791 -2.343,0.668 c -2.953,0.841 -7.094,0.797 -20.625,-0.22 z M 60.5485,663.715 C 38.0137,639.058 18.8392,604.872 10.3833,574.275 9.45703,570.923 8.35264,567.337 7.92911,566.306 7.50556,565.275 6.96691,563.166 6.73208,561.619 6.49726,560.072 5.38001,554.166 4.24928,548.494 3.11856,542.822 1.99057,535.861 1.74262,533.025 l -0.45081,-5.156 5.91737,6.093 c 7.90612,8.142 13.28422,16.021 20.16192,29.539 5.2479,10.314 15.2852,34.903 15.2852,37.445 0,0.591 1.6277,4.43 3.6171,8.53 4.1394,8.532 5.4432,12.046 9.5484,25.736 3.1434,10.483 8.0625,25.795 9.0355,28.125 0.8043,1.926 1.392,5.625 0.8938,5.625 -0.2237,0 -2.5649,-2.361 -5.2026,-5.247 z M 442.02,541.697 c -1.113,-1.418 -6.522,-7.267 -12.022,-12.997 -27.873,-29.044 -52.285,-63.04 -66.111,-92.064 -5.838,-12.253 -6.577,-14.405 -11.499,-33.455 -7.883,-30.512 -7.384,-61.007 1.38,-84.332 4.274,-11.375 3.603,-11.045 11.547,-5.68 7.448,5.029 18.636,14.08 19.756,15.981 0.382,0.65 0.092,2.892 -0.645,4.981 -2.507,7.104 -3.596,18.67 -3.092,32.832 1.27,35.691 14.446,65.857 46.906,107.391 9.997,12.792 12.36,15.591 22.802,27.007 l 4.909,5.367 4.259,-1.282 c 4.046,-1.217 4.29,-1.185 4.871,0.646 0.798,2.516 -0.426,25.366 -1.621,30.25 l -0.926,3.786 -8.142,2.098 c -4.478,1.154 -8.639,2.087 -9.246,2.073 -0.607,-0.013 -2.014,-1.184 -3.126,-2.602 z M 80.4516,517.264 C 60.1263,500.058 38.6081,479.182 26.1527,464.587 25.0613,463.309 13.607,448.884 11.4402,446.06 c -0.9242,-1.205 -0.1024,-4.645 4.4201,-18.504 1.1778,-3.609 3.1448,-9.726 4.371,-13.594 3.5966,-11.342 3.7437,-11.415 8.1407,-4.014 12.2203,20.57 32.8727,44.164 61.6138,70.391 4.6328,4.227 8.6966,7.686 9.0306,7.686 1.5796,0 22.7586,-9.074 35.8336,-15.353 50.866,-24.425 77.936,-48.205 94.584,-83.085 14.028,-29.39 13.091,-53.858 -2.665,-69.59 -9.323,-9.31 -25.132,-15.754 -38.526,-15.706 -12.256,0.045 -28.359,6.369 -37.862,14.869 -2.884,2.58 -10.198,10.411 -16.253,17.403 -6.055,6.991 -11.147,12.712 -11.315,12.712 -0.168,0 -1.442,-3.059 -2.832,-6.797 -5.841,-15.713 -8.807,-23.006 -12.258,-30.144 -0.724,-1.497 -1.317,-2.838 -1.317,-2.98 0,-0.208 8.878,-5.676 15.938,-9.816 4.686,-2.748 12.733,-6.582 19.389,-9.237 8.402,-3.352 6.321,-3.277 31.236,-1.127 5.929,0.511 24.851,1.093 42.047,1.293 l 31.266,0.363 6.234,6.518 c 8.024,8.389 13.763,18.627 17.674,31.525 3.031,9.998 3.111,10.687 2.786,24.019 -0.664,27.211 -9.443,51.185 -28.541,77.945 -8.995,12.604 -16.291,20.642 -29.279,32.26 -5.978,5.348 -23.238,17.298 -35.625,24.666 -7.002,4.165 -29.513,15.755 -37.5,19.307 -1.804,0.802 -6.234,2.777 -9.843,4.388 -3.61,1.611 -10.993,4.634 -16.407,6.719 -19.0867,7.35 -22.0372,8.505 -22.6732,8.88 -0.3532,0.208 -6.0485,-4.199 -12.6562,-9.793 z M 168.469,253.462 c -1.181,-1.18 -1.568,-14.471 -0.534,-18.328 0.537,-2.007 1.014,-2.109 9.831,-2.109 l 9.265,0 0,10.781 0,10.781 -8.718,0 c -5.532,0 -9.131,-0.411 -9.844,-1.125 z m -63.536,-1.054 c -0.262,-0.683 -0.354,-5.219 -0.205,-10.078 l 0.272,-8.836 3.047,-0.294 3.047,-0.294 0,10.372 0,10.372 -2.842,0 c -1.563,0 -3.057,-0.559 -3.319,-1.242 z m 11.051,-8.836 0.266,-10.078 17.109,-0.256 17.11,-0.255 0,10.333 c 0,9.821 -0.096,10.334 -1.938,10.334 -1.406,0 -1.805,-0.451 -1.453,-1.641 0.267,-0.902 0.542,-3.961 0.612,-6.797 0.225,-9.182 0.943,-8.437 -8.136,-8.437 l -8.102,0 0.602,5.762 c 0.331,3.17 0.602,6.545 0.602,7.5 0,1.401 0.773,1.761 3.985,1.855 l 3.984,0.118 -4.219,0.75 c -2.32,0.413 -7.924,0.782 -12.453,0.82 l -8.235,0.07 0.266,-10.078 z m 217.823,-1.598 c -0.373,-6.556 -0.539,-12.056 -0.368,-12.22 0.171,-0.165 4.741,-0.445 10.155,-0.624 l 9.843,-0.324 0.165,11.953 0.164,11.953 -3.445,0.007 c -1.895,0.004 -6.233,0.27 -9.64,0.592 l -6.194,0.585 -0.68,-11.922 z m -21.151,5.631 0,-5.205 4.67,0 c 4.136,0 4.733,0.255 5.229,2.23 0.308,1.227 0.422,3.442 0.253,4.922 -0.291,2.54 -0.585,2.708 -5.23,2.975 l -4.922,0.283 0,-5.205 z m 44.992,-2.158 c -0.004,-3.996 -0.274,-9.481 -0.599,-12.188 -0.547,-4.549 -0.444,-4.922 1.359,-4.922 1.072,0 2.153,0.329 2.401,0.73 0.79,1.279 1.705,19.757 1.076,21.739 -0.333,1.051 -1.419,1.906 -2.417,1.906 -1.634,0 -1.813,-0.712 -1.82,-7.265 z M 142.13,149.822 c 0.697,-0.902 2.734,-3.117 4.527,-4.922 l 3.26,-3.281 18.791,-0.283 c 10.336,-0.156 21.956,-0.156 25.823,0 l 7.031,0.283 -4.218,2.812 c -2.321,1.547 -5.269,3.762 -6.553,4.922 -2.292,2.071 -2.77,2.109 -26.131,2.109 -22.52,0 -23.728,-0.087 -22.53,-1.64 z m 131.327,-2.67 c -3.19,-2.371 -5.801,-4.692 -5.801,-5.157 0,-0.48 10.41,-0.845 24.105,-0.845 l 24.105,0 4.02,3.945 c 2.211,2.17 4.02,4.49 4.02,5.156 0,0.956 -4.704,1.211 -22.324,1.211 l -22.324,0 -5.801,-4.31 z"
       inkscape:connector-curvature="0"
       style="fill:#f78d80;stroke:none" />
  </g>
  <g
     inkscape:groupmode="layer"
     label="Clipboard Trace: Trace Path 5"
     id="Clipboard Trace: Trace Path 5"
     transform="translate(0.01041623,0.02830568)">
    <path
       label="Freehand Line (W)"
       id="Freehand Line (W)"
       d="m 256.27,290.633 c -5.094,-0.178 -12.798,-0.203 -29.531,-0.096 -2.32,0.015 -6.539,-0.105 -9.375,-0.266 -5.672,-0.322 -11.746,-0.573 -26.953,-1.114 -5.543,-0.198 -15.404,-0.588 -21.914,-0.867 -16.028,-0.689 -20.523,-0.689 -22.375,-0.002 -1.63,0.604 -2.235,0.652 -2.235,0.176 0,-0.521 -1.374,-0.783 -5.39,-1.029 -3.915,-0.24 -4.912,-0.485 -6.94,-1.708 -1.525,-0.92 -5.836,-4.269 -7.357,-5.716 -1.41,-1.341 -3.721,-2.793 -7.266,-4.564 -6.589,-3.291 -11.059,-6.111 -10.538,-6.646 0.171,-0.176 9.224,-0.349 32.804,-0.627 10.893,-0.129 32.988,-0.392 49.101,-0.585 32.376,-0.388 98.378,-1.128 136.29,-1.528 13.47,-0.142 27.121,-0.224 30.335,-0.182 l 5.843,0.076 -3.173,2.734 c -1.745,1.505 -5.324,4.711 -7.953,7.126 -10.391,9.545 -11.488,10.205 -17.722,10.661 -3.83,0.28 -5.188,0.5 -8.62,1.397 -9.442,2.466 -39.741,3.714 -67.031,2.76 z M 118.862,255.187 c -1.326,-0.209 -1.909,-0.54 -1.45,-0.823 1.044,-0.645 19.355,-0.794 19.987,-0.162 0.15,0.15 0.225,0.274 0.167,0.275 -0.058,0.001 -1.265,0.166 -2.683,0.368 -2.945,0.418 -14.036,0.654 -16.021,0.342 z m 15.142,-3.692 c -1.152,-0.175 -1.798,-2.388 -0.845,-2.898 1.358,-0.727 11.388,-0.396 13.079,0.432 1.07,0.523 1.157,1.417 0.183,1.883 -1.245,0.597 -9.703,0.994 -12.417,0.583 z m 165.164,-28.162 c -4.002,-0.791 -8.662,-4.318 -10.314,-7.809 -2.097,-4.431 -1.924,-11.299 0.372,-14.795 6.203,-9.443 20.22,-8.877 24.741,0.998 5.112,11.166 -3.56,23.827 -14.799,21.606 z m -72.57,-20.266 c -13.422,-3.366 -22.265,-9.737 -26.83,-19.331 -10.901,-22.908 11.81,-47.328 39.879,-42.879 18.837,2.986 32.017,18.909 29.147,35.214 -1.112,6.323 -2.955,10.02 -7.901,15.849 -2.592,3.056 -9.901,7.673 -14.681,9.275 -6.079,2.036 -15.407,2.927 -19.614,1.872 z m 18.416,-93.601 c -0.394,-0.601 -0.419,-3.255 -0.484,-51.2697 -0.071,-52.24075 0,-57.365765 0.798,-57.949113 0.743,-0.543609 1.347,-0.2780592 1.708,0.751244 0.742,2.113769 0.542,107.842569 -0.206,108.743569 -0.472,0.569 -1.35,0.436 -1.816,-0.276 z"
       inkscape:connector-curvature="0"
       style="fill:#666666;stroke:none" />
  </g>
</svg>
